<mxfile host="Electron" modified="2023-12-12T05:54:20.761Z" agent="Mozilla/5.0 (X11; Linux x86_64) AppleWebKit/537.36 (KHTML, like Gecko) draw.io/21.6.8 Chrome/114.0.5735.289 Electron/25.5.0 Safari/537.36" etag="6GUHT3CkO4jw57X3LcjH" version="21.6.8" type="device" pages="2">
  <diagram name="analyse" id="p4rraDvrH2ec7ey4ZCoz">
    <mxGraphModel dx="1784" dy="3609" grid="1" gridSize="10" guides="1" tooltips="1" connect="1" arrows="1" fold="1" page="1" pageScale="1" pageWidth="850" pageHeight="1100" math="0" shadow="0">
      <root>
        <mxCell id="0" />
        <mxCell id="1" parent="0" />
        <mxCell id="G1HitYlAvnQOCPLEHpOn-87" value="" style="rounded=1;whiteSpace=wrap;html=1;arcSize=1;" parent="1" vertex="1">
          <mxGeometry x="-820" y="-2175" width="1270" height="1250" as="geometry" />
        </mxCell>
        <mxCell id="G1HitYlAvnQOCPLEHpOn-97" value="" style="rounded=1;whiteSpace=wrap;html=1;" parent="1" vertex="1">
          <mxGeometry x="25" y="-2145" width="195" height="100" as="geometry" />
        </mxCell>
        <mxCell id="G1HitYlAvnQOCPLEHpOn-2" value="" style="rounded=1;whiteSpace=wrap;html=1;arcSize=7;" parent="1" vertex="1">
          <mxGeometry x="-640" y="520" width="1270" height="500" as="geometry" />
        </mxCell>
        <mxCell id="G1HitYlAvnQOCPLEHpOn-1" value="" style="shape=image;aspect=fixed;image=data:image/png,iVBORw0KGgoAAAANSUhEUgAABVkAAAHxCAYAAAB3ZLzaAAAACXBIWXMAAAsTAAALEwEAmpwYAAAgAElEQVR4nOzdeXQUVaLH8d/trHQgBAhEQFZZFBTtasTnBgqIOgOo4AJxARcQF96MDo6MuI8+4emMC66guCOKLAo6iqgo+hiE7gARVEAQEGQJEPaEJH3fH5IMUZYk3Z1KOt/POZ5Tqa6q/nVuB+KP27ckAAAAAAAAAAAAAAAAAAAAAAAAAAAAAAAAAAAAAAAAAAAAAAAAAAAAAAAAAAAAAAAAAAAAAAAAAAAAAAAAAAAAAAAAAAAAAAAAAAAAAAAAAAAAAAAAAAAAAAAAAAAAAAAAAAAAAAAAAAAAAAAAAAAAAAAAAAAAAAAAAAAAAAAAAAAAAAAAAAAAAAAAAAAAAAAAAAAAAAAAAAAAAAAAAAAAAAAAAAAAAAAAAAAAAAAAAAAAAAAAAAAAAAAAAAAAAAAAAAAAAAAAAAAAAAAAAAAAAAAAAAAAAAAAAAAAAAAAAAAAAAAAAAAAAAAAAAAAAAAAAAAAAAAAAAAAAAAAAAAAAAAAAAAAAAAAAAAAAAAAAAAAAAAAAAAAAAAAAAAAAAAAAAAAAAAAAAAAAAAAAAAAAAAAAAAAAAAAAAAAAAAAAAAAAAAAAAAAAAAAAAAAAAAAAAAAAAAAAAAAAAAAAAAAAAAAAAAAAAAAAAAAAAAAAAAAAAAAAAAAAAAAAAAAAAAAAAAAAAAAAAAAAAAAAEDlMm4HiBWO49hD7Q8Gg6W+x6mpqX9IT0+/1uv1dklISMiQ5CksLNyWl5f33bZt2yZs3br19aNcM1RUVLQrPz9/xa5du2atX79+rKSNEX0xAAAAAAAAAMos3u0ANUhCq1atXq9Xr94Vv3sgISEjISEhIxQK7Tm4ZD0MT1xcXF2v19vZ6/V2Tk9Pv3nFihW99u7duyBKuQEAAAAAAAAcASVrhOTk5LyanJzcunbt2mcfvK94u3HjxnceXLAWFBT8smfPnvnW2vzExMRWXq/XOdL1d+/ePTcvL29VXFyc1+v1OklJScdJUlxcXFqrVq1eX7p0aQdJoSi8NAAAAAAAAABHQMkaIWvXrh1cr169qw4uWdeuXTu4eLt+/frXFm/n5ua+u2rVqoGSCg+6xDH169fvdrjrb9myZdz27dvfOPCladKkySPHHHPMnZKUlJTU3uv1+vbu3RuI1OsBAAAAAAAAUDYetwPUFImJic2Kt3fv3v25SheskrRx27Ztb5fxcnbDhg2jD96RkJDQKsyIAAAAAAAAACqAkrWSFBQUbCjebtSo0Z0pKSmnhHnJUmNnrd0b5vUAAAAAAAAAVAAlayXJycl5qXg7MTGxefv27QMtW7Z8MyUl5eQKXM40bdp0VPEX1trCnTt3zo9IUAAAAAAAAADlwpqslWTjxo2jU1JSTqtbt+4fD+zy1K9fP7N+/fqZubm50zds2HBbXl7eT4c7v2HDhkPr1KnTMy4urpbX6+2clJTUuvixzZs3Pylpa5RfAgAAAAAAAIBDYCZr5Sn48ccfL1q/fv3thYWFOQc/kJaWdnH79u0X1apV6/TDnVy7du2z09PTB9WrV+/ygwvWnJyc8evXr78zmsEBAAAAAAAAHB4la+Uq2rRp0+NLlixpsXbt2pv279+/uviBuLi4uscdd9xbOsrsYmvt/v3796/Ztm3bxOXLl3dbu3btUElF0Q4OAAAAAAAA4NBYLsAde3Nycp7Pycl5uUWLFs81aNDgWklKTExsUbt27TN37979xW9PWL169dXbt29/o/KjAgAAAAAAADgSZrJWnoRD7Mtfs2bNnw7ekZiYmFFJeQAAAAAAAABEACVrJTn++OP/Xbt27W6/3Z+Wltb94K8LCgp+rrxUAAAAAAAAAMLFcgER0rx581eSk5Nb/3bf2rVrB0uS1+t12rVrN2f//v1r9+3bl1VYWLgrKSmpZe3atc8sPj4/P3/Vrl275ldydAAAAAAAAABhoGSNkPT09EGH2ldcshZLTExsnpiY2Py3xxYWFm5dvXr1FeImVgAAAAAAAEC1QslaSVavXp1Zr169/l6v14mLi2vs8XgSQqHQrvz8/B9yc3M/3Lhx4zOStrqdEwAAAAAAAAAAAAAAAAAAAAAAAAAAAAAAAAAAAAAAAAAAAAAAAAAAAAAAAAAAAAAAAAAAAAAAAAAAAAAAAAAAAAAAAAAAAAAAAAAAAAAAAAAAAAAAAAAAAAAAAAAAAAAAAAAAAAAAAAAAAAAAAAAAAAAAAAAAAAAAAAAAAAAAAFWacTsAAAAAAACo8jx+v/86a+3VkjpISnc7EHAYOZKWGWNeDwQCEySF3A6EmoGSFQAAAAAAHInHcZz3JPV2OwhQTjOCweDFomhFJaBkBQAAAAAAh+X3+2+w1o5v07SpRmZmql2zZkpJTnY7FnBIe/LytHzdOo2eOFEr16+XtfaGrKysl9zOhdjncTsAAAAAAACoug4sEaCRmZnytW1LwYoqLSU5Wb62bXXnwIGSJGPM1S5HQg1ByQoAAAAAAI6kgyS1a9bM7RxAmR30fu3oZg7UHJSsAAAAAADgSNIlMYMV1UrtWrWKN7lJGyoFJSsAAAAAAAAAhIGSFQAAAAAAAADCQMkKAAAAAAAAAGGgZAUAAAAAAACAMFCyAgAAAAAAAEAYKFkBAAAAAAAAIAyUrAAAAAAAAAAQBkpWAAAAAAAAAAgDJSsAAAAAAAAAhIGSFQAAAAAAAADCQMkKAAAAAAAAAGGgZAUAAAAAAACAMFCyAgAAAAAAAEAYKFkBAAAAAAAAIAyUrAAAAAAAAAAQBkpWAAAAAAAAAAgDJSsAAAAAAAAAhIGSFQAAAAAAAADCQMkKAAAAAAAAAGGgZAUAAAAAAACAMFCyAgAAAAAAAEAYKFkBAAAAAAAAIAyUrAAAAAAAAAAQBkpWAAAAAAAAAAgDJSsAAAAAAAAAhIGSFQAAAAAAAADCQMkKAAAAAAAAAGGgZAUAAAAAAACAMFCyAgAAAAAAAEAYKFkBAAAAAAAAIAyUrAAAAAAAAAAQBkpWAAAAAAAAAAgDJSsAAAAAAAAAhIGSFQAAAAAAAADCEO92AACoQTx+v/86a+3VkjpISnc7UA2TI2mZMeb1QCAwQVIoys/n9nj/9vWKPNUqT7Tfn5Hk9nu9pqus9w7j7K7q/GcEAAA1gnE7AADUEB7Hcd6T1NvtIJAkzQgGgxcrimVEFRvvmfr17/w/uh3kAPIcWbTfn5FU1d7rNV203juMc9VSnf6MQIxwHMdKUmDcOLejAOXiHzpUkhQMBum/EHW8yQCgEvj9/hustePbtGmqkSMz1a5dM6WkJLsdq0bZsydPy5ev0+jRE7Vy5XpZa2/Iysp6KRrPVTzeLds01U0jM9WqXTN5K3m89+7J0+rl6/Tc6In6aeV6SRJ5qk+eaL4/I6n4vd60aRtlZo5Us2btlJyc4nasGiUvb4/WrVuuiRNHa/36lVF57zDO7quMcQaOhJIV1RUlKyoTa7ICQCU48PFKjRyZKZ+vLQWrC1JSkuXztdWddw6UJBljro7WcxWP900jM9XR17bSCztJ8qYkq6OvrYYdeL3kqV55ovn+jKTi93pm5ki1beujeHNBcnKK2rb1aeDAOyVF573DOLuvMsYZAACEh5IVACpHB0lq166Z2zlqvIPGoGMUn6aDJLWqAuN9cAby/F4VzhPN92ckdZCkZs3auZ2jxjtoDKLx3mGcq4gojzMAAAgDJSsAVI50ScxgrQJq165VvBnNm7akS3JlRuRvpfzn9ZLnEKpwnupyU6F0ScxsrAJq1apdvBmN9w7jXEVEeZwBAEAYKFkBAAAAAAAAIAyUrAAAAAAAAAAQBkpWAAAAAAAAAAgDJSsAAAAAAAAAhIGSFQAAAAAAAADCQMkKAAAAAAAAAGGgZAUAAAAAAACAMFCyAgAAAAAAAEAYKFkBAAAAAAAAIAyUrAAAAAAAAAAQBkpWAAAAAAAAAAgDJSsAAAAAAAAAhCHe7QCxxOfzdZB0lcfjudBa20xSA7czxapgMGjczgAAAAAAAABIlKwR4ff700Oh0CPGmOslGWut25EAAAAAAAAAVBJK1jB17tz5RGvtTGNMC6/Xqz59+qhnz55q2bKl0tLS5PGwIkNFzZo1S6NGjVIoFJKkmdbaJwsLCwPZ2dnb3c4GAAAAAAAAFKNkDYPf7z/JWvuVtTa1a9euGjlypDIyMtyOFROWLVtWXLAWSRoSDAZfdjsTAAAAAAAAcCiUrBXk8/maSPrIWpuamZmp2267jVmrEVJYWKgHH3xQoVBI1tprs7KyXnc7EwAAAAAAAHA4lKwVY4wxL1trm5x77rm6/fbbZQz3YYqUV199VStWrJCkNylYAQAAAAAAUNUx9bIC/H7/9ZJ6ZWRk6N5776VgjaA1a9Zo/PjxMsbssdb+1e08AAAAAAAAwNFQspbTOeeckyzpIY/Ho4cfflipqaluR4opEydOVEFBgSTdl5WVtcHtPAAAAAAAAMDRULKW065du66z1mb069dPPp/P7TgxZe/evfrggw+spM15eXlj3c4DAAAAAAAAlAUlazl07Ngx0Vp7pzFGV111ldtxYs6//vUv7du3z1hrX1+6dOl+t/MAAAAAAAAAZUHJWg6JiYlXSWrevXt3NWvWzO04McVaq3fffVeSFBcX94q7aQAAAAAAAICyo2QtO2OMGSFJ11xzjdtZYs7y5cu1fPlySVq4cOHCb93OAwAAAAAAAJRVvNsBqgufz3eCpBNOPPFEnXjiiW7HiTn/93//J0kyxrzhchQAAGoMv9/fPBAIrJNk3c4SKYWFBfrss0n6978/1KZNa2RtSPXrN9bQoY+oefPj3Y7ninPOOSd5z549aQsWLNjodpZIWrUqW6NHDy75Ojk5RR07nq6BA+9Uamp9SdK2bZs0ffrTWrp0nnbv3qHkZK969Biovn2HSZKGDvUf8toNGx6rhx9+L+qvAQAAxA5K1jIyxlwsSeeee67bUWLS/PnzJUnGmE9djgIAQI1hrR3nOM7xkqZ6PJ4pCxcunCcp5Hauitq/P09PPHGzQiGrAQNGqFWrk1RUVKhVq7KVlFTL7Xiu2bZtW3p8fPxax3G+tNZOCYVCUxcvXrze7VyRMnbsXCUlebV16wa99NI9eumlu3Xbbc+qqKhQjz02RD7fubrvvreVklJXmzevU07OhpJzx40LlLrW1q0bdP/9l+uaa+6p7JcBAACqOUrWsrtEks4++2y3c8ScvLw8LVq0SJJyFi5cuMztPAAA1CBGUgtJt4VCodscx/lF0jRJU1JTU7+cM2dOobvxymfatKe1f3++Ro58WfHxiZKkhIREdehwmsvJqgQjqZsxpltcXNxTjuP82xgzpaCgYMqSJUtWux0uEho0aKLevYfoySeHy9qQNmz4UTk563X++YNKZrY2btxKjRu3Ouw1Jk16TKeeer7at+9cWbEBAECMYE3WMjj11FObSercpEkTtW7d2u04MScrK0sFBQWS9KWq8ewZAABiQGNJN0v6dOfOnb/4/f4XfT7fhR07dkx0O9jRFBUV6quv3lPv3kNKCtbfWrUqW0OH+vX11+/rttu66+23H5P06xID06c/q7/9rbduuuk0jRz5B82cOV6hUKjUed9++7Xuu+9S3Xzz6Xrqqf/W7t25lfb6ouC/rLWPxsfHr3IcJ+g4zii/31/t11PIy9ujpKRaMsajBg0aKzExWVOnPqX8/L1HPXfJkrn66aeluvTSP1dCUgAAEGuYyVoGRUVFfSXprLPOkjHG7Tgx56ClAr5wOQoAADXNkdZiTbfWXm+MuT4pKWmH4zgzQqHQu7Vq1Zo1b968fZWWsIw2b16r/Py9at36pKMe+9138/XIIzNk7a8v/403HtaaNct0yy3/VOPGrbVmzTKNGzdSRUWFuuiim0rO+/rr9/WXv4xTKFSop5/+syZNelQ33PBw1F5TJfJJ8llrH3IcZ5m1doqkKVlZWUtUTdbrtdZqw4YfNX36s+rRY6AkyetN1Y03jtGECfcqO/sr9eiRqR49Bigpyfu78wsK8jVp0qPKzBwpr7dOZccHAAAxgJK1bLpK0plnnul2jpi0bNmvKwQYY+a6HAUAgJjkOE4/SZNV8U8x1ZV0lcfjuSo/P1+O47wjaUrEAkbAgU/FKC7u6L/e9up1jZKTUyRJu3fnat68mbrjjpd07LHtJEmtW3dSnz7DNHXq2FIl60UX3VTysfPzzx+s1177e6RfRkQ4jhNOMdrBGNNB0j2O4/yoKjbOhzJ8+K/LeXk8Hg0ceKe6dbu05LGTTjpLDz/8nmbPflOzZr2mL798V7fe+kTJWBf78MMJat78ePl81ef+C2GOc02WFQwGO4tP0AEAIozlAsrGkaQOHTq4nSPmWGu1cuVKSQrl5uayHisAANHRVZH9vc8aY6pUwdOgQWMZY/TzzyuPemyjRseWbG/d+oustWrSpPSSUBkZzbVr1zZZ+58epl69RiXbaWkNlZ+/t2RJgRhV5cb5UMaOnav//d+PdMIJp+nLL6eqoGB/qce93jrq23eYHn74fWVktNT48XeVenzz5rWaO3eaMjPvrMzYcI/v9NNPT3M7BAAg9jCT9Sj8fn9da22b9PR01a9f3+04MWf79u3asWOHJP24cuXKfLfzAAAQ424LBoNPFH/hOM5Hks4vw3k7JL1vrX03OTn5k+LlAhzHiVLM8ktJSdUJJ5ymWbNeVfv2/iMee/DyT2lpDSVJmzatUatWJ5bs37LlZ9WrlyFj/tNN79u3u+Sj5ps2rVFaWiN5PFVvzkIwGCy1vlWnTp2OjY+PX1eWc40xS0Oh0BRjzJRgMJgtyTqOU+Xbx7S0hhoy5BHdf/9lev/959S//59+d0xKSqouvPBaPf74TbI2VDK2EyeO0SWX3KLU1AaVHTssvx1nHJ3jOLmS6u7bty+m/3UEAOCOqvdbYRUTCoVOkaR27dod7VBUwIFZrJL0nZs5AACooY5U0uRYa1+UdGF+fn6jYDB4TVZW1vtVcT3WYpmZd2r16qV6/vm/av36lQqFirR3705lZX2uDRt+POQ5deumy3F66PXXH9bPP69QKFSk1au/1fvvP6/zz7+m1LFTpz6tvLw92rhxjf71rwk644w+lfGyKkNQ0iiPx3N8IBA4MSsr675gMFht1mMt5vXW0ZVX3qVPPnlDa9Z8p59/XqGZM8dr8+a1CoWKtHPnVs2dO03HH9+lpGANBGYrFCrSmWde5HJ6AABQ3TGT9SiMMY5EyRotq1atkiQZYyhZAQBw3y+SphpjptSpU2funDlzCt0OVB6NGjXX3Xe/qRkzxunJJ2/Vzp1blZhYS82atdPVV99z2POuu+5BTZv2tJ544hbt3p2rhg2P1QUXDC61tqckHXdcJ40adbEKCvJ12mkXqnfvIdF+SdE0zxgzpaCgYOqSJUtWux0mUk4+uatOPfV8vfrqg7rlln9o+fKAZs+eqLy83UpNbaBOnc4utSzAO+/8U9u3b9LQob+f/TxuXKAyowMAgGqOkvXoHElq27at2zliEjNZAQBwlZW0xhgzpaioaMqiRYv+rWp+M5j69Y/RoEH3HvbxQxVniYnJuuKKEbriihFHvPZ//dcffle8ViMhSXMlvVtUVDRt8eLF690OFK7WrU865Hhef/1DJdu33/78Ea8xZsyHEc8FAABqJkrWo2srSccdd5zbOWLShg0bJElFRUUrXI4CAECNY4wZGggE1qmafSwc5VO/fv2cffv2NZk/f/4mt7MAAADEKkrWo2siSY0aNTracaiAnJwcSVJCQsJGl6MAAFDjBAKBtW5nQPTNmTMnT1Ke2zkAAABiGSXrkXkkNU5ISFBqaqrbWWJSccman5/PzAoAAFAlHe5j6QAAAEAxj9sBqrJTTz21kaT4Bg0ayJgj3XwXFVFQUKAdO3ZI0t4lS5bscTsPAAAAAAAAUBGUrEcQCoWaSFJ6errbUWLS1q1bJUnGGGaxAgAAAAAAoNqiZD0Ca21TSWrYsKHbUWJS8VIB1trNLkcBAAAAAAAAKoyS9QiMMRmS1KBBA7ejxKTt27cXb25xMwcAAAAAAAAQDm58dQTW2iRJSkxMdC2D3+8v2b7rrrvUv3//kq9zc3PVq1cvFRUVSZI+/fRTpaWllTpHkgKBwO+u5fF41LBhQ/Xs2VM333yzkpOTf3fMwedGQ35+fvHm3qg9CQAAAAAAABBlzGQ9skRJio93v4tOTEzUrFmzSu2bPXv2IW/INWDAgJLtwYMHH/Lxiy++WPv27dObb76pRx99tMznRlJxyWqMyYvqEwEAAAAAAABRRMl6BNbaKlOytm3bVsFgsORmUZL08ccfq3379r87dsiQISXbw4cPP+Tjo0aN0pgxYyRJn332WZnPjaT9+/dLkqy1+Uc5FAAAAAAAAKiy3G8PqzCPx5Nora0SJetZZ52lpUuX6pNPPtGAAQO0ZcsWLVq0SDfeeKOWLl1aoWs2bdpUUqmP7VcqZrJWCR6/33+dtfZqSR0kpbsdSNJaa+23xpjRwWBwrtthAAAAgOrOcZw+khoXFhZOX7JkCTceBoAoYCbrkVWZmaw9evSQx+MpWTJg1qxZCoVC6tGjR4Wut3PnTr322muSpC5dukQsZ3kwk9V1Hsdx3rPWjpfUVVWjYJWk5saYP0j60nGcO9wOAwAAAFR3xpiOkl6Ij4/f5PP5Pncc59aTTz65qdu5ACCWuN8eVmFVabmABg0ayOfzKRgMatOmTZo1a5Zat26tVq1alftaBxezLVu21N/+9rdIRi2z4pJVUqmS1XEcW/lpwrbCGNMxEAgUuB2krA7MYO3dpk0bjRw5Uu3atVNKSoqrmay1ys3N1YIFC/TQQw/ZvXv3/o/P5/sgKytrmavBAAAAgBhhjDlH0jlxcXFjHceZZ4yZUlBQMHXJkiWr3c4GANWZ++1hFWatLTLGqLCw0O0okqRevXopEAjonXfe0bfffltq/dTyGDBggOrUqaM2bdqoW7duSkhIiHDSGqltUVFRS0kr3A5SVgeWCNDIkSPl8/ncjiNJMsaoXr166tWrl9asWWOef/75eGPM5ZLudzsbAAAAEINOt9aeHh8f/5jjOEFJUzwez5SFCxf+4HYwAKhuKFmPbIck7dmzx+0ckqTu3btrzJgxeueddyRJPXv2rNB1hgwZorS0tEhGq5DExMTizaSD9weDQVP5aSrOcZyfJLWQVG1msR7QQZLatWvndo5Datu2raSSjzYBAAAAEeHxeP7sOE6u2zkq2ZllOMaR5IRCoYd9Pl/IGPOhpFHBYDA7ytkAICZQsh6Bx+PZaa3V7t273Y4iSapfv778fr8WLFigFi1aqE2bNoc8bvz48SXbY8eO1fDhw8v8HOGcW17FJasxJukohyI60iW5vkTA4dSpU0eSZK1t6HIUAAAAxIa9kupKus/tIJXN2vKtyGaM8UjqLam34ziBqIQCgBhDyXpkVWomqySdd955WrBgwRFveDVp0qSS7VdeeaVcRWk455ZXUtKv3aq1NjlqTwIAAAAAkowxN1trz3E7hxuMMZ2ttWWZzXqw7yX9NTU19ZOdO3fui0YuAIgllKxHYK3dKcnVmayBQOl/NOzfv7/69+9/xGN++/XR9pf3mEhhJisAAACAyhIIBKZLmu52Djf4/f6ROvqSAVskTTPGTJH0+cE39XUcJ5rxACAmULIeWZWbyRpLmMkKAAAAAK5ab4yZGgqFprRp0+aryZMnF7kdCACqK0rWIzDG5FprtWPHDrejxKTiklWS180cAAAAAFBTGGNWW2unSJoSDAa/kRSSpKysLHeDAUA1R8l6BPHx8WsKCgr0yy+/yForY6rVTe+rvHr16hVvcmMjAAAAAIgSa+3P1tpH4uLiJi9cuHCRpPLdCQsAcFSUrEcwf/78nY7jbN63b1+j3Nzcg0tBREB6erokyRjTyOUoAAAAABCzgsHgG25nAIBY53E7QDWwUpLWr1/vdo6Y06BBA0mStTbD5SgAAAAAAABAhVGyHoUxhpI1ShISElS3bl1J8nbq1CnF7TwAAAAAAABARVCyHh0laxQVLxmQlJTEbFYAAAAAAABUS5SsRxEKhVZK0rp169yOEpOKS9aCgoJjXI4CAAAAAAAAVAgl61GEQqElkrR06VK3o8SkJk2aSJLi4uLauhwFAACUX44k5eXtcTtHjbdv3+7izZwoXJ5xriKiPM4AACAMlKxHsXjx4u+stdtWrVqlXbt2uR0n5rRp06Z48wQ3cwAAgApZJknr1i13O0eNd9AYRGNmAONcRUR5nAEAQBgoWY8uZIz5ylqr7Oxst7PEnNatW0uSrLWUrAAAVDPGmNclaeLE0Vq+PHjwLDtUkn37dmv58qDeemuMJMla+3qkn4Nxdl9ljDMAAAhPvNsBqgNjzJfW2r6LFy/WGWec4XacmMJMVgAAqq9AIDDBcZyL1q9f2fuxx4a4HQfSjKysrAmRvijjXOVEZZwBAEB4mMlaBsaYuZK0ePFit6PEnHr16iktLU2SjmvTpk2S23kAAEC5hILB4EXW2hskfSHWiXRDjqQvrLU3BIPBiyXZKDwH4+y+yhhnAAAQBmayloG1NkvS3uzsbG9+fr6SkugCI8UYo+OOO06BQMCTlpbWQVKW25kAAEC5hLKysl6S9JLbQRBVjDMAAMARMJO1DAKBQIEx5pO8vDzNnTvX7Tgxp0OHDpIka+3ZLkcBAAAAAAAAyo2StYxCodAbkvTxxx+7HSXmnHbaaZIka203l6MAAAAAAAAA5UbJWkZ169adKWnHV199pd27uaNqJPl8PiUkJEhSV/GeBAAAAAAAQDVDoVVGc+bMyZP0zv79+zVnzhy348SU5ORknXLKKZKU3rlz5w5u5wEAAAAAAADKg5K1fF6XpBkzZridI+YctGRAD5ejAAAAAAAAAOVCyVoOwWDwa0k/Lly4UIFAwO04MeWMM86QJFlrr3I5CgAAAAAAAFAulKzlEyUtc/0AACAASURBVDLG3CtJzzzzjKy1bueJGe3atVO7du0kqXPnzp1PdDsPAAAAAAAAUFaUrOUUCAQmSQouXrxYX3/9tdtxYoYxRpdeeqkkqaioaLC7aQAAAAAAAICyo2Qtv5C19q+S9PTTTysUCrmdJ2ZceOGFqlWrlvV4PNd07Ngx0e08VV2XLl0a+P1+r9s5AAAAAAAAajpK1grIysr6VNLHK1as0IQJE9yOEzO8Xq/++Mc/Gmttw+Tk5OFu56nqCgoKzrPWbvH7/ZN9Pt+AM888s47bmQAAAAAAAGoiStYKMsb82Riz74UXXuAmWBGUmZmphIQESXrA5/M1cTtPNeC11l5qjHlr3759WxzHec/n811zyimnpLkdDAAAAAAAoKagZK2gQCDwvaQbQqGQ/vznP9vvv//e7UgxoUWLFhoyZIistSnGmP91O081kySprzHmVY/Hs9lxnH/5/f4b/H5/utvBAAAAAAAAYhklaxgCgcBEa+0je/fuNcOGDbPz5s1zO1JMGDRokNq2bStJV/p8vqvdzlNNJUi6wFo73lq70XGcT/1+/81+v7+x28EAAAAAAABiTbzbAaq7rKysUX6/P2nXrl23Dx8+XFdeeaWuv/56paamuh2t2oqPj9e9996rQYMGKRQKvew4TnwwGHxFknU725F4PJ7VjuMUVdbzWWtNGQ+Nk9TdWttd0jOO43wlaUr0kgEAAAAAANQszGQNnw0EAiOstTdYa/PfeOMN9e3bV6NHj9a8efO0ceNGFRQUuJ2x2unQoYMefvhheTyeOEkTHMeZ4fP5ep5++un13c52CAsP2o6rrP+MMRX9+U221iZV8FwAAAAAAAD8BjNZI8NmZWW95Pf7v7bWPrxr165+kydP1uTJk93OFUv+aIz5Y35+vhzHUTAYLOsszqgLBoOXnnPOOZX+s7Rz584rJL1RhkOttfb/PB7P1Li4uGnffPPNaklyHGd0dBMCAAAAAADUDJSsEXTgZlj9O3fufKK1tp+19gJJzSVliO91TJszZ05hZT+nz+crMuawXXORpDnGmCmSpgeDwV8i+dzZ2dkaPHiwOnXqpJdffvmQx2RmZuqHH37QvHnzlJiYGMmnB2JWb//Qku2ZgXH6PnuVRgwu/e8hzY9romffuZ885AEAAABQhVD8RcHChQu/lfStpAfdzoIapcBa+4mkKR6P5/1AIJAT7SdcsWKFvvvuO51wwgml9gcCAa1bty7aTw/EnMdeGakRg0dr6rxnSu1/d+5YJXsrf5UP8lSvPAAAAADcw5qsQPWWJ2m6pKuMMQ2zsrL+mJWVNaEyClZJ8vv9mjRp0u/2v/XWW/L5fJURAQAAAAAAwHWUrEA15fF4Zufn5zcMBoOXBIPBNwOBwI7KznDZZZdp1qxZ2r59e8m+DRs26Ouvv1bfvn0rOw4AAAAAAIArKFmBaioQCOQsXbp0t5sZHMdRy5YtNW3atJJ9b7/9trp166aMjAwXkwEAAAAAAFQe1mQFEJaBAwfq+eef16BBg7R//3699957evLJJ92OBcSUS88eXrLdd2APDR1xhYtpyHM0VS0PAAAAgOijZAUQlgsuuEBjx47V559/ru3bt6tZs2Y6+eSTlZ2d7XY0IGZUtRspkefIqloeAAAAANFHyQogLImJierXr5+mTZumrVu36pprrnE7EgAAAAAAQKWiZAUQtssuu0yvvfaa6tSpo/POO8/tOFHRqVOnY9u3b//L5MmTi9zOEi1+/9CS7UBgnCRp06Ztevrp6Zo3b6l27NgtrzdZAwf20LBhfZWdvUqDB4+WJBljlJZWW127dtJtt12mOnW8rryGSKkJ4w0AAAAAiBxKVgBhS09PV48ePdS8eXMlJCS4HScq4uPj7165cuXFfr9/WigUmlK3bt05c+bMKXQ7VyS98spIDR48WvPmPSNJKiws0pAhj+ncc316++37VLduitat26wNG3JKnTd37lglJydqzZqNeuCBV3XffS/rn/+8xY2XEDFujfeIA6V1v9Nv0cwDRbdUeo1PSXp7zhNKqYQimzzVKw8AAAAA91CyAii3k046SYFAoNS+hx566KjHVHfGmAxr7TBjzLAdO3ZscxznPWPMlB07dsxeuXJlvtv5Iu3HHzdo/focDRp0vurXT5UktWrVWK1aNf7dsR6PUatWjXXjjX30pz+NVShk5fGYyo4cUW6M98FFnSQdf1Lr3+2rTOQ5sqqWBwAAAIB7PG4HAIDqyBhTX9K11tqZqampm30+35uO4/Tz+/0xM12tceMGSk5O1FNPTdXevWXrFPPzC1SrVlK1L1h/qyaMNwAAAACg4pjJCgDhSzXGZErKtNbudRznX9baKYmJiR/Mnz9/p9vhKio11asxY27UvfdO0FdfZSszs4cGDOgh7yHumh4KhfT99+v07LPTdcUV57qQtlLF5Hij6nEc588RvNyfIngtAAAAAL9ByQqgynMcx7qdoRy8kvobY/oXFBTIcZyZkqa4HaqizjrrJL333sN6883Zeu21WXr33S/1xBO3ql27Y0uOOfvs4fJ4PGrWrKEuu+wcDRjQ3cXE5ROB91ZMjTeqnMcjfUFr7bFHPwoAAABAeVGyAkB0WWOMtbY69cSl1anj1bBhfZWZ2UMjR47TXXeN17vvPlDy+Ny5Yw85u7WGqvbjjdhmjGntdgYAAAAgFlGyAqjygsGg6wt8Oo7zvKQby3DoXmPMh6FQaIrX6/3g66+/3nXg/FeiGrASpKam6NprL9RNNz2uUCg2SsTDvbcYb1QFkfyzz3GcJ/TrkgFfRuqaAAAAAP6DkhVAmWRnZ2vw4MGaO3euvF7v7/bPmzdPgUBAt956q5577jl16dKl5Jj/+Z//0aJFizRx4kTFx8fkHzs7Jc2QNMUY83EgENjrdqBIWLHiZ82Zs0jnn99FTZumKzd3t6ZNm6suXY6PuRtblVPUxzsUCmnCk1M0+/2vZa10Qb+zNXh4Pxnjzvfdhqy+W/Kjvv40qGv/1F/x8XGu5Ci2Ye1mvfr0VC1e8L3y8/arw8ltNPyeq3VM04au5Hnxn+/o8w/na/fOPWrZ9ljdNDJTx5/EhFEAAACgJonJtgOAO04//XT16NFDjz/+uN588015PB59//33mj59usaPHx9rBetWSe95PJ4pubm5n65cuTLf7UDhGjx4tCTp9NNvUSAwTqmpXgUCyzVx4mzt3p2nBg1SdfbZnXTnnZkuJ3VFpY731NdmaeFX2Rr71r3atzdffxv6mJo2z1Cvi8+K5tMe1jUX3CFjjLbl7NCg4ZdIcrdk/fcXi3RS5/Yafvc1Kiws1BP3v6LH7n5Jj7080pU8J3Q6TgNu6C1jpJeeeFf/M+I5vfrR/7pWigMAAACofDHVeABw31/+8hf1799fM2bMUN++fTVmzBhddNFFOvnkk92OFjZr7SZJUyVNqVu37hdz5swpdDtTJAUC40p9nZFRX88/f/thjz/ppNa/OyeWuDneH0yeo6tvukgNj6kvSTr/krP12QfzXCtZ73/qv1VQUKgRB4p4t118ZU95PJ6Dvj5P99zyhEKhUKn9leXMnv6S7XMuPE2fzZwnay0lKwAAAFCDULICiKiMjAwNGTJEzz77rAoLC/Xzzz/rySefdDtW2AoLCx9q3779LZMnTy5yOwuiz83x3r51p7Zs3Kb2B33cvG2HFvpg8pzKjlLiuOOb6/vsVa49/2/9tkjN3bZTdevVcaVgLWatVc6m7Xr/rU/1h8vOcTULAAAAgMpHyQog4q688krNmDFDY8aM0f3336/U1FS3I4VtyZIlPy9ZssTtGKgkbo73tpxcSVJa/Tol+1LTamvPrr2uzdSsygoLizT9zdm6sH9X1zIsmv+d7r75cUlSl7M7afB/93MtCwAAAAB38H9qACKuqKhIBQUFSkhI0J49e9yOA1QroSIrSTIHlanGY2SMkREfP/+t5x75df3ny6/7g2sZTjntBM1Y8IKenfyAcrft0lMPvOpaFgAAAADuoGQFqim/35/eqVOnlMp6vsTERElSfn7p+/3s379fcXFxJY9L0rPPPqs6derojjvu0DPPPKNt27ZVVkyg2qud6pUk7drxn3+g2JW7R6lptWU8lKwHe/Hxyfo2a4XufeJWJSS6++Ec4zFq3rqxMm/sra9mB2RD1tU8AAAAACoXJStQTYVCoZ7x8fGbHcd51+fzDTzttNOi+pn8Zs2ayePxKDs7u9T+ZcuW6bjjjiv5eunSpXrrrbc0cuRIXXTRRWrWrJn+8Y9/RDMaEFMymjRQSh2vVi77qWTfimU/qf2JrdwLVQW9+vQ0LfwqW4+MG1FqaQX3GcXFx1GIAwAAADUMJStQvXkl9TfGTCwoKNjsOM77fr9/0EknnVQv4k/k9apXr1569NFHNX/+fG3atEmfffaZJkyYoMsuu0ySVFBQoAceeEB9+vTRiSeeKGOM7rjjDn388cf65ptvIh0JiEkej0c9+5yhtyd8qG05O7R21S/6aOqX6n3FuW5HqzImvjBD879YpNHjR6h+el1Xs6xd9YvmfPSN9ucXaMvGbZr04kydfV5nVzMBAAAAqHzc+AqIHUmS+lhr+yQkJBQ6jvOZpCmFhYXTlyxZsjkST3D33Xfr8ccf16hRo7Rr1y41adJEN954o/r1+/UmLy+99JK2bNmiW2+9teScTp066cILL9To0aM1adKkUssKADi0Qbdeoqcffl1DLhqllDpeZd7YV87pHV3L09s/tGS73+m3lGzPDIxzI44mjpshSbrqvBGl9k+d94wSExMqNUtyrURNe22WnrjvZSV7k3RWz8664fbLKjUDAAAAAPdRsgKxKV5SL0m94uPjn3McZ661dkooFJq6ePHi9RW9aK1atXTXXXfprrvuOuTjw4YN07Bhw363/+9//3tFnxKokRKTEnT7g9fp9gevczuKJPfK1MOpSnkaNW6gJyfe7XYMAAAAAC6jZAXC5DjOy5IGu53jCDySuhljusXFxT3lOM58Y8y71nJTFgAAAAAAgEhgTVYgfNVtoUR74D8AAAAAAABEADNZgQgJhUKtFi1a9FNlPZ/P5xtgjHmrDIeGrLVfGmOmFBUVTSteLsBxnMeiHBEAAAAAAKBGoGQFYlOhpE/1642v3ovUja8AAAAAAADwe5SsQOzIl/SxtXZKYWHhjOzs7O1uBwIAAACAo/EPHVqyfddVV6l/164lX+fu3q1eI0aoKBSSJH36z38qrXbtSs8YLQe/dkkKjKvYDT6ttTLGRCKSJOnH9es1ZtIkZa9apXiPR3PHjo3YtYFYxZqsQPW298BNrAbWqlWrYTAYvCgrK+s1ClYAAAAA1U1ifLxmLVhQat/sQCCi5WFVM6B795LtwRdcUO7z750wQb1GjNCOPXsiGUt/feEFBX74Qb42bdT3zDMjem0gVjGTFaimPB7P7IKCgkZLliyJ7N+mAAAAAOCCts2aKbh8ubbu3KkGqamSpI+/+UbtmzXT0p9+cjfcUVR0JumQ3r016bPPJEnD+/Ur9/kf/Pvf5T7ncA5+DT9t3ChJeuj661X/wFgAODJKVqCaCgQCOW5nAAAAAIBIOevEE7V09Wp9snChBnTvri25uVq0cqVu7Nv3kCXr7EBAL37wgX7auFF1vF5d0KWLhl9yiRITEiT956P4/7j5Zk348EOt+PlnNUlP191XX621mzdrwocfauO2bWp77LH6+3XXqVXjxpJ+LRsnffaZ3v78c/2ydavq16mjvmeeqaF9+ijO4yl17b9cfrle/OADXdG9uy449VT1v+8+GUkfP/aY6tepo1179+q8ESNUKzFRHz/6aEm2oym+/qPDhumFGTO0ZtMmNc/I0AODB+uEFi1KHSNJPW6/XVLp5QbK+v05+DXc2KdPqeueN2JEyXVzduzQmLfeUnD5cu3et0/tmzfXqKuuUvtmzUqO/+ibb/TqRx9p9caNSoiP118uv1wXn3VWmfIA1R3LBQAAAAAAANf18PvlMUazFi6UJM1auFAha9XDcX537McLFujOF15QQWGhLjvnHB2bnq6Js2friXff/d2x/5w8WSe2aqUm6en6aeNG/ffYsRo3Y4bOPPFENUpL03dr1ugf77xTcvybs2frsbffVt7+/bq0WzclJybqxQ8+0FNTpvzu2m988okuPO00tWnaVC2OOUZdjj9eIWs1JytLkvTF4sUqKCzUH/7rvypUJj4+ebKcdu3UpEED/bh+vR55882Sxw5eXmBA9+6lvi7P9+fg13Ck6/68ZYvWbtqkC7p0kb9dOy1dvVr3vPRSybEz583TqBdf1JpNm/SH005Tr86dtScvr9x5gOqKkhUAAAAAALiuQWqqfO3aacmPP2rTtm2atWCBWjduXDLD9GAvzpwpSercvr0S4+PV7sBsyo9/s6arJP39uuv014EDNfrADM29eXl6avhw/XXgQN0zaJAkacXPP5cc/87nn0uS7h88WHcMGKB/3HKLJGnql18qZG2pa//tyit1x4ABJUXw5eeeK0n6/EDJOjsQkKSS2Zzl9dANN+jOgQP18A03SJJ+WLeu5LGDlxcY0rt3qa/L8/357Ws43HU7tGihN0aN0iVnn12yTuuPGzZob36+JOmVjz6SJD143XW6d9Ag3XPNNbqyZ89y5wGqK5YLAAAAAAAAVUKvzp0V+OEHvTNnjr5dvVpDevc+5HFrN2+WJL37xRel9ufu3v27Y1tkZEiSGqallew77sCszUYH9hUUFpY8tnHbNklS6yZNSp2/Nz9f+/LzlZKcXHJsh5YtSz1X106ddEz9+lrwww/auG2b/r1smTq2bKm2xx57lFd+aMXP3bhBA0lSYVFRmc4rz/fnt6/hcD7LytIjb74pa62OP7BkgSTtLyiQNylJ6w48p69t27DyANUVJSsAAAAAAKgSujuOxrz1Vsls0p5+/yGPa5Caqk3bt2vi3XerffPmEc3QqF49/bJ1q9Zu2qRGaWlas2mTJCk1JUXepKRSxxav0VrM4/Ho0m7d9PS0aXrs7bdVUFioiyo4i7U89h9UEkvl+/789jUczv++9ZZ279undx94QGm1a6vnX/5S6vH6depoc26uslet0jmnnFLhPEB1RckKAAAAAACqhPp16sjfrp0WfP+9WmRklKwT+lv9unbVc++9p+FPPaXujqPE+Hj9uGGDLjn77MMWs2V1abduGjt1qu556SV1dxzNW7ZMkpTZo4eMMUc9/+KzztK4GTP0xaJFqpWUpAu6dDnsseMPfIxeksZOnVrqo/plkVGvnjZt3667X3xRLY45RqOuukpSdL4/xUslPD1tmrYfYgbqZeeco2emT9c9Eybogi5dVFBYqDZNm+qq886L6ngBVQVrsgIAAAAAgCrjvM6dJf16I6zDue4Pf9Cf+veXNzlZU7/8UtPmzlXe/v1qecwxYT//oPPP1/B+/RQfF6fJc+Zof0GBbr3kEl3/xz+W6fx6deroXJ9PIWvV0+8vtbzAb0367LOS7eI1TcvjrquuUtP0dGWtWKGvliwp2R+N789fLr9cqSkpWrRypfqeccbvHr/2wgs1vF8/1U1J0fSvvtL/ffttyRIN0RwvoKo4+j/BADgix3F+ktQiFAq1WrRo0U8uxykzx3GsJAUOLMRe1QQCAQ39dWH6L4LB4Dkuxwnbf77f49yOAkl+/683PQgGg1H5e7B4vGdWkfHufeD1kufQqmqeSL4/Hcd5QtKfJN0WDAafiNR1AQA1Q8nvsuOqxt+VVZ21Vlc8+KB+XL9eL48cqU6tW7sdqcbyD43u7/3AwVguAAAAAAAAIAL+/tpr2pKbqx/Xr9eZJ51EwQrUIJSsAAAAAAAAEfBpMKj8ggL19Pt199VXux0HQCWiZAUAAEA4PH6//zpr7dWSOkhKdztQDZMjaZkx5vVAIDBBUihKz8M4u6syxpkxdldl/SwjyuY8wao8QE3Fja8AAABQUR7Hcd6z1o6X1FWUMm5Il9TVWjvecZzpis7v94yz+6I9zoyx+yrjZxkAEEXMZAUAAECFHJj11rtF0za6KXOkWjVrJ29yituxapS9eXu0et1yPTdxtNasX9nH5/Ndm5WV9VIkn4Nxdl+0x5kxdl9l/CwDAKKLkjWCfD5fB0lXeTyeC621zSQ1cDtTrOLOgAAAuO/Ax4p1U+ZIdWzrcztOjeRNTlHHtj4NG3in/vbYEBljrpYU0WKGcXZftMeZMXZfZfwsAwCii5I1Avx+f3ooFHrEGHO9JGOtdTsSAABAZeggSa2atXM7R43X+j9j0DEKl2ecq4gojjNjXEVE+WcZABBFlKxh6ty584nW2pnGmBZer1d9+vRRz5491bJlS6WlpcnjYSmdipo1a5ZGjRqlUCgkSTOttU8WFhYGsrOzt7udDQAASDqwbiMfK3aft1bt4s1orKXJOFcRURxnxriKiPLPMgAgiihZw+D3+0+y1n5lrU3t2rWrRo4cqYyMDLdjxYRly5YVF6xFkoYEg8GX3c4EAAAAAAAAHAolawX5fL4mkj6y1qZmZmbqtttuY9ZqhBQWFurBBx9UKBSStfbarKys193OBAAAAAAAABwOJWvFGGPMy9baJueee65uv/12GcN9mCLl1Vdf1YoVKyTpTQpWAAAAAAAAVHVMvawAv99/vaReGRkZuvfeeylYI2jNmjUaP368jDF7rLV/dTsPAAAA/r+9Ow+Psjr0OP47k9WwBRK2tOxhEZCSSdArCIJYld7iAvaKSNFqUavX1qp1w6W1pVbrWlGrorWi1AVQixZZRBTRiyQTQgQVAwoIAWQLBLLOnPsHJrKEbJPhzAzfz/P4PDPJu/zeeeeN4Zcz5wUAAEBdKFkbaPjw4YmS/uTxeDRlyhS1bNnSdaSoMmPGDFVUVEjS3bm5uZtd5wEAAAAAAADqQsnaQHv37r3cWtt+zJgxysjIcB0nquzfv19vv/22lbSttLT0Mdd5AAAAAAAAgPqgZG2Afv36xVtrbzHGaMKECa7jRJ25c+eqpKTEWGunr1q1qtx1HgAAAAAAAKA+KFkbID4+foKkzmeccYY6derkOk5UsdZq5syZkqSYmJjn3aYBAAAAAAAA6o+Stf6MMeYmSZo4caLrLFFnzZo1WrNmjSRlZ2dnf+o6DwAAAAAAAFBflKz1lJGRcaKkE/v376/+/fu7jhN1PvroI0mSMeZFx1EAAAAAAACABqFkrSdjzPmSNGLECNdRotKyZcskScaYdx1HOZ4EJCkQCLjOUSO/31/1sNJlDgAAAAAAgLpQstbfBZI0dOhQ1zmiTmlpqVasWCFJ27Ozs1e7znO8MMYUSNL27dtdR6nRjh07qh4WuMwBAAAAAABQF0rWehg0aFAnSVlpaWnq3r276zhRJzc3VxUVFZL0gb4bXYnQs9b6JGnBggWuoxzBWqv58+dXPc11mQUAAAAAAKAusa4DRAK/33+uJJ122mkyxriOE3UOmirgfcdRjit+v//u2NjYMQ899FB8bm6uevXqpebNmzvNZK3Vrl27lJ2drfz8fEn6bM+ePc87DQUAAAAAAFAHStb6GSZJQ4YMcZ0jKq1efWCGAGPMEsdRjit5eXlrvF7vWGPMM++9916H9957z3WkQ1hrP/F4PJcWFBSUuc4CAAAAAABQG0rW+vFKUt++fV3niDrWWhUUFEhSYPfu3czHeoz5fL63MjMz+xhjRlhr+0lq6ziSlbTe4/Gs6tat26LXXnvNX+caAAAAAAAAjlGy1iEzM7OVtTY9NTVVbdq0cR0n6uzatUtFRUWStJYRi27k5OQUSXrju//CRnZ2tusIAAAAAAAA9cKNr+oQCAQGSlKvXr1cR4lK341ilaTPXOYAAAAAAAAAGouStQ7GGK9EyRoq69atkyQZYyhZAQAAAAAAEJEoWevmlaSePXu6zhGVGMkKAAAAAACASEfJWreektSjRw/XOaLS5s2bJUl+v/9Lx1EAAAAAAACARqFkrVuaJLVr1851jqi0fft2SVJcXNwWx1EAAAAAAACARqFkrZ1HUse4uDi1bNnSdZaoVFWylpWVbXUcBQAAAAAAAGgUStZaDBo0qJ2k2JSUFBljXMeJOhUVFSoqKpKk/StXrtznOg8AAAAAAADQGJSstQgEAmmSlJqa6jpKVNqxY4ckyRjDKFYAAIAQGT58eOKgQYM6uM6B0MnMzOzsOgPCW3p6egI/BwAgtGJdBwhn1tofSFLbtm1dR4lKVVMFWGu3OY4CAMBxKTMz8zfW2g0JCQnvfPzxxyWu8zSFysoKzVn0st77v/9o09b1CtiA2rXpqJuvvFc9OvdxHc+JnTt3psbGxm7wer0fWGtnBQKB2Xl5eZtc5wrWF+vyddNfLqt+npTYTBn9TtXVF9+i5JZtJEnbd27VC29MlW/Vx9pTXKSkxCSNHnmxLjn3aknS6Csza9x2x7Y/1NNT3gz5MTQVa+0ar9ebb4yZ5ff7Z61YsSLkN5Wtz+v/XTYt+r+3teDDN/TVxjUqLS9Ry+bJ6tmlryZf+5AKvl5dvR2Px6OeXfrq+l/8QT/s0LXG/f7+0es0oM8g9euZUa/944DWrVu39vv9m71e74fGmFkej2f28uXLN7rOBQDRhJK1FsaY9tZapaSkuI4SlXbt2lX18FuXOQAAOF5Za0dJOrusrEyZmZkzA4HArKSkpLeXLl2613W2xigrL9Wdj1wjG7C6ctxN6tXtJPn9lfpiXb4SE05wHc81I+l0Y8zpMTExf/N6vf9njJlVUVExa+XKlV+5DheM1x5bosSEJG3bsVkPPnunHnz2Dv3xt0+o0l+pWx+YpFMzRuixu19Ri2atVLhto7Zu31y97pyncw7Z1rYdm3Xt7/9H/zvxzmN9GMFKkJRlrc3yeDz3er3efEmz/H7/zLy8vNWSbKh2fLTXX5L8Ab/ue+oWbd2+WRMvuFb9emYoJiZWGwu/0uJlc2UDgUO24w8ENPWFP+qhZ+/Uw+6jUQAAIABJREFUQ5OnH7Gvzds2aFVBrm6aNEWbtqyvc//1sXnbBv3hb7/RY3e/ovi4+JCtEyaMpKHW2qF+v/+RjIyMT4wxM2NiYmYtX758netwABDpKFlrYa1NkKT4+ND8jzMz8/u/nHs8HrVt21ZnnnmmrrnmGiUmJoZkn4fv+91331VycvIRzxuzjYYqKyureri/wSsDAICmUD3pvLX2QmPMhSUlJWVer3e+MWZWeXn5v/Pz83fVtoFw8sLrU1VeXqa/3voPxcV+9/tbXLwG9j3FbbDw9F/W2v+KjY39q9frzZU0yxgzKycn53PXwRqrXUqaxv10ku5+9DpZG9CGzWu1dfsmjT370uqRjZ06dlOnjt2Ouo2nX35AwwadrQG9s45V7FA5SdJJMTExv/d6vV9Ya2cbY2b5fD6fQlS4Hv76G+PRy3OeVuG2jfrrrc8f8oeO7p16q3un3kdso9kJzXXO6WN158PXVG/jYG8tekXDTxml5klH3pS4pv3Xx97iIm3etqFBx9qYdcKRMeZkSSf7/f77MzMzVwQCgVnfvU8+c50NACIRJWvt4iUpNja0L9O4ceNUXl6uhQsX6qWXXtK+fft0550R99fzBqsqWY0xpY6jAABwvKqpbEmQNNpaOzouLq7S6/UukjSrsrLyjZUrV4btFD+V/krN//BN3XTFH78vWA9T9fHm31x6t56b+YhG/NdPNOmim1RZWaF/vfWMFi/7j3bu/lbJrVJ09mkX6H9+coU8Hk/1er//9d/07GsPa8u3mzSgzyDdcPk9atm84X9oDkMZkjKstX/yer2rrbWzJM3Kzc1dqRCOgAyFktJ9OiHhBBnjUbuUjkqIT9Tzs/+mqy++WYkJSbWuu3zlEn359So98YeZxyhtkyrTgWu3Jr2NMbdJus3r9X590PldJilwlHUa5eDXv9JfqTmLXtZvLvt9g0aS79tfrDat2h5RkpaU7te7H83RX2/9R732L6nOa1tS9ZQDY689VdL3o5vzPv9Ez732iDZsXqs2ye107YTb5e13aq3rlFeU6x8zH9H7n8xVRWWFTh4wTNdMuF3NTmhe7+N3xVo70BgzUNIfvV7vZwdNPZGnCPs5AACuULLWwlobb4wJeck6adIkJScn68c//rF+9atfadGiRY0uWa21MsbUvWAYKC8vlyRZa8vqWBQAADSN671e78HPu9SxfKyksySdFRsb+5TX67XW2j8FAoGnwm1Oz8JtG1Ratl+9up9U57IrPlumaffOkbUHeoOpL05RwfrVuuPah9SpY3cVrF+t+56+VX5/pS4571fV6y1Y+m/9+can5Q9U6p6p1+upl/+q3/1ySsiOqbG8Xm8whUhfY0xfSXd6vd61kmY1UayQstZq/ea1mv7GExo98mJJUvOklrrlqvv08HN3KTv/Q507crzOHTmuxrK1vKJMT738V109/lY1S2pxrOM3SiPPc1djzI2SbvR6vYWSZhtjZlVdC41V0+tfuG2j9pUU68QeP6r3dor27tTr86dr7DmXHvG9hR/9W+ld+6pzWo967V+q37X9wK3P66a/XKZZj398yEf/95fs0/9OvENd0tL1wuuP6YmX7tW0P/+71nWmTv+Ttmz/Rn+762XFxyXo/qdv07RXH9RvLr273q/Bwbxe7/WNWvE7xpgUa+0dkuT3+xuy6onW2js8Hs8dXq93nSLk5wAAuEbJWguPxxNvrQ15yVrlBz/4gaRDPkav7du367777pPP51NxcbF69+6tyZMnq3fvAx+vqfrI/o033qhp06bpoosu0lVXXVXnevWxcOFCTZs2TV9//bVatGihc845R9ddd12TTZ/ASFYAAI4NY4z/uxKli6SHg9uUuTMmJuZOr9f7atOkaxoVFRWSpNiYun9vG3PWRCUlNpMk7SnerUUfv6X7fvesuv2wlySpT/cBumT01Xp+9mOHlKwTzvtV9cfOLzz7Mv3thT829WGEG2uMscEWcKH2s+uGSjow/dZVF9+in5x+YfX3Bp10mp6Z8qbeWPiSZs9/QXM/mKm7/veR6nNd5bX/PKcenfvo1IwRxzR7GAj6HB/t9a+oLK/+epXX50/XczMfqX4+6/GPj9hOWrvOap7UUoFAoHpda63efu9V/WLsr+u9/4Zc2zU5NWOEyspLtWHzWiWd0Fxbt29Spb/yqD9jivbu0uJl/9Gjd85Qauv2kqTzfzxBf33mtkaXrAru57Wa6Nq1YiQrANQLJWvtjsl0AZK0Z88evfDCC5Kkk08+ufrr33zzjTZs2KBzzjlHX331lZYtW6Y777xTr7566L9rXnzxRY0aNUrp6ekNWu9o5s2bp9tvv11du3bVz372M3366aeaMWOG/H6/br755iY5ZkayAgBwzDxqrS0zxhw+hO981T2a9XAvSZrq8/k+8Xq9/9M08YLXNqWjjDH6+psCndS75jvGV+nQ7ofVj7ftKJS1Vp3Tuh+yTFr7zirau1PWfv9p6tTW7aoft0luq9Ky/YcUQeHC5/Md8rGmAQMG/DA2NrZedxE3xqw6aF7GfEnW6/XeEpKgTeS1x5Zof8k+PfrPP2jeB7N15uBzDxld2CyphS4592qdO3K87n/6Vv31mdsPmRJg87YNmrfkdT16179cxG+0g8+z1+st1dGnCzjY15JmSprl8/k+0XfTBRw2wr1Bjvb6t09JkzEerd+0tvqavOCsn+uCs35ePQXH4dtJiD9B3+4s1LOvPaKlvnd1xzUPHjjW1R8f+Pj9j4bVe//1ubZrm7f1n7Mf04Kl/1afHgOUEHfgpQ0EAlJMzct/u3OLrLX69T0XH/G9ysoKxcbGHXVftXi0MSsdzuPxzDDGbPD7/YX1XOWIaUO8Xm/T/CMQAKIYJWstrLXHpGQdOXJk9eOuXbvqtttuq37et29fvfjii1q/fr0KCgq0bNkyrV27Vvv371dS0vf/Trrttts0dOjQBq93NNOmTZMkZWVlKT4+Xr169dLKlSs1b968Ji9ZdWAOqWpBfsQNAAAcJicnZ4Ok2w//utfr7aO6S9Yv9P1NkXIVpiOaWjRrqYEnnqLZ8/9ZZ8nqOWhqpTbJbSVJ32xdr97d+ld/vfDbb5Tauv0hJcy+kuLqj5pv2rpeKcntwq5gbSSfpFkej2dWdnb2F67DNEab5La6edK9uub3P9NL/35Svxj7myOWadGspX426he64+FfHVKw/X3Gffr5BdeqdcuUYx27KdVWsIb8Gq7p9W+W1EKDBpxWr2uyijFG7VLS9NMRF2nyQ1dVn6e3Fr2sn474n6OWojXtvyHX9uEKv/1GM995Xk/84TV16thdvlUf64Pl82rNntziwCj35/7yttq26VCv462Lz+cLarqAgw0aNKiuULk6MC3AbG58BQCNQ8laC2ut3xijysrKkO5n3LhxatGihdLT03X66acrLu77v3IuWrRI9957r6y16tOnT/XXy8vLDylL+/bte8g267ve0WzYcOBumTNnHjrx/+7duxt2cMePrwOBwLeuQwAA0EBHm8h9pTFmViAQmJmbm7v6mCYKwtXjb9Hv/vIL3fv3m3Xx6CvVqWM3lZTuU/4XOfpB+841rtOmVaoGe0fq8elTdMPl96hTWncVrP9MM/79d405e+Ihy/5z9lRdPf4W7dq9Xa/NfU4jB48+FocVKh8bY2ZVVFTMXrly5VeuwzSFZkktdO0lt2vKkzdqaNZZio2J1f+tWKxhJ5+t9qk/0J7i3Zq35HX9qM/J1QXb0pyF8gf8+vGQ8xynb3LH/Bo+/PVP73Kirr74Ft183+X685M3adx/T1LntO4qKSvR5+tW1rgNa6227disNxa+qBN7/EjGeFS4baM+XZOrm66off7jmvZfn2u7eVJLSdJna1eoe6c+atGspfz+A//+27ajUK1bpWrOokNHOde0Tmqb9urf06tnXnlAV170O7VOTtWGzWu1p3i3ftTnZIWpZcaYmR6PZ/by5cvXuQ4DAJGOkrV2RZK0b9++kO6k6sZXNbn//vtVXFysmTNnKjk5WWeeeWaNy8XExDRqvaNJSUnR1q1bNWPGjAbN49oQB83teshf3g//iBsAAAiZg0e0LbfWVn1MvMBZoiCkteusR+54Sf+a87TufvR/tXvPDiXGn6BunXrpup8f/aaiN1x+j154farueuRa7SnerQ5tf6ix51x2yNyektSnxwBdOfl8VVSUafgpo3TxTyeF+pCaUkDSEkkz/X7/6+F247KmcvKPhmnYoLP1t3/eo8nXPqj8NTl6c+EM7S8tVnLLFJ08YKiuHv/97AfTXn1I23dt1egrjxxpWXXH+AhRJmml62v44Nf/4TteVNs2HfTw5Bf1ytvT9KcnbtDO3d8qPj5BnTp208/Pv0ZxB31isGpu1eZJLZV10pDqa/at917R8FNG1euGZIfvvz7X9g86dNE5w8bonsd+oxMSm+vFBxfohx26avQZ4/TnJ3+nlNbtNPqMccrOX1rrOpJ0y1X36ckZf9Gv7r5Qlf4KdU7rXuOoaoespCUH/YHlG9eBACCaULLWwuPx7LHWqri42FmGQODAPGBTp07Vrl27Qr5elTFjxujJJ5/UddddpzPOOEPx8fFau3atLrjgggYXtkdTVbIaY+ozfxQAAGh6OZLeMcbM/m5KgYjXtk0H/frSu476/ZqKs4T4RE266CZNuuimWrd9xn/95IjiNRK0adNme0lJSdqyZcu2us7SlHp3P6nG83njFX+qfjzlhr/Xuo1/3PefJs/lgjGm17G+huvz+ktScss2uurim3XVxTVPOXa07UhSadl+vfvRHN1/y3ON2n9MfEy9ru1rJ0zWtRMmH/K1K8f9TleO+13189FnjKtzneSWbXTb1ffXui9Xdu3atat169Zpy5cv3+I6CwBEK0rW2h2Tkay1ufHGG/XQQw9pxYoVuu6665SXlxfS9apcfvnlio+P1+zZszV79mwlJCSoV69e6tq1ayOOomYJCQe6VWttYpNtFAAA1JvP55tc91KIdIsXLy6VVOo6B0InWv5IcrjEhCS9/Oj7rmNEhYKCgjJJFKwAEEKUrLWw1u6RFLKRrDk5dX8EafTo0Ro9+vv5vs4///x6baOh6x3+3OPxaOLEiZo48dC5yOqz7/piJCsAAAAAAACiASVr7ZyPZI1mjGQFAACRoLaPMwMAAACS5HEdIJwZY3ZLUlFRkesoUamqZJWU5DIHAAAAAAAAEAxK1lrExsaul6TCwkJZa+taHA3UunXrqodtXeYAAAAAAAAAgkHJWotly5btkbStpKREu3fvdh0n6qSmpkqSjDHtHEcBAAAAAAAAGo2StW4FkrRp0ybXOaJOSkqKJMla295xFAAAAAAAAKDRKFnrYIyhZA2RuLg4tWrVSpKSBgwY0Mx1HgAAAAAAAKAxKFnrRskaQlVTBiQkJDCaFQAAAAAAABGJkrUOgUCgQJI2btzoOkpUqipZKyoqOjiOAgAAAAAAADQKJWsdAoHASklatWqV6yhRKS0tTZIUExPT03EUAAAAAAAAoFEoWeuQl5f3mbV257p167R3717XcaJOenp61cMTXeYAAAAAAAAAGouStW4BY8yH1lrl5+e7zhJ1unfvLkmy1lKyAgAAAAAAICJRstaDMeYDScrLy3MdJeowkhUAAAAAAACRjpK1HowxSyRK1lBo3bq1kpOTJalHenp6gus8AAAAAAAAQENRstaDtTZX0v78/HyVlZW5jhNVjDHq0aOHJHmSk5P7us4DAAAAAAAANBQlaz3k5ORUGGMWlJaWasmSJa7jRJ2+fQ90q9baoY6jAAAAAAAAAA1GyVpPgUDgRUmaN2+e6yhR55RTTpEkWWtPdxwFAAAAAAAAaDBK1npq1arVW5KKPvzwQxUXF7uOE1UyMjIUFxcnScPEexIAAAAAAAARhkKrnhYvXlwq6dXy8nItXrzYdZyokpiYqIEDB0pSalZWFvOyAgAAAAAAIKJQsjbMdEmaM2eO6xxR56ApA0Y6jgIAAAAAAAA0CCVrA/h8vqWS1mZnZysnJ8d1nKgyePBgSZK1doLjKAAAAAAAAECDULI2TMAYc5ckPf7447LWus4TNXr16qVevXpJUlZWVlZ/13kAAAAAAACA+qJkbaCcnJyXJfny8vK0dOlS13GihjFGF154oSTJ7/df5jYNAAAAAAAAUH+UrA0XsNbeLElTp05VIBBwnSdqjBo1SieccIL1eDwT+/XrF+86DwAAAAAAAFAflKyNkJub+66keV9++aWee+4513GiRlJSkv77v//bWGvbJiYmXuc6D9DEiiSppKTMdY7j3kHnoCiEuymSpNIwON8HZyDPkcI4Tyjfn01puyTtL93nOsdxb39JcdXD7SHYPOc5TITwPHOOw0SIr2UAQAhRsjaSMeZ6Y0zJU089xU2wmtD48eMVFxcnSX/IyMhIc50HaEKrJWn9+q2ucxz3vv56S9XDVSHczWpJ2hQG5/ub74+XPDUI4zyhfH82pdWS9NXGNa5zHPfWfX8OQvHe4TyHiRCeZ85xmAjxtQwACCFK1kbKycn5XNIvA4GArr/+evv555+7jhQVunTpokmTJsla28wYc7/rPEATekOSHnroVW3ZstN1luPWli079fDDr1U9fTOEu3pDkqY99Kq+dXi+v92yU89+f7zkiaw8oXx/NhljzHRJenLGX/TpGt/BI7BwjOwvKdana3z6+7/ukyRZa6c39T44z+6F+jxzjt07FtcyACC0jOsAkS4jI+PPxpjbWrRoYe+9915z6qmnuo4U8SorKzVhwgR9+eWXstZOzM3N5RcMRLzMzMw4a+3HkjIlqUWLJDVvfoLjVMeX4uIS7d27v+pptjFmcE5OTkUo9nX4+W7WIknNjvH53ldcon3fH2+ODvw/30ueiMgT0vdnE/N4vd43Jf3UdRBIkub4fL7zJNkm3i7nObyE4jxzjsNLqK7lRvN6vVaScp5+2nUUoEEyr7xSkuTz+ei/EHK8yYJnMjMzH7DW3mCM0SWXXKIrrrhCLVu2dJ0roq1evVqXXnqpAoGAX9Ikn8/3vMLolwygMYYPH564d+/eydban0vq4jrPcWq9MWZ6ixYtpixevLg0lDsKk/NdfbySRJ7IyRPq92cT82RkZPzCGPNzSf0kpboOdJzZLmmVtXZ6bm7uPySF6q6snGe3jsV55hy7dayu5UahZEWkomTFscSbrGmYjIyMy40xj0tKaNGihc455xydfvrp6tatm1JSUqrmGUUDzJ8/X5MnT1YgEJCkt621jyQmJvo+/vhjPmuNiDdkyJAW+/btS3Gd43jSrFmzHUuXLt3rYt8uzndtxxtFeX7p8XheCgQCJWGSp9Fcvj8BAKgLJSsiFSUrjiXeZE0oMzOzj7V2iqQxrrNEO35AAgC8Xu9KSXf7fL7XXWcBACCaUbIiUlGy4ljixldNKCcn53OfzzfW4/GcZIy5W9LHkjZJqnQcDQCAqDJw4MCekk6SNNZ1FgAAAACIdR0gGmVnZ38q6VNJ97jOAgBANPJ4PFX/j70kPT39ioKCgjKngQAAAAAc1xjJCgAAIo4xJqPqcXJy8kiXWQAAAACAkhUAAESUjIyMLtba3lXPA4EAUwYAAAAAcIqSFQAARBRjzOE3mDxv+PDhTIEEAAAAwBlKVgAAEFGstYePXE0pKio63UkYAAAAABAlKwAAiCCZmZkdjTGDa/gWUwYAAAAAcIaSFQAARJILJJnDv2iMuUD8XgMAAADAEf4xAgAAIkYNUwVU6ZCZmVnTCFcAAAAACDlKVgAAEBEyMzNTJR117tVaClgAAAAACClKVgAAEBECgcB5kmJqWWSMaphKAAAAAABCjZIVAABEBGNMXSNVOw8cODDrmIQBAAAAgINQsgIAgLA3cODAZEmj6lrO4/FceAziAAAAAMAhKFkBAEDYM8acW89FLxRTBgAAAAA4xmJdBwAAAKhLbm7uC5JeqHqelZU1PBAIvCfpfZ/PN9xZMAAAAAAQI1kBAAAAAAAAICiUrAAAAAAAAAAQBEpWAAAAAAAAAAgCJSsAAAAAAAAABIGSFQAAAAAAAACCQMkKAAAAAAAAAEGgZAUAAAAAAACAIFCyAgAAAAAAAEAQKFkBAAAAAAAAIAiUrAAAAAAAAAAQBEpWAAAAAAAAAAgCJSsAAAAAAAAABIGSFQAAAAAAAACCQMkKAAAAAAAAAEGgZAUAAAAAAACAIFCyAgAAAAAAAEAQKFkBAAAAAAAAIAiUrAAAAAAAAAAQBEpWAAAAAAAAAAgCJSsAAAAAAAAABIGSFQAAAAAAAACCQMkKAAAAAAAAAEGgZAUAAAAAAACAIFCyAgAAAAAAAEAQKFkBAAAAAAAAIAiUrAAAAAAAAAAQBEpWAAAAAAAAAAgCJSsAAAAAAAAABIGSFQAAAAAAAACCQMkKAAAAAAAAAEGgZAUAAAAAAACAIFCyAgAAAAAAAEAQKFkBAAAAAAAAIAiUrAAAAAAAAAAQBEpWAAAAAAAAAAgCJSsAAAAAAAAABIGSFQAAAAAAAACCQMkKAAAAAAAAAEGgZAUAAAAAAACAIFCyAgAAAAAAAEAQKFkBAAAAAAAAIAiUrAAAAAAAAAAQBEpWAAAAAAAAAAgCJSsAAAAAAAAABIGSFQAAAAAAAACCQMkKAAAAAAAAAEGgZAUAAAAAAACAIFCyAgAAAAAAAEAQKFkBAAAAAAAAIAiUrAAAAAAAAAAQBEpWAAAAAAAAAAgCJSsAAAAAAAAABCHWdQCgKWRkZPSVNMHj8Yyy1naSlOI6U7Ty+XzGdQYAAAAAAIBwQsmKiJaZmZkaCATuNcZcIclYa11HAgAAAAAAwHGGkhURKysrq7+19i1jTJekpCSNHj1aZ555prp27ark5GR5PMyG0Vjz58/X5MmTFQgEJOkta+2jlZWVOfn5+btcZwMAAAAAAAg3lKyISJmZmSdZaz+01rYcNmyYbr31VrVv3951rKiwevXqqoLVL2mSz+f7h+tMAAAAAAAA4YySFREnIyMjTdI71tqW48eP129/+1tGrTaRyspK3XPPPQoEArLW/iI3N3e660wAAAAAAADhjpIVkcYYY/5hrU0bMWKEbrjhBhnDfZiayj//+U99+eWXkvQSBSsAAAAAAED9MPwPESUzM/MKSWe1b99ed911FwVrE1q/fr2eeeYZGWP2WWtvdp0HAAAAAAAgUlCyImIMHz48UdKfPB6PpkyZopYtW7qOFFVmzJihiooKSbo7Nzd3s+s8AAAAAAAAkYKSFRFj7969l1tr248ZM0YZGRmu40SV/fv36+2337aStpWWlj7mOg8AAAAAAEAkoWRFROjXr1+8tfYWY4wmTJjgOk7UmTt3rkpKSoy1dvqqVavKXecBAAAAAACIJJSsiAjx8fETJHU+44wz1KlTJ9dxooq1VjNnzpQkxcTEPO82DQAAAAAAQOShZEUkMMaYmyRp4sSJrrNEnTVr1mjNmjWSlJ2dnf2p6zwAAAAAAACRhpIVYS8jI+NESSf2799f/fv3dx0n6nz00UeSJGPMi46jAAAAAAAARCRKVoQ9Y8z5kjRixAjXUaLSsmXLJEnGmHcdRwEAAAAQnrZL0r7SUtc5gHorLimperjdZQ4cPyhZEQkukKShQ4e6zhF1SktLtWLFCknanp2dvdp1HgAAAABhabUkrdm40XUOoN4Oer+ucpkDxw9KVoS1QYMGdZKUlZaWpu7du7uOE3Vyc3NVUVEhSR9ICjiOAwAAACAMGWOmS9JfZsyQb82ag0cIAmGnuKREvjVrdN+//iVJstZOdxwJx4lY1wGA2vj9/nMl6bTTTpMxxnWcqHPQVAHvO44CAAAAIEzl5OQ85/V6zyvYtOmnkx54wHUcoCHm5ObmPuc6BI4PjGRFuBsmSUOGDHGdIyqtXn1ghgBjzBLHUQAAAACEr4DP5zvPWvtLSe+LOS4R3rZLet9a+0ufz3e+JOs6EI4PjGRFuPNKUt++fV3niDrWWhUUFEhSYPfu3czHCgAAAKA2gdzc3GclPes6CACEI0ayImxlZma2kpSempqqNm3auI4TdXbt2qWioiJJWltQUFDmOg8AAAAAAECkomRF2AoEAgMlqVevXq6jRKXvRrFK0mcucwAAAAAAAEQ6SlaELWOMV6JkDZV169ZJkowxlKwAAAAAAABBoGRFOPNKUs+ePV3niEqMZAUAAAAAAGgalKwIZz0lqUePHq5zRKXNmzdLkvx+/5eOowAAAAAAAEQ0SlaEszRJateunescUWn79u2SpLi4uC2OowAAAAAAAEQ0SlaEK4+kjnFxcWrZsqXrLFGpqmQtKyvb6jgKAAAAAABARKNkRVgaNGhQO0mxKSkpMsa4jhN1KioqVFRUJEn7V65cuc91HgAAAAAAgEhGyYqwFAgE0iQpNTXVdZSotGPHDkmSMYZRrAAAAAAAAEGiZEVYstb+QJLatm3rOkpUqpoqwFq7zXEUAAAAAACAiEfJirBkjGkvSSkpKa6jRKVdu3ZVPfzWZQ4AAAAAAIBoEOs6AFATa22CJMXHxzvLkJmZWf3YGKPmzZura9euGjlypC666KJDsh287O23366xY8dWP9+9e7fOOuss+f1+SdK7776r5OTk6u8/+eSTmjZtmiTpgQce0IgRI0J2TFXKysqqHu4P+c4AAAAAAACiHCNZEa7iJSk21v3fAcaNG6dLLrlEmZmZ+vzzz/XII4/osssu0/79R/aT8fHxmj9//iFfW7hwYa0375o7d66SkpIkSe+8807Thj+KqpLVGFN6THYIAAAAAAAQxShZEZastWFTsk6aNEm//e1v9eCDD+qVV15R+/bt9cUXX+i55547YtmePXvK5/NV31hKkubNm6fevXvXuO28vDxt2rRJQ4YMUVJSkj744APt27cvZMdSpby8XJJkrS2rY1EAAAAAAADUgZIVYcnj8YRNyXqwLl266Ne//rXuf1EfAAAIq0lEQVQkadGiRUd8/7TTTlMgENCCBQskSd9++61WrFihYcOG1bi9//znP9XrnXzyySovL69xu02NkawAAAAAAABNh5IV4SosS1ZJysjIkCQVFhYe8b2RI0fK4/FUTxkwf/58BQIBjRw58ohlKysrtWDBAhljNHjwYJ166qmSDkwfEGqMZAUAAAAAAGg64ddgAQqv6QIOV1lZKUmKi4s74nspKSnKyMiQz+fT1q1bNX/+fHXv3l3dunU7YtmlS5eqqKhIvXv3Vps2bTRkyBBJ0vLly7Vjxw6lpKSE7BiqSlZJh5SsXq93e8h2CgBNKBAIhO6HJAAAAAA0UPg1WIAka63fGFNdaIaTTz75RJLUp0+fGr9/1llnKScnR6+++qo+/fRTTZo0qcblqqYKkKTHHntMkpSYmKjS0lLNnz9fF198cRMnrxdKCwARxVqb5zoDAAAAAFCyIlwVSTomN4FqiLVr1+rxxx+XJI0fP77GZc444wzdd999evXVVyVJZ5555hHL7Nu3Tx988IEk6YsvvtAXX3xxyPfnzp0b0pI1Pj6+6mHCwV83xrQN2U4BoImVl5f78/Pzd7nOAQAAAACUrAhLHo9nj7VWxcXFrqPomWeeUVxcnDZu3KgPP/xQlZWVuuKKKzR8+PAal2/Tpo0yMzO1fPlydenSRenp6Ucss3DhQpWXl6t9+/Z666235PEcmB65oKBAF110kVatWqWNGzeqU6dOITmmqpLVGHNIyZqTk8N0AQAAAAAAAA3Eja8QrsJmJOvLL7+sl156SXl5eRo8eLCeeOIJXXPNNbWu8+Mf/1iSarzhlfT9VAGjRo2qLlglKT09Xb1795YkvfPOO00Rv0YJCQe6VWttYsh2AgAAAAAAcJxgJCvCkrV2jySnI1lzcnIavezYsWM1duzYoy7z1FNPHXVbM2bMqPd+G+toI1kBAAAAAADQcIxkRbgKm5Gs0YiRrAAAAAAAAE2HkhVhyRizW5KKiopcR4lKVSWrpCSXOQAAAAAAAKIBJSvCUmxs7HpJKiwslLXWdZyo07p166qHbV3mAAAAAAAAiAaUrAhLy5Yt2yNpW0lJiXbv3u06TtRJTU2VJBlj2jmOAgAAAAAAEPEoWRHOCiRp06ZNrnNEnZSUFEmStba94ygAAAAAAAARj5IVYcsYQ8kaInFxcWrVqpUkJQ0YMKCZ6zwAAAAAAACRjJIV4YySNYSqpgxISEhgNCsAAAAAAEAQKFkRtgKBQIEkbdy40XWUqFRVslZUVHRwHAUAAAAAACCiUbIibAUCgZWStGrVKtdRolJaWpokKSYmpqfjKAAAAAAAABGNkhVhKy8v7zNr7c5169Zp7969ruNEnfT09KqHJ7rMAQAAAAAAEOkoWRHOAsaYD621ys/Pd50l6nTv3l2SZK2lZAUAAAAAAAgCJSvCmjHmA0nKy8tzHSXqMJIVAAAAAACgaVCyIqwZY5ZIlKyh0Lp1ayUnJ0tSj/T09ATXeQAAAAAAACIVJSvCmrU2V9L+/Px8lZWVuY4TVYwx6tGjhyR5kpOT+7rOAwAAAAAAEKkoWRHWcnJyKowxC0pLS7VkyRLXcaJO374HulVr7VDHUQAAAAAAACIWJSvCXiAQeFGS5s2b5zpK1DnllFMkSdba0x1HAQAAAAAAiFiUrAh7rVq1ektS0Ycffqji4mLXcaJKRkaG4uLiJGmY+HkAAAAAAADQKJQqCHuLFy8ulfRqeXm5Fi9e7DpOVElMTNTAgQMlKTUrK4t5WQEAAAAAABqBkhWRYrokzZkzx3WOqHPQlAEjHUcBAAAAAACISJSsiAg+n2+ppLXZ2dnKyclxHSeqDB48WJJkrZ3gOAoAAAAAAEBEomRFpAgYY+6SpMcff1zWWtd5okavXr3Uq1cvScrKysrq7zoPAAAAAABApIlxHQCor8LCwlUdO3YcvXXr1o79+vVT586dXUeKCsYYGWO0ZMkSBQKBki1btsx3nQkAAAAAACCSMJIVkSRgrb1ZkqZOnapAIOA6T9QYNWqUTjjhBOvxeCb269cv3nUeAAAAAACASMJIVkSULVu2fNWxY8dTd+7cmR4bGyuv1+s6UlSIi4vT1q1bzerVq5vFxcUVFRYWfuw6EwAAAAAAQKRgJCsijjHmemNMyVNPPcVNsJrQ+PHjFRcXJ0l/yMjISHOdBwAAAAAAIFIwkhURp7CwcHtaWtpX1tqx7777rh08eLBJTU11HSviJScnyxij5cuXxxtjOhQWFs52nQkAAAAAACASULIiIhUWFuZ36NAhobKycuiCBQts7969TadOnVzHingDBgzQ+++/r507dw7o0KHDui1btqx0nQkAAAAAACDcUbIiYm3ZsmVRWlpai7KyssFz587Vvn371K9fPyUkJLiOFrE8Ho/69u2rN998U5LO7dix48bCwsI817kAAAAAAADCGSUrIlphYeGCDh06bJR09sqVK2Nnz56tLVu2KCYmRnFxcUpISFBMDG/zhmjbtq26du2q9957z2OtPa9jx45ZHTp02NatW7fd33zzTYnrfAAAAAAAAOHGuA4ANIXMzMw+1topksa4zhLtfD4fPzcAAAAAAAAOQlmCqJKVldXfWjvGWnuOpM6S2kuKdRwrqlCyAgAAAAAAAAAAAAAAAAAAAAAAAAAAAAAAAAAAAAAAAAAAAAAAAAAAAAAAAAAAAAAAAAAAAAAAAAAAAAAAAAAAAAAAAAAAAAAAAAAAAAAAAAAAAAAAAAAAAAAAAAAAAAAAAAAAAAAAAAAAAAAAAAAAAAAAAAAAAAAAAAAAAAAAAAAAAAAAAAAAAAAAAAAAAAAAAAAAAAAAAAAAAAAAAAAAAAAAAAAAAAAAAAAAAAAAAAAAAAAAAAAAAAAAAAAAAAAAAAAAAAAAAAAAAAAAAAAAAAAAAAAAAAAAAAAAAAAAAAAAAAAAAAAAAAAAAAAAAAAAAAAAAMDx5P8B0FnWr/iM3cwAAAAASUVORK5CYII=;" parent="1" vertex="1">
          <mxGeometry x="-650" y="520" width="1369" height="497" as="geometry" />
        </mxCell>
        <mxCell id="G1HitYlAvnQOCPLEHpOn-21" value="" style="rounded=1;whiteSpace=wrap;html=1;fontStyle=1;horizontal=1;verticalAlign=top;" parent="1" vertex="1">
          <mxGeometry x="-780" y="-2135" width="310" height="130" as="geometry" />
        </mxCell>
        <mxCell id="G1HitYlAvnQOCPLEHpOn-22" value="&lt;span&gt;entity (70)&lt;/span&gt;" style="text;html=1;strokeColor=none;fillColor=none;align=center;verticalAlign=middle;whiteSpace=wrap;rounded=0;fontStyle=1" parent="1" vertex="1">
          <mxGeometry x="-690" y="-2145" width="140" height="40" as="geometry" />
        </mxCell>
        <mxCell id="G1HitYlAvnQOCPLEHpOn-35" style="edgeStyle=orthogonalEdgeStyle;rounded=0;orthogonalLoop=1;jettySize=auto;html=1;entryX=0;entryY=0.5;entryDx=0;entryDy=0;curved=1;" parent="1" source="G1HitYlAvnQOCPLEHpOn-23" target="G1HitYlAvnQOCPLEHpOn-34" edge="1">
          <mxGeometry relative="1" as="geometry">
            <Array as="points">
              <mxPoint x="-390" y="-2018" />
              <mxPoint x="-390" y="-1975" />
              <mxPoint x="-690" y="-1975" />
              <mxPoint x="-690" y="-1845" />
            </Array>
          </mxGeometry>
        </mxCell>
        <mxCell id="G1HitYlAvnQOCPLEHpOn-23" value="pad0" style="rounded=0;whiteSpace=wrap;html=1;horizontal=1;fillColor=#dae8fc;strokeColor=#6c8ebf;dashed=1;opacity=50;" parent="1" vertex="1">
          <mxGeometry x="-480" y="-2028" width="50" height="20" as="geometry" />
        </mxCell>
        <mxCell id="G1HitYlAvnQOCPLEHpOn-25" value="&lt;u&gt;m00_b_tp2860 50-0044 (1pad, 1link)&lt;br&gt;&lt;/u&gt;&lt;br&gt;type V4L2 subdev subtype Sensor&lt;br&gt;device node name /dev/v4l-subdev3&lt;br&gt;--------------------------------------------------&lt;span style=&quot;font-style: normal;&quot;&gt;&lt;br&gt;&lt;b&gt;pad0: Source &quot;rockchip-csi2-dphy0&quot;&lt;/b&gt;&lt;br&gt;&lt;/span&gt;" style="text;html=1;strokeColor=none;fillColor=none;align=center;verticalAlign=middle;whiteSpace=wrap;rounded=0;fontColor=#4D4D4D;fontStyle=2" parent="1" vertex="1">
          <mxGeometry x="-745" y="-2105" width="250" height="100" as="geometry" />
        </mxCell>
        <mxCell id="G1HitYlAvnQOCPLEHpOn-28" value="" style="rounded=1;whiteSpace=wrap;html=1;fontStyle=1;horizontal=1;verticalAlign=top;" parent="1" vertex="1">
          <mxGeometry x="-620" y="-1955" width="310" height="160" as="geometry" />
        </mxCell>
        <mxCell id="G1HitYlAvnQOCPLEHpOn-29" value="&lt;span&gt;entity (67)&lt;/span&gt;" style="text;html=1;strokeColor=none;fillColor=none;align=center;verticalAlign=middle;whiteSpace=wrap;rounded=0;fontStyle=1" parent="1" vertex="1">
          <mxGeometry x="-530" y="-1965" width="140" height="40" as="geometry" />
        </mxCell>
        <mxCell id="G1HitYlAvnQOCPLEHpOn-31" value="&lt;u&gt;rockchip-csi2-dphy0 (2pad, 2links)&lt;br&gt;&lt;/u&gt;&lt;br&gt;type V4L2 subdev subtype Unknown&lt;br&gt;device node name /dev/v4l-subdev2&lt;br&gt;--------------------------------------------------&lt;span style=&quot;font-style: normal;&quot;&gt;&lt;br&gt;&lt;b&gt;pad0: Sink &amp;lt;- &quot;m00_b_tp2860 50--44&quot;:0&lt;br&gt;&lt;/b&gt;&lt;br&gt;&lt;b&gt;pad1: Source -&amp;gt; &quot;rkisp-csi-subdev&quot;:0&lt;/b&gt;&lt;br&gt;&lt;/span&gt;" style="text;html=1;strokeColor=none;fillColor=none;align=center;verticalAlign=middle;whiteSpace=wrap;rounded=0;fontColor=#4D4D4D;fontStyle=2" parent="1" vertex="1">
          <mxGeometry x="-585" y="-1925" width="250" height="120" as="geometry" />
        </mxCell>
        <mxCell id="G1HitYlAvnQOCPLEHpOn-45" style="edgeStyle=orthogonalEdgeStyle;rounded=0;orthogonalLoop=1;jettySize=auto;html=1;entryX=0;entryY=0.5;entryDx=0;entryDy=0;curved=1;exitX=1;exitY=0.5;exitDx=0;exitDy=0;" parent="1" source="G1HitYlAvnQOCPLEHpOn-33" target="G1HitYlAvnQOCPLEHpOn-44" edge="1">
          <mxGeometry relative="1" as="geometry">
            <Array as="points">
              <mxPoint x="-220" y="-1815" />
              <mxPoint x="-220" y="-1775" />
              <mxPoint x="-570" y="-1775" />
              <mxPoint x="-570" y="-1645" />
            </Array>
          </mxGeometry>
        </mxCell>
        <mxCell id="G1HitYlAvnQOCPLEHpOn-33" value="pad1" style="rounded=0;whiteSpace=wrap;html=1;horizontal=1;fillColor=#dae8fc;strokeColor=#6c8ebf;dashed=1;opacity=50;" parent="1" vertex="1">
          <mxGeometry x="-320" y="-1825" width="50" height="20" as="geometry" />
        </mxCell>
        <mxCell id="G1HitYlAvnQOCPLEHpOn-34" value="pad0" style="rounded=0;whiteSpace=wrap;html=1;horizontal=1;fillColor=#ffe6cc;strokeColor=#d79b00;dashed=1;opacity=50;" parent="1" vertex="1">
          <mxGeometry x="-660" y="-1855" width="50" height="20" as="geometry" />
        </mxCell>
        <mxCell id="G1HitYlAvnQOCPLEHpOn-36" value="" style="rounded=1;whiteSpace=wrap;html=1;fontStyle=1;horizontal=1;verticalAlign=top;" parent="1" vertex="1">
          <mxGeometry x="-466" y="-1755" width="310" height="270" as="geometry" />
        </mxCell>
        <mxCell id="G1HitYlAvnQOCPLEHpOn-37" value="&lt;span&gt;entity (6)&lt;/span&gt;" style="text;html=1;strokeColor=none;fillColor=none;align=center;verticalAlign=middle;whiteSpace=wrap;rounded=0;fontStyle=1" parent="1" vertex="1">
          <mxGeometry x="-376" y="-1765" width="140" height="40" as="geometry" />
        </mxCell>
        <mxCell id="G1HitYlAvnQOCPLEHpOn-38" value="&lt;u&gt;rkisp-csi-subdev (6 pads, 5 links)&lt;br&gt;&lt;/u&gt;&lt;br&gt;type V4L2 subdev subtype Unknown&lt;br&gt;device node name /dev/v4l-subdev1&lt;br&gt;--------------------------------------------------&lt;br&gt;&lt;b&gt;pad0: Sink &amp;lt;- &quot;rockchip-csi2-dphy0&quot;:1&lt;br&gt;&lt;/b&gt;&lt;br&gt;&lt;b&gt;pad1: Source -&amp;gt; &quot;rkisp-isp-subdev&quot;:0&lt;br&gt;&lt;/b&gt;&lt;br style=&quot;border-color: var(--border-color); font-style: normal;&quot;&gt;&lt;span style=&quot;font-style: normal;&quot;&gt;pad2: Source -&amp;gt; &quot;rkisp_rawwr0&quot;:0&lt;br&gt;&lt;/span&gt;&lt;br style=&quot;border-color: var(--border-color); font-style: normal;&quot;&gt;pad3: Source -&amp;gt; &quot;&quot;:0&lt;br&gt;&lt;br style=&quot;border-color: var(--border-color); font-style: normal;&quot;&gt;pad4: Source -&amp;gt; &quot;rkisp_rawwr2&quot;:0&lt;br&gt;&lt;br style=&quot;border-color: var(--border-color); font-style: normal;&quot;&gt;pad5: Source -&amp;gt; &quot;rkisp_rawwr3&quot;:0&lt;span style=&quot;font-style: normal;&quot;&gt;&lt;br&gt;&lt;/span&gt;" style="text;html=1;strokeColor=none;fillColor=none;align=center;verticalAlign=middle;whiteSpace=wrap;rounded=0;fontColor=#4D4D4D;fontStyle=2" parent="1" vertex="1">
          <mxGeometry x="-431" y="-1725" width="250" height="230" as="geometry" />
        </mxCell>
        <mxCell id="G1HitYlAvnQOCPLEHpOn-66" style="edgeStyle=orthogonalEdgeStyle;rounded=0;orthogonalLoop=1;jettySize=auto;html=1;entryX=0;entryY=0.5;entryDx=0;entryDy=0;curved=1;" parent="1" source="G1HitYlAvnQOCPLEHpOn-39" target="G1HitYlAvnQOCPLEHpOn-62" edge="1">
          <mxGeometry relative="1" as="geometry">
            <Array as="points">
              <mxPoint x="-70" y="-1615" />
              <mxPoint x="-70" y="-1455" />
              <mxPoint x="-375" y="-1455" />
              <mxPoint x="-375" y="-1319" />
            </Array>
          </mxGeometry>
        </mxCell>
        <mxCell id="G1HitYlAvnQOCPLEHpOn-39" value="pad2" style="rounded=0;whiteSpace=wrap;html=1;horizontal=1;fillColor=#dae8fc;strokeColor=#6c8ebf;dashed=1;opacity=50;" parent="1" vertex="1">
          <mxGeometry x="-162" y="-1625" width="50" height="20" as="geometry" />
        </mxCell>
        <mxCell id="G1HitYlAvnQOCPLEHpOn-40" value="pad3" style="rounded=0;whiteSpace=wrap;html=1;horizontal=1;fillColor=#dae8fc;strokeColor=#6c8ebf;dashed=1;opacity=50;" parent="1" vertex="1">
          <mxGeometry x="-162" y="-1595" width="50" height="20" as="geometry" />
        </mxCell>
        <mxCell id="G1HitYlAvnQOCPLEHpOn-41" value="pad4" style="rounded=0;whiteSpace=wrap;html=1;horizontal=1;fillColor=#dae8fc;strokeColor=#6c8ebf;dashed=1;opacity=50;" parent="1" vertex="1">
          <mxGeometry x="-162" y="-1565" width="50" height="20" as="geometry" />
        </mxCell>
        <mxCell id="G1HitYlAvnQOCPLEHpOn-42" value="pad5" style="rounded=0;whiteSpace=wrap;html=1;horizontal=1;fillColor=#dae8fc;strokeColor=#6c8ebf;dashed=1;opacity=50;" parent="1" vertex="1">
          <mxGeometry x="-162" y="-1535" width="50" height="20" as="geometry" />
        </mxCell>
        <mxCell id="G1HitYlAvnQOCPLEHpOn-43" value="pad6" style="rounded=0;whiteSpace=wrap;html=1;horizontal=1;fillColor=#dae8fc;strokeColor=#6c8ebf;dashed=1;opacity=50;" parent="1" vertex="1">
          <mxGeometry x="-162" y="-1505" width="50" height="20" as="geometry" />
        </mxCell>
        <mxCell id="G1HitYlAvnQOCPLEHpOn-44" value="pad0" style="rounded=0;whiteSpace=wrap;html=1;horizontal=1;fillColor=#ffe6cc;strokeColor=#d79b00;dashed=1;opacity=50;" parent="1" vertex="1">
          <mxGeometry x="-511" y="-1655" width="50" height="20" as="geometry" />
        </mxCell>
        <mxCell id="G1HitYlAvnQOCPLEHpOn-54" value="" style="rounded=1;whiteSpace=wrap;html=1;fontStyle=1;horizontal=1;verticalAlign=top;" parent="1" vertex="1">
          <mxGeometry x="-310" y="-1425" width="310" height="270" as="geometry" />
        </mxCell>
        <mxCell id="G1HitYlAvnQOCPLEHpOn-55" value="&lt;span&gt;entity (1)&lt;/span&gt;" style="text;html=1;strokeColor=none;fillColor=none;align=center;verticalAlign=middle;whiteSpace=wrap;rounded=0;fontStyle=1" parent="1" vertex="1">
          <mxGeometry x="-220" y="-1435" width="140" height="40" as="geometry" />
        </mxCell>
        <mxCell id="G1HitYlAvnQOCPLEHpOn-56" value="&lt;u&gt;rkisp-isp-subdev (4 pads, 7 links)&lt;br&gt;&lt;/u&gt;&lt;br&gt;type V4L2 subdev subtype Unknown&lt;br&gt;device node name /dev/v4l-subdev0&lt;br&gt;--------------------------------------------------&lt;br&gt;&lt;b&gt;pad0: Sink &amp;lt;- &quot;rkisp-csi-subdev&quot;:1&lt;br&gt;&lt;/b&gt;pad0: Sink &amp;lt;- &quot;rkisp_rawrd0_m&quot;:0&lt;br&gt;pad0: Sink &amp;lt;- &quot;rkisp_rawrd2_s&quot;:0&lt;br&gt;&lt;span style=&quot;font-style: normal;&quot;&gt;&lt;br&gt;&lt;b&gt;pad1: Sink &amp;lt;- &quot;rkisp-input-params&quot;:0&lt;br&gt;&lt;/b&gt;&lt;br&gt;&lt;b&gt;pad2: Source -&amp;gt; &quot;rkisp_mainpath&quot;:0&lt;br&gt;pad2: Source -&amp;gt; &quot;rkisp_selfpath&quot;:0&lt;br&gt;&lt;/b&gt;&lt;br&gt;&lt;b&gt;pad3: Source -&amp;gt; &quot;rkisp-statistics&quot;:0&lt;br&gt;&lt;/b&gt;&lt;br&gt;&lt;/span&gt;" style="text;html=1;strokeColor=none;fillColor=none;align=center;verticalAlign=middle;whiteSpace=wrap;rounded=0;fontColor=#4D4D4D;fontStyle=2" parent="1" vertex="1">
          <mxGeometry x="-275" y="-1395" width="250" height="230" as="geometry" />
        </mxCell>
        <mxCell id="G1HitYlAvnQOCPLEHpOn-85" style="edgeStyle=orthogonalEdgeStyle;rounded=0;orthogonalLoop=1;jettySize=auto;html=1;entryX=0;entryY=0.5;entryDx=0;entryDy=0;curved=1;" parent="1" source="G1HitYlAvnQOCPLEHpOn-59" target="G1HitYlAvnQOCPLEHpOn-80" edge="1">
          <mxGeometry relative="1" as="geometry" />
        </mxCell>
        <mxCell id="G1HitYlAvnQOCPLEHpOn-59" value="pad2" style="rounded=0;whiteSpace=wrap;html=1;horizontal=1;fillColor=#dae8fc;strokeColor=#6c8ebf;dashed=1;opacity=50;" parent="1" vertex="1">
          <mxGeometry x="-6" y="-1241" width="50" height="20" as="geometry" />
        </mxCell>
        <mxCell id="G1HitYlAvnQOCPLEHpOn-86" style="edgeStyle=orthogonalEdgeStyle;rounded=0;orthogonalLoop=1;jettySize=auto;html=1;entryX=0;entryY=0.5;entryDx=0;entryDy=0;curved=1;" parent="1" source="G1HitYlAvnQOCPLEHpOn-60" target="G1HitYlAvnQOCPLEHpOn-84" edge="1">
          <mxGeometry relative="1" as="geometry" />
        </mxCell>
        <mxCell id="G1HitYlAvnQOCPLEHpOn-60" value="pad2" style="rounded=0;whiteSpace=wrap;html=1;horizontal=1;fillColor=#dae8fc;strokeColor=#6c8ebf;dashed=1;opacity=50;" parent="1" vertex="1">
          <mxGeometry x="-6" y="-1223" width="50" height="20" as="geometry" />
        </mxCell>
        <mxCell id="G1HitYlAvnQOCPLEHpOn-76" style="edgeStyle=orthogonalEdgeStyle;rounded=0;orthogonalLoop=1;jettySize=auto;html=1;entryX=0;entryY=0.25;entryDx=0;entryDy=0;curved=1;" parent="1" source="G1HitYlAvnQOCPLEHpOn-61" target="G1HitYlAvnQOCPLEHpOn-75" edge="1">
          <mxGeometry relative="1" as="geometry">
            <Array as="points">
              <mxPoint x="80" y="-1187" />
              <mxPoint x="80" y="-1135" />
              <mxPoint x="-45" y="-1135" />
              <mxPoint x="-45" y="-993" />
            </Array>
          </mxGeometry>
        </mxCell>
        <mxCell id="G1HitYlAvnQOCPLEHpOn-61" value="pad3" style="rounded=0;whiteSpace=wrap;html=1;horizontal=1;fillColor=#dae8fc;strokeColor=#6c8ebf;dashed=1;opacity=50;" parent="1" vertex="1">
          <mxGeometry x="-6" y="-1197" width="50" height="20" as="geometry" />
        </mxCell>
        <mxCell id="G1HitYlAvnQOCPLEHpOn-62" value="pad0" style="rounded=0;whiteSpace=wrap;html=1;horizontal=1;fillColor=#ffe6cc;strokeColor=#d79b00;dashed=1;opacity=50;" parent="1" vertex="1">
          <mxGeometry x="-355" y="-1329" width="50" height="20" as="geometry" />
        </mxCell>
        <mxCell id="G1HitYlAvnQOCPLEHpOn-63" value="pad0" style="rounded=0;whiteSpace=wrap;html=1;horizontal=1;fillColor=#ffe6cc;strokeColor=#d79b00;dashed=1;opacity=50;" parent="1" vertex="1">
          <mxGeometry x="-355" y="-1309" width="50" height="20" as="geometry" />
        </mxCell>
        <mxCell id="G1HitYlAvnQOCPLEHpOn-64" value="pad0" style="rounded=0;whiteSpace=wrap;html=1;horizontal=1;fillColor=#ffe6cc;strokeColor=#d79b00;dashed=1;opacity=50;" parent="1" vertex="1">
          <mxGeometry x="-355" y="-1289" width="50" height="20" as="geometry" />
        </mxCell>
        <mxCell id="G1HitYlAvnQOCPLEHpOn-65" value="pad1" style="rounded=0;whiteSpace=wrap;html=1;horizontal=1;fillColor=#ffe6cc;strokeColor=#d79b00;dashed=1;opacity=50;" parent="1" vertex="1">
          <mxGeometry x="-355" y="-1265" width="50" height="20" as="geometry" />
        </mxCell>
        <mxCell id="G1HitYlAvnQOCPLEHpOn-67" value="" style="rounded=1;whiteSpace=wrap;html=1;fontStyle=1;horizontal=1;verticalAlign=top;" parent="1" vertex="1">
          <mxGeometry x="-466" y="-1105" width="310" height="130" as="geometry" />
        </mxCell>
        <mxCell id="G1HitYlAvnQOCPLEHpOn-68" value="&lt;span&gt;entity (61)&lt;/span&gt;" style="text;html=1;strokeColor=none;fillColor=none;align=center;verticalAlign=middle;whiteSpace=wrap;rounded=0;fontStyle=1" parent="1" vertex="1">
          <mxGeometry x="-376" y="-1115" width="140" height="40" as="geometry" />
        </mxCell>
        <mxCell id="G1HitYlAvnQOCPLEHpOn-71" style="edgeStyle=orthogonalEdgeStyle;rounded=0;orthogonalLoop=1;jettySize=auto;html=1;entryX=0;entryY=0.5;entryDx=0;entryDy=0;curved=1;" parent="1" source="G1HitYlAvnQOCPLEHpOn-69" target="G1HitYlAvnQOCPLEHpOn-65" edge="1">
          <mxGeometry relative="1" as="geometry">
            <Array as="points">
              <mxPoint x="-90" y="-988" />
              <mxPoint x="-90" y="-1135" />
              <mxPoint x="-375" y="-1135" />
              <mxPoint x="-375" y="-1255" />
            </Array>
          </mxGeometry>
        </mxCell>
        <mxCell id="G1HitYlAvnQOCPLEHpOn-69" value="pad0" style="rounded=0;whiteSpace=wrap;html=1;horizontal=1;fillColor=#dae8fc;strokeColor=#6c8ebf;dashed=1;opacity=50;" parent="1" vertex="1">
          <mxGeometry x="-166" y="-998" width="50" height="20" as="geometry" />
        </mxCell>
        <mxCell id="G1HitYlAvnQOCPLEHpOn-70" value="&lt;u&gt;rkisp-input-params (1pad, 1link)&lt;br&gt;&lt;/u&gt;&lt;br&gt;type Node subtype V4L&lt;br&gt;device node name /dev/video8&lt;br&gt;--------------------------------------------------&lt;span style=&quot;font-style: normal;&quot;&gt;&lt;br&gt;&lt;b&gt;pad0: Source &quot;rkisp-isp-subdev&quot;:1&lt;/b&gt;&lt;br&gt;&lt;/span&gt;" style="text;html=1;strokeColor=none;fillColor=none;align=center;verticalAlign=middle;whiteSpace=wrap;rounded=0;fontColor=#4D4D4D;fontStyle=2" parent="1" vertex="1">
          <mxGeometry x="-431" y="-1075" width="250" height="100" as="geometry" />
        </mxCell>
        <mxCell id="G1HitYlAvnQOCPLEHpOn-72" value="" style="rounded=1;whiteSpace=wrap;html=1;fontStyle=1;horizontal=1;verticalAlign=top;" parent="1" vertex="1">
          <mxGeometry y="-1108" width="310" height="130" as="geometry" />
        </mxCell>
        <mxCell id="G1HitYlAvnQOCPLEHpOn-73" value="&lt;span&gt;entity (55)&lt;/span&gt;" style="text;html=1;strokeColor=none;fillColor=none;align=center;verticalAlign=middle;whiteSpace=wrap;rounded=0;fontStyle=1" parent="1" vertex="1">
          <mxGeometry x="90" y="-1118" width="140" height="40" as="geometry" />
        </mxCell>
        <mxCell id="G1HitYlAvnQOCPLEHpOn-74" value="&lt;u&gt;rkisp-statistics (1pad, 1link)&lt;br&gt;&lt;/u&gt;&lt;br&gt;type Node subtype V4L&lt;br&gt;device node name /dev/video7&lt;br&gt;--------------------------------------------------&lt;span style=&quot;font-style: normal;&quot;&gt;&lt;br&gt;&lt;b&gt;pad0: Sink &quot;rkisp-isp-subdev&quot;:1&lt;/b&gt;&lt;br&gt;&lt;/span&gt;" style="text;html=1;strokeColor=none;fillColor=none;align=center;verticalAlign=middle;whiteSpace=wrap;rounded=0;fontColor=#4D4D4D;fontStyle=2" parent="1" vertex="1">
          <mxGeometry x="35" y="-1078" width="250" height="100" as="geometry" />
        </mxCell>
        <mxCell id="G1HitYlAvnQOCPLEHpOn-75" value="pad0" style="rounded=0;whiteSpace=wrap;html=1;horizontal=1;fillColor=#ffe6cc;strokeColor=#d79b00;dashed=1;opacity=50;" parent="1" vertex="1">
          <mxGeometry x="-25" y="-998" width="50" height="20" as="geometry" />
        </mxCell>
        <mxCell id="G1HitYlAvnQOCPLEHpOn-77" value="" style="rounded=1;whiteSpace=wrap;html=1;fontStyle=1;horizontal=1;verticalAlign=top;" parent="1" vertex="1">
          <mxGeometry x="115" y="-1555" width="310" height="130" as="geometry" />
        </mxCell>
        <mxCell id="G1HitYlAvnQOCPLEHpOn-78" value="&lt;span&gt;entity (13)&lt;/span&gt;" style="text;html=1;strokeColor=none;fillColor=none;align=center;verticalAlign=middle;whiteSpace=wrap;rounded=0;fontStyle=1" parent="1" vertex="1">
          <mxGeometry x="205" y="-1565" width="140" height="40" as="geometry" />
        </mxCell>
        <mxCell id="G1HitYlAvnQOCPLEHpOn-79" value="&lt;u&gt;rkisp_mainpath (1pad, 1link)&lt;br&gt;&lt;/u&gt;&lt;br&gt;type Node subtype V4L&lt;br&gt;device node name /dev/video0&lt;br&gt;--------------------------------------------------&lt;span style=&quot;font-style: normal;&quot;&gt;&lt;br&gt;&lt;b&gt;pad0: Sink &quot;rkisp-isp-subdev&quot;:2&lt;/b&gt;&lt;br&gt;&lt;/span&gt;" style="text;html=1;strokeColor=none;fillColor=none;align=center;verticalAlign=middle;whiteSpace=wrap;rounded=0;fontColor=#4D4D4D;fontStyle=2" parent="1" vertex="1">
          <mxGeometry x="150" y="-1525" width="250" height="100" as="geometry" />
        </mxCell>
        <mxCell id="G1HitYlAvnQOCPLEHpOn-80" value="pad0" style="rounded=0;whiteSpace=wrap;html=1;horizontal=1;fillColor=#ffe6cc;strokeColor=#d79b00;dashed=1;opacity=50;" parent="1" vertex="1">
          <mxGeometry x="90" y="-1445" width="50" height="20" as="geometry" />
        </mxCell>
        <mxCell id="G1HitYlAvnQOCPLEHpOn-81" value="" style="rounded=1;whiteSpace=wrap;html=1;fontStyle=1;horizontal=1;verticalAlign=top;" parent="1" vertex="1">
          <mxGeometry x="103" y="-1385" width="310" height="130" as="geometry" />
        </mxCell>
        <mxCell id="G1HitYlAvnQOCPLEHpOn-82" value="&lt;span&gt;entity (19)&lt;/span&gt;" style="text;html=1;strokeColor=none;fillColor=none;align=center;verticalAlign=middle;whiteSpace=wrap;rounded=0;fontStyle=1" parent="1" vertex="1">
          <mxGeometry x="193" y="-1395" width="140" height="40" as="geometry" />
        </mxCell>
        <mxCell id="G1HitYlAvnQOCPLEHpOn-83" value="&lt;u&gt;rkisp_selfpath (1pad, 1link)&lt;br&gt;&lt;/u&gt;&lt;br&gt;type Node subtype V4L&lt;br&gt;device node name /dev/video1&lt;br&gt;--------------------------------------------------&lt;span style=&quot;font-style: normal;&quot;&gt;&lt;br&gt;&lt;b&gt;pad0: Sink &quot;rkisp-isp-subdev&quot;:2&lt;/b&gt;&lt;br&gt;&lt;/span&gt;" style="text;html=1;strokeColor=none;fillColor=none;align=center;verticalAlign=middle;whiteSpace=wrap;rounded=0;fontColor=#4D4D4D;fontStyle=2" parent="1" vertex="1">
          <mxGeometry x="138" y="-1355" width="250" height="100" as="geometry" />
        </mxCell>
        <mxCell id="G1HitYlAvnQOCPLEHpOn-84" value="pad0" style="rounded=0;whiteSpace=wrap;html=1;horizontal=1;fillColor=#ffe6cc;strokeColor=#d79b00;dashed=1;opacity=50;" parent="1" vertex="1">
          <mxGeometry x="78" y="-1275" width="50" height="20" as="geometry" />
        </mxCell>
        <mxCell id="G1HitYlAvnQOCPLEHpOn-88" value="pad0" style="rounded=0;whiteSpace=wrap;html=1;horizontal=1;fillColor=#ffe6cc;strokeColor=#d79b00;dashed=1;opacity=50;" parent="1" vertex="1">
          <mxGeometry x="53" y="-2105" width="50" height="20" as="geometry" />
        </mxCell>
        <mxCell id="G1HitYlAvnQOCPLEHpOn-89" value="pad0" style="rounded=0;whiteSpace=wrap;html=1;horizontal=1;fillColor=#dae8fc;strokeColor=#6c8ebf;dashed=1;opacity=50;" parent="1" vertex="1">
          <mxGeometry x="53" y="-2080" width="50" height="20" as="geometry" />
        </mxCell>
        <mxCell id="G1HitYlAvnQOCPLEHpOn-92" value="" style="endArrow=classic;html=1;rounded=0;" parent="1" edge="1">
          <mxGeometry width="50" height="50" relative="1" as="geometry">
            <mxPoint x="53" y="-2125.29" as="sourcePoint" />
            <mxPoint x="93" y="-2125.29" as="targetPoint" />
          </mxGeometry>
        </mxCell>
        <mxCell id="G1HitYlAvnQOCPLEHpOn-94" value="Active Link" style="text;html=1;strokeColor=none;fillColor=none;align=center;verticalAlign=middle;whiteSpace=wrap;rounded=0;fontStyle=1" parent="1" vertex="1">
          <mxGeometry x="115" y="-2140" width="85" height="30" as="geometry" />
        </mxCell>
        <mxCell id="G1HitYlAvnQOCPLEHpOn-95" value="source pad" style="text;html=1;strokeColor=none;fillColor=none;align=center;verticalAlign=middle;whiteSpace=wrap;rounded=0;fontStyle=1" parent="1" vertex="1">
          <mxGeometry x="117.5" y="-2110" width="85" height="30" as="geometry" />
        </mxCell>
        <mxCell id="G1HitYlAvnQOCPLEHpOn-96" value="sink pad" style="text;html=1;strokeColor=none;fillColor=none;align=center;verticalAlign=middle;whiteSpace=wrap;rounded=0;fontStyle=1" parent="1" vertex="1">
          <mxGeometry x="120" y="-2085" width="85" height="30" as="geometry" />
        </mxCell>
        <mxCell id="AAtuwgzB8faNnZX-cIjk-1" value="" style="rounded=1;whiteSpace=wrap;html=1;arcSize=1;" parent="1" vertex="1">
          <mxGeometry x="880" y="-2170" width="1270" height="1250" as="geometry" />
        </mxCell>
        <mxCell id="AAtuwgzB8faNnZX-cIjk-2" value="" style="rounded=1;whiteSpace=wrap;html=1;" parent="1" vertex="1">
          <mxGeometry x="1725" y="-2140" width="195" height="100" as="geometry" />
        </mxCell>
        <mxCell id="AAtuwgzB8faNnZX-cIjk-3" value="" style="rounded=1;whiteSpace=wrap;html=1;fontStyle=1;horizontal=1;verticalAlign=top;" parent="1" vertex="1">
          <mxGeometry x="920" y="-2130" width="310" height="130" as="geometry" />
        </mxCell>
        <mxCell id="AAtuwgzB8faNnZX-cIjk-4" value="&lt;span&gt;entity (70)&lt;/span&gt;" style="text;html=1;strokeColor=none;fillColor=none;align=center;verticalAlign=middle;whiteSpace=wrap;rounded=0;fontStyle=1" parent="1" vertex="1">
          <mxGeometry x="1010" y="-2140" width="140" height="40" as="geometry" />
        </mxCell>
        <mxCell id="AAtuwgzB8faNnZX-cIjk-5" style="edgeStyle=orthogonalEdgeStyle;rounded=0;orthogonalLoop=1;jettySize=auto;html=1;entryX=0;entryY=0.5;entryDx=0;entryDy=0;curved=1;" parent="1" source="AAtuwgzB8faNnZX-cIjk-6" target="AAtuwgzB8faNnZX-cIjk-13" edge="1">
          <mxGeometry relative="1" as="geometry">
            <Array as="points">
              <mxPoint x="1310" y="-2013" />
              <mxPoint x="1310" y="-1970" />
              <mxPoint x="1010" y="-1970" />
              <mxPoint x="1010" y="-1840" />
            </Array>
          </mxGeometry>
        </mxCell>
        <mxCell id="AAtuwgzB8faNnZX-cIjk-6" value="pad0" style="rounded=0;whiteSpace=wrap;html=1;horizontal=1;fillColor=#dae8fc;strokeColor=#6c8ebf;dashed=1;opacity=50;" parent="1" vertex="1">
          <mxGeometry x="1220" y="-2023" width="50" height="20" as="geometry" />
        </mxCell>
        <mxCell id="AAtuwgzB8faNnZX-cIjk-7" value="&lt;u&gt;m00_b_tp2860 50-0044 (1pad, 1link)&lt;br&gt;&lt;/u&gt;&lt;br&gt;type V4L2 subdev subtype Sensor&lt;br&gt;device node name /dev/v4l-subdev3&lt;br&gt;--------------------------------------------------&lt;span style=&quot;font-style: normal;&quot;&gt;&lt;br&gt;&lt;b&gt;pad0: Source &quot;rockchip-csi2-dphy0&quot;&lt;/b&gt;&lt;br&gt;&lt;/span&gt;" style="text;html=1;strokeColor=none;fillColor=none;align=center;verticalAlign=middle;whiteSpace=wrap;rounded=0;fontColor=#4D4D4D;fontStyle=2" parent="1" vertex="1">
          <mxGeometry x="955" y="-2100" width="250" height="100" as="geometry" />
        </mxCell>
        <mxCell id="AAtuwgzB8faNnZX-cIjk-8" value="" style="rounded=1;whiteSpace=wrap;html=1;fontStyle=1;horizontal=1;verticalAlign=top;" parent="1" vertex="1">
          <mxGeometry x="1080" y="-1950" width="310" height="160" as="geometry" />
        </mxCell>
        <mxCell id="AAtuwgzB8faNnZX-cIjk-9" value="&lt;span&gt;entity (67)&lt;/span&gt;" style="text;html=1;strokeColor=none;fillColor=none;align=center;verticalAlign=middle;whiteSpace=wrap;rounded=0;fontStyle=1" parent="1" vertex="1">
          <mxGeometry x="1170" y="-1960" width="140" height="40" as="geometry" />
        </mxCell>
        <mxCell id="AAtuwgzB8faNnZX-cIjk-10" value="&lt;u&gt;rockchip-csi2-dphy0 (2pad, 2links)&lt;br&gt;&lt;/u&gt;&lt;br&gt;type V4L2 subdev subtype Unknown&lt;br&gt;device node name /dev/v4l-subdev2&lt;br&gt;--------------------------------------------------&lt;span style=&quot;font-style: normal;&quot;&gt;&lt;br&gt;&lt;b&gt;pad0: Sink &amp;lt;- &quot;m00_b_tp2860 50--44&quot;:0&lt;br&gt;&lt;/b&gt;&lt;br&gt;&lt;b&gt;pad1: Source -&amp;gt; &quot;rkisp-csi-subdev&quot;:0&lt;/b&gt;&lt;br&gt;&lt;/span&gt;" style="text;html=1;strokeColor=none;fillColor=none;align=center;verticalAlign=middle;whiteSpace=wrap;rounded=0;fontColor=#4D4D4D;fontStyle=2" parent="1" vertex="1">
          <mxGeometry x="1115" y="-1920" width="250" height="120" as="geometry" />
        </mxCell>
        <mxCell id="AAtuwgzB8faNnZX-cIjk-11" style="edgeStyle=orthogonalEdgeStyle;rounded=0;orthogonalLoop=1;jettySize=auto;html=1;entryX=0;entryY=0.5;entryDx=0;entryDy=0;curved=1;exitX=1;exitY=0.5;exitDx=0;exitDy=0;" parent="1" source="AAtuwgzB8faNnZX-cIjk-12" target="AAtuwgzB8faNnZX-cIjk-23" edge="1">
          <mxGeometry relative="1" as="geometry">
            <Array as="points">
              <mxPoint x="1480" y="-1810" />
              <mxPoint x="1480" y="-1770" />
              <mxPoint x="1130" y="-1770" />
              <mxPoint x="1130" y="-1640" />
            </Array>
          </mxGeometry>
        </mxCell>
        <mxCell id="AAtuwgzB8faNnZX-cIjk-12" value="pad1" style="rounded=0;whiteSpace=wrap;html=1;horizontal=1;fillColor=#dae8fc;strokeColor=#6c8ebf;dashed=1;opacity=50;" parent="1" vertex="1">
          <mxGeometry x="1380" y="-1820" width="50" height="20" as="geometry" />
        </mxCell>
        <mxCell id="AAtuwgzB8faNnZX-cIjk-13" value="pad0" style="rounded=0;whiteSpace=wrap;html=1;horizontal=1;fillColor=#ffe6cc;strokeColor=#d79b00;dashed=1;opacity=50;" parent="1" vertex="1">
          <mxGeometry x="1040" y="-1850" width="50" height="20" as="geometry" />
        </mxCell>
        <mxCell id="AAtuwgzB8faNnZX-cIjk-14" value="" style="rounded=1;whiteSpace=wrap;html=1;fontStyle=1;horizontal=1;verticalAlign=top;" parent="1" vertex="1">
          <mxGeometry x="1234" y="-1750" width="310" height="270" as="geometry" />
        </mxCell>
        <mxCell id="AAtuwgzB8faNnZX-cIjk-15" value="&lt;span&gt;entity (6)&lt;/span&gt;" style="text;html=1;strokeColor=none;fillColor=none;align=center;verticalAlign=middle;whiteSpace=wrap;rounded=0;fontStyle=1" parent="1" vertex="1">
          <mxGeometry x="1324" y="-1760" width="140" height="40" as="geometry" />
        </mxCell>
        <mxCell id="AAtuwgzB8faNnZX-cIjk-16" value="&lt;u&gt;rkisp-csi-subdev (6 pads, 5 links)&lt;br&gt;&lt;/u&gt;&lt;br&gt;type V4L2 subdev subtype Unknown&lt;br&gt;device node name /dev/v4l-subdev1&lt;br&gt;--------------------------------------------------&lt;br&gt;&lt;b&gt;pad0: Sink &amp;lt;- &quot;rockchip-csi2-dphy0&quot;:1&lt;br&gt;&lt;/b&gt;&lt;br&gt;&lt;b&gt;pad1: Source -&amp;gt; &quot;rkisp-isp-subdev&quot;:0&lt;br&gt;&lt;/b&gt;&lt;br style=&quot;border-color: var(--border-color); font-style: normal;&quot;&gt;&lt;span style=&quot;font-style: normal;&quot;&gt;pad2: Source -&amp;gt; &quot;rkisp_rawwr0&quot;:0&lt;br&gt;&lt;/span&gt;&lt;br style=&quot;border-color: var(--border-color); font-style: normal;&quot;&gt;pad3: Source -&amp;gt; &quot;&quot;:0&lt;br&gt;&lt;br style=&quot;border-color: var(--border-color); font-style: normal;&quot;&gt;pad4: Source -&amp;gt; &quot;rkisp_rawwr2&quot;:0&lt;br&gt;&lt;br style=&quot;border-color: var(--border-color); font-style: normal;&quot;&gt;pad5: Source -&amp;gt; &quot;rkisp_rawwr3&quot;:0&lt;span style=&quot;font-style: normal;&quot;&gt;&lt;br&gt;&lt;/span&gt;" style="text;html=1;strokeColor=none;fillColor=none;align=center;verticalAlign=middle;whiteSpace=wrap;rounded=0;fontColor=#4D4D4D;fontStyle=2" parent="1" vertex="1">
          <mxGeometry x="1269" y="-1720" width="250" height="230" as="geometry" />
        </mxCell>
        <mxCell id="AAtuwgzB8faNnZX-cIjk-17" style="edgeStyle=orthogonalEdgeStyle;rounded=0;orthogonalLoop=1;jettySize=auto;html=1;entryX=0;entryY=0.5;entryDx=0;entryDy=0;curved=1;" parent="1" source="AAtuwgzB8faNnZX-cIjk-18" target="AAtuwgzB8faNnZX-cIjk-33" edge="1">
          <mxGeometry relative="1" as="geometry">
            <Array as="points">
              <mxPoint x="1630" y="-1610" />
              <mxPoint x="1630" y="-1450" />
              <mxPoint x="1325" y="-1450" />
              <mxPoint x="1325" y="-1314" />
            </Array>
          </mxGeometry>
        </mxCell>
        <mxCell id="AAtuwgzB8faNnZX-cIjk-18" value="pad2" style="rounded=0;whiteSpace=wrap;html=1;horizontal=1;fillColor=#dae8fc;strokeColor=#6c8ebf;dashed=1;opacity=50;" parent="1" vertex="1">
          <mxGeometry x="1538" y="-1620" width="50" height="20" as="geometry" />
        </mxCell>
        <mxCell id="AAtuwgzB8faNnZX-cIjk-19" value="pad3" style="rounded=0;whiteSpace=wrap;html=1;horizontal=1;fillColor=#dae8fc;strokeColor=#6c8ebf;dashed=1;opacity=50;" parent="1" vertex="1">
          <mxGeometry x="1538" y="-1590" width="50" height="20" as="geometry" />
        </mxCell>
        <mxCell id="AAtuwgzB8faNnZX-cIjk-20" value="pad4" style="rounded=0;whiteSpace=wrap;html=1;horizontal=1;fillColor=#dae8fc;strokeColor=#6c8ebf;dashed=1;opacity=50;" parent="1" vertex="1">
          <mxGeometry x="1538" y="-1560" width="50" height="20" as="geometry" />
        </mxCell>
        <mxCell id="AAtuwgzB8faNnZX-cIjk-21" value="pad5" style="rounded=0;whiteSpace=wrap;html=1;horizontal=1;fillColor=#dae8fc;strokeColor=#6c8ebf;dashed=1;opacity=50;" parent="1" vertex="1">
          <mxGeometry x="1538" y="-1530" width="50" height="20" as="geometry" />
        </mxCell>
        <mxCell id="AAtuwgzB8faNnZX-cIjk-22" value="pad6" style="rounded=0;whiteSpace=wrap;html=1;horizontal=1;fillColor=#dae8fc;strokeColor=#6c8ebf;dashed=1;opacity=50;" parent="1" vertex="1">
          <mxGeometry x="1538" y="-1500" width="50" height="20" as="geometry" />
        </mxCell>
        <mxCell id="AAtuwgzB8faNnZX-cIjk-23" value="pad0" style="rounded=0;whiteSpace=wrap;html=1;horizontal=1;fillColor=#ffe6cc;strokeColor=#d79b00;dashed=1;opacity=50;" parent="1" vertex="1">
          <mxGeometry x="1189" y="-1650" width="50" height="20" as="geometry" />
        </mxCell>
        <mxCell id="AAtuwgzB8faNnZX-cIjk-24" value="" style="rounded=1;whiteSpace=wrap;html=1;fontStyle=1;horizontal=1;verticalAlign=top;" parent="1" vertex="1">
          <mxGeometry x="1390" y="-1420" width="310" height="270" as="geometry" />
        </mxCell>
        <mxCell id="AAtuwgzB8faNnZX-cIjk-25" value="&lt;span&gt;entity (1)&lt;/span&gt;" style="text;html=1;strokeColor=none;fillColor=none;align=center;verticalAlign=middle;whiteSpace=wrap;rounded=0;fontStyle=1" parent="1" vertex="1">
          <mxGeometry x="1480" y="-1430" width="140" height="40" as="geometry" />
        </mxCell>
        <mxCell id="AAtuwgzB8faNnZX-cIjk-26" value="&lt;u&gt;rkisp-isp-subdev (4 pads, 7 links)&lt;br&gt;&lt;/u&gt;&lt;br&gt;type V4L2 subdev subtype Unknown&lt;br&gt;device node name /dev/v4l-subdev0&lt;br&gt;--------------------------------------------------&lt;br&gt;&lt;b&gt;pad0: Sink &amp;lt;- &quot;rkisp-csi-subdev&quot;:1&lt;br&gt;&lt;/b&gt;pad0: Sink &amp;lt;- &quot;rkisp_rawrd0_m&quot;:0&lt;br&gt;pad0: Sink &amp;lt;- &quot;rkisp_rawrd2_s&quot;:0&lt;br&gt;&lt;span style=&quot;font-style: normal;&quot;&gt;&lt;br&gt;&lt;b&gt;pad1: Sink &amp;lt;- &quot;rkisp-input-params&quot;:0&lt;br&gt;&lt;/b&gt;&lt;br&gt;&lt;b&gt;pad2: Source -&amp;gt; &quot;rkisp_mainpath&quot;:0&lt;br&gt;pad2: Source -&amp;gt; &quot;rkisp_selfpath&quot;:0&lt;br&gt;&lt;/b&gt;&lt;br&gt;&lt;b&gt;pad3: Source -&amp;gt; &quot;rkisp-statistics&quot;:0&lt;br&gt;&lt;/b&gt;&lt;br&gt;&lt;/span&gt;" style="text;html=1;strokeColor=none;fillColor=none;align=center;verticalAlign=middle;whiteSpace=wrap;rounded=0;fontColor=#4D4D4D;fontStyle=2" parent="1" vertex="1">
          <mxGeometry x="1425" y="-1390" width="250" height="230" as="geometry" />
        </mxCell>
        <mxCell id="AAtuwgzB8faNnZX-cIjk-27" style="edgeStyle=orthogonalEdgeStyle;rounded=0;orthogonalLoop=1;jettySize=auto;html=1;entryX=0;entryY=0.5;entryDx=0;entryDy=0;curved=1;" parent="1" source="AAtuwgzB8faNnZX-cIjk-28" target="AAtuwgzB8faNnZX-cIjk-49" edge="1">
          <mxGeometry relative="1" as="geometry" />
        </mxCell>
        <mxCell id="AAtuwgzB8faNnZX-cIjk-28" value="pad2" style="rounded=0;whiteSpace=wrap;html=1;horizontal=1;fillColor=#dae8fc;strokeColor=#6c8ebf;dashed=1;opacity=50;" parent="1" vertex="1">
          <mxGeometry x="1694" y="-1236" width="50" height="20" as="geometry" />
        </mxCell>
        <mxCell id="AAtuwgzB8faNnZX-cIjk-29" style="edgeStyle=orthogonalEdgeStyle;rounded=0;orthogonalLoop=1;jettySize=auto;html=1;entryX=0;entryY=0.5;entryDx=0;entryDy=0;curved=1;" parent="1" source="AAtuwgzB8faNnZX-cIjk-30" target="AAtuwgzB8faNnZX-cIjk-53" edge="1">
          <mxGeometry relative="1" as="geometry" />
        </mxCell>
        <mxCell id="AAtuwgzB8faNnZX-cIjk-30" value="pad2" style="rounded=0;whiteSpace=wrap;html=1;horizontal=1;fillColor=#dae8fc;strokeColor=#6c8ebf;dashed=1;opacity=50;" parent="1" vertex="1">
          <mxGeometry x="1694" y="-1218" width="50" height="20" as="geometry" />
        </mxCell>
        <mxCell id="AAtuwgzB8faNnZX-cIjk-31" style="edgeStyle=orthogonalEdgeStyle;rounded=0;orthogonalLoop=1;jettySize=auto;html=1;entryX=0;entryY=0.25;entryDx=0;entryDy=0;curved=1;" parent="1" source="AAtuwgzB8faNnZX-cIjk-32" target="AAtuwgzB8faNnZX-cIjk-45" edge="1">
          <mxGeometry relative="1" as="geometry">
            <Array as="points">
              <mxPoint x="1780" y="-1182" />
              <mxPoint x="1780" y="-1130" />
              <mxPoint x="1655" y="-1130" />
              <mxPoint x="1655" y="-988" />
            </Array>
          </mxGeometry>
        </mxCell>
        <mxCell id="AAtuwgzB8faNnZX-cIjk-32" value="pad3" style="rounded=0;whiteSpace=wrap;html=1;horizontal=1;fillColor=#dae8fc;strokeColor=#6c8ebf;dashed=1;opacity=50;" parent="1" vertex="1">
          <mxGeometry x="1694" y="-1192" width="50" height="20" as="geometry" />
        </mxCell>
        <mxCell id="AAtuwgzB8faNnZX-cIjk-33" value="pad0" style="rounded=0;whiteSpace=wrap;html=1;horizontal=1;fillColor=#ffe6cc;strokeColor=#d79b00;dashed=1;opacity=50;" parent="1" vertex="1">
          <mxGeometry x="1345" y="-1324" width="50" height="20" as="geometry" />
        </mxCell>
        <mxCell id="AAtuwgzB8faNnZX-cIjk-34" value="pad0" style="rounded=0;whiteSpace=wrap;html=1;horizontal=1;fillColor=#ffe6cc;strokeColor=#d79b00;dashed=1;opacity=50;" parent="1" vertex="1">
          <mxGeometry x="1345" y="-1304" width="50" height="20" as="geometry" />
        </mxCell>
        <mxCell id="AAtuwgzB8faNnZX-cIjk-35" value="pad0" style="rounded=0;whiteSpace=wrap;html=1;horizontal=1;fillColor=#ffe6cc;strokeColor=#d79b00;dashed=1;opacity=50;" parent="1" vertex="1">
          <mxGeometry x="1345" y="-1284" width="50" height="20" as="geometry" />
        </mxCell>
        <mxCell id="AAtuwgzB8faNnZX-cIjk-36" value="pad1" style="rounded=0;whiteSpace=wrap;html=1;horizontal=1;fillColor=#ffe6cc;strokeColor=#d79b00;dashed=1;opacity=50;" parent="1" vertex="1">
          <mxGeometry x="1345" y="-1260" width="50" height="20" as="geometry" />
        </mxCell>
        <mxCell id="AAtuwgzB8faNnZX-cIjk-37" value="" style="rounded=1;whiteSpace=wrap;html=1;fontStyle=1;horizontal=1;verticalAlign=top;" parent="1" vertex="1">
          <mxGeometry x="1234" y="-1100" width="310" height="130" as="geometry" />
        </mxCell>
        <mxCell id="AAtuwgzB8faNnZX-cIjk-38" value="&lt;span&gt;entity (61)&lt;/span&gt;" style="text;html=1;strokeColor=none;fillColor=none;align=center;verticalAlign=middle;whiteSpace=wrap;rounded=0;fontStyle=1" parent="1" vertex="1">
          <mxGeometry x="1324" y="-1110" width="140" height="40" as="geometry" />
        </mxCell>
        <mxCell id="AAtuwgzB8faNnZX-cIjk-39" style="edgeStyle=orthogonalEdgeStyle;rounded=0;orthogonalLoop=1;jettySize=auto;html=1;entryX=0;entryY=0.5;entryDx=0;entryDy=0;curved=1;" parent="1" source="AAtuwgzB8faNnZX-cIjk-40" target="AAtuwgzB8faNnZX-cIjk-36" edge="1">
          <mxGeometry relative="1" as="geometry">
            <Array as="points">
              <mxPoint x="1610" y="-983" />
              <mxPoint x="1610" y="-1130" />
              <mxPoint x="1325" y="-1130" />
              <mxPoint x="1325" y="-1250" />
            </Array>
          </mxGeometry>
        </mxCell>
        <mxCell id="AAtuwgzB8faNnZX-cIjk-40" value="pad0" style="rounded=0;whiteSpace=wrap;html=1;horizontal=1;fillColor=#dae8fc;strokeColor=#6c8ebf;dashed=1;opacity=50;" parent="1" vertex="1">
          <mxGeometry x="1534" y="-993" width="50" height="20" as="geometry" />
        </mxCell>
        <mxCell id="AAtuwgzB8faNnZX-cIjk-41" value="&lt;u&gt;rkisp-input-params (1pad, 1link)&lt;br&gt;&lt;/u&gt;&lt;br&gt;type Node subtype V4L&lt;br&gt;device node name /dev/video8&lt;br&gt;--------------------------------------------------&lt;span style=&quot;font-style: normal;&quot;&gt;&lt;br&gt;&lt;b&gt;pad0: Source &quot;rkisp-isp-subdev&quot;:1&lt;/b&gt;&lt;br&gt;&lt;/span&gt;" style="text;html=1;strokeColor=none;fillColor=none;align=center;verticalAlign=middle;whiteSpace=wrap;rounded=0;fontColor=#4D4D4D;fontStyle=2" parent="1" vertex="1">
          <mxGeometry x="1269" y="-1070" width="250" height="100" as="geometry" />
        </mxCell>
        <mxCell id="AAtuwgzB8faNnZX-cIjk-42" value="" style="rounded=1;whiteSpace=wrap;html=1;fontStyle=1;horizontal=1;verticalAlign=top;" parent="1" vertex="1">
          <mxGeometry x="1700" y="-1103" width="310" height="130" as="geometry" />
        </mxCell>
        <mxCell id="AAtuwgzB8faNnZX-cIjk-43" value="&lt;span&gt;entity (55)&lt;/span&gt;" style="text;html=1;strokeColor=none;fillColor=none;align=center;verticalAlign=middle;whiteSpace=wrap;rounded=0;fontStyle=1" parent="1" vertex="1">
          <mxGeometry x="1790" y="-1113" width="140" height="40" as="geometry" />
        </mxCell>
        <mxCell id="AAtuwgzB8faNnZX-cIjk-44" value="&lt;u&gt;rkisp-statistics (1pad, 1link)&lt;br&gt;&lt;/u&gt;&lt;br&gt;type Node subtype V4L&lt;br&gt;device node name /dev/video7&lt;br&gt;--------------------------------------------------&lt;span style=&quot;font-style: normal;&quot;&gt;&lt;br&gt;&lt;b&gt;pad0: Sink &quot;rkisp-isp-subdev&quot;:1&lt;/b&gt;&lt;br&gt;&lt;/span&gt;" style="text;html=1;strokeColor=none;fillColor=none;align=center;verticalAlign=middle;whiteSpace=wrap;rounded=0;fontColor=#4D4D4D;fontStyle=2" parent="1" vertex="1">
          <mxGeometry x="1735" y="-1073" width="250" height="100" as="geometry" />
        </mxCell>
        <mxCell id="AAtuwgzB8faNnZX-cIjk-45" value="pad0" style="rounded=0;whiteSpace=wrap;html=1;horizontal=1;fillColor=#ffe6cc;strokeColor=#d79b00;dashed=1;opacity=50;" parent="1" vertex="1">
          <mxGeometry x="1675" y="-993" width="50" height="20" as="geometry" />
        </mxCell>
        <mxCell id="AAtuwgzB8faNnZX-cIjk-46" value="" style="rounded=1;whiteSpace=wrap;html=1;fontStyle=1;horizontal=1;verticalAlign=top;" parent="1" vertex="1">
          <mxGeometry x="1815" y="-1550" width="310" height="130" as="geometry" />
        </mxCell>
        <mxCell id="AAtuwgzB8faNnZX-cIjk-47" value="&lt;span&gt;entity (13)&lt;/span&gt;" style="text;html=1;strokeColor=none;fillColor=none;align=center;verticalAlign=middle;whiteSpace=wrap;rounded=0;fontStyle=1" parent="1" vertex="1">
          <mxGeometry x="1905" y="-1560" width="140" height="40" as="geometry" />
        </mxCell>
        <mxCell id="AAtuwgzB8faNnZX-cIjk-48" value="&lt;u&gt;rkisp_mainpath (1pad, 1link)&lt;br&gt;&lt;/u&gt;&lt;br&gt;type Node subtype V4L&lt;br&gt;device node name /dev/video0&lt;br&gt;--------------------------------------------------&lt;span style=&quot;font-style: normal;&quot;&gt;&lt;br&gt;&lt;b&gt;pad0: Sink &quot;rkisp-isp-subdev&quot;:2&lt;/b&gt;&lt;br&gt;&lt;/span&gt;" style="text;html=1;strokeColor=none;fillColor=none;align=center;verticalAlign=middle;whiteSpace=wrap;rounded=0;fontColor=#4D4D4D;fontStyle=2" parent="1" vertex="1">
          <mxGeometry x="1850" y="-1520" width="250" height="100" as="geometry" />
        </mxCell>
        <mxCell id="AAtuwgzB8faNnZX-cIjk-49" value="pad0" style="rounded=0;whiteSpace=wrap;html=1;horizontal=1;fillColor=#ffe6cc;strokeColor=#d79b00;dashed=1;opacity=50;" parent="1" vertex="1">
          <mxGeometry x="1790" y="-1440" width="50" height="20" as="geometry" />
        </mxCell>
        <mxCell id="AAtuwgzB8faNnZX-cIjk-50" value="" style="rounded=1;whiteSpace=wrap;html=1;fontStyle=1;horizontal=1;verticalAlign=top;" parent="1" vertex="1">
          <mxGeometry x="1803" y="-1380" width="310" height="130" as="geometry" />
        </mxCell>
        <mxCell id="AAtuwgzB8faNnZX-cIjk-51" value="&lt;span&gt;entity (19)&lt;/span&gt;" style="text;html=1;strokeColor=none;fillColor=none;align=center;verticalAlign=middle;whiteSpace=wrap;rounded=0;fontStyle=1" parent="1" vertex="1">
          <mxGeometry x="1893" y="-1390" width="140" height="40" as="geometry" />
        </mxCell>
        <mxCell id="AAtuwgzB8faNnZX-cIjk-52" value="&lt;u&gt;rkisp_selfpath (1pad, 1link)&lt;br&gt;&lt;/u&gt;&lt;br&gt;type Node subtype V4L&lt;br&gt;device node name /dev/video1&lt;br&gt;--------------------------------------------------&lt;span style=&quot;font-style: normal;&quot;&gt;&lt;br&gt;&lt;b&gt;pad0: Sink &quot;rkisp-isp-subdev&quot;:2&lt;/b&gt;&lt;br&gt;&lt;/span&gt;" style="text;html=1;strokeColor=none;fillColor=none;align=center;verticalAlign=middle;whiteSpace=wrap;rounded=0;fontColor=#4D4D4D;fontStyle=2" parent="1" vertex="1">
          <mxGeometry x="1838" y="-1350" width="250" height="100" as="geometry" />
        </mxCell>
        <mxCell id="AAtuwgzB8faNnZX-cIjk-53" value="pad0" style="rounded=0;whiteSpace=wrap;html=1;horizontal=1;fillColor=#ffe6cc;strokeColor=#d79b00;dashed=1;opacity=50;" parent="1" vertex="1">
          <mxGeometry x="1778" y="-1270" width="50" height="20" as="geometry" />
        </mxCell>
        <mxCell id="AAtuwgzB8faNnZX-cIjk-54" value="pad0" style="rounded=0;whiteSpace=wrap;html=1;horizontal=1;fillColor=#ffe6cc;strokeColor=#d79b00;dashed=1;opacity=50;" parent="1" vertex="1">
          <mxGeometry x="1753" y="-2100" width="50" height="20" as="geometry" />
        </mxCell>
        <mxCell id="AAtuwgzB8faNnZX-cIjk-55" value="pad0" style="rounded=0;whiteSpace=wrap;html=1;horizontal=1;fillColor=#dae8fc;strokeColor=#6c8ebf;dashed=1;opacity=50;" parent="1" vertex="1">
          <mxGeometry x="1753" y="-2075" width="50" height="20" as="geometry" />
        </mxCell>
        <mxCell id="AAtuwgzB8faNnZX-cIjk-56" value="" style="endArrow=classic;html=1;rounded=0;" parent="1" edge="1">
          <mxGeometry width="50" height="50" relative="1" as="geometry">
            <mxPoint x="1753" y="-2120.29" as="sourcePoint" />
            <mxPoint x="1793" y="-2120.29" as="targetPoint" />
          </mxGeometry>
        </mxCell>
        <mxCell id="AAtuwgzB8faNnZX-cIjk-57" value="Active Link" style="text;html=1;strokeColor=none;fillColor=none;align=center;verticalAlign=middle;whiteSpace=wrap;rounded=0;fontStyle=1" parent="1" vertex="1">
          <mxGeometry x="1815" y="-2135" width="85" height="30" as="geometry" />
        </mxCell>
        <mxCell id="AAtuwgzB8faNnZX-cIjk-58" value="source pad" style="text;html=1;strokeColor=none;fillColor=none;align=center;verticalAlign=middle;whiteSpace=wrap;rounded=0;fontStyle=1" parent="1" vertex="1">
          <mxGeometry x="1817.5" y="-2105" width="85" height="30" as="geometry" />
        </mxCell>
        <mxCell id="AAtuwgzB8faNnZX-cIjk-59" value="sink pad" style="text;html=1;strokeColor=none;fillColor=none;align=center;verticalAlign=middle;whiteSpace=wrap;rounded=0;fontStyle=1" parent="1" vertex="1">
          <mxGeometry x="1820" y="-2080" width="85" height="30" as="geometry" />
        </mxCell>
        <mxCell id="AAtuwgzB8faNnZX-cIjk-60" value="fhd" style="text;html=1;strokeColor=none;fillColor=none;align=center;verticalAlign=middle;whiteSpace=wrap;rounded=0;labelBackgroundColor=none;labelBorderColor=none;fontStyle=1;fontSize=20;" parent="1" vertex="1">
          <mxGeometry x="1560" y="-1960" width="450" height="80" as="geometry" />
        </mxCell>
        <mxCell id="kdGQfVKE4ZaCFEnb_GYk-1" value="" style="rounded=1;whiteSpace=wrap;html=1;arcSize=1;" vertex="1" parent="1">
          <mxGeometry x="-820" y="-870" width="1270" height="1250" as="geometry" />
        </mxCell>
        <mxCell id="kdGQfVKE4ZaCFEnb_GYk-2" value="" style="rounded=1;whiteSpace=wrap;html=1;" vertex="1" parent="1">
          <mxGeometry x="25" y="-840" width="195" height="100" as="geometry" />
        </mxCell>
        <mxCell id="kdGQfVKE4ZaCFEnb_GYk-8" value="" style="rounded=1;whiteSpace=wrap;html=1;fontStyle=1;horizontal=1;verticalAlign=top;" vertex="1" parent="1">
          <mxGeometry x="-620" y="-650" width="310" height="160" as="geometry" />
        </mxCell>
        <mxCell id="kdGQfVKE4ZaCFEnb_GYk-9" value="&lt;span&gt;entity (1)&lt;/span&gt;" style="text;html=1;strokeColor=none;fillColor=none;align=center;verticalAlign=middle;whiteSpace=wrap;rounded=0;fontStyle=1" vertex="1" parent="1">
          <mxGeometry x="-530" y="-660" width="140" height="40" as="geometry" />
        </mxCell>
        <mxCell id="kdGQfVKE4ZaCFEnb_GYk-10" value="&lt;u&gt;stream_cif_mipi_id0 (1pad, 4sinks)&lt;br&gt;&lt;/u&gt;&lt;br&gt;type Node subtype V4L&lt;br&gt;device node name /dev/video0&lt;br&gt;--------------------------------------------------&lt;br&gt;&lt;b&gt;pad0: Sink &lt;br&gt;&amp;lt;- &quot;rockchip-mipi-csi2&quot;:1 [ENABLED]&lt;br&gt;&lt;/b&gt;&lt;b style=&quot;border-color: var(--border-color); font-style: normal;&quot;&gt;&lt;b style=&quot;border-color: var(--border-color);&quot;&gt;&amp;lt;- &quot;rockchip-mipi-csi2&quot;:2 []&lt;br&gt;&lt;/b&gt;&lt;b style=&quot;border-color: var(--border-color);&quot;&gt;&amp;lt;- &quot;rockchip-mipi-csi2&quot;:3 []&lt;/b&gt;&lt;br&gt;&amp;lt;- &quot;rockchip-mipi-csi2&quot;:4 []&lt;/b&gt;&lt;span style=&quot;font-style: normal;&quot;&gt;&lt;br&gt;&lt;/span&gt;" style="text;html=1;strokeColor=none;fillColor=none;align=center;verticalAlign=middle;whiteSpace=wrap;rounded=0;fontColor=#4D4D4D;fontStyle=2" vertex="1" parent="1">
          <mxGeometry x="-585" y="-620" width="250" height="120" as="geometry" />
        </mxCell>
        <mxCell id="kdGQfVKE4ZaCFEnb_GYk-54" value="pad0" style="rounded=0;whiteSpace=wrap;html=1;horizontal=1;fillColor=#ffe6cc;strokeColor=#d79b00;dashed=1;opacity=50;" vertex="1" parent="1">
          <mxGeometry x="53" y="-800" width="50" height="20" as="geometry" />
        </mxCell>
        <mxCell id="kdGQfVKE4ZaCFEnb_GYk-55" value="pad0" style="rounded=0;whiteSpace=wrap;html=1;horizontal=1;fillColor=#dae8fc;strokeColor=#6c8ebf;dashed=1;opacity=50;" vertex="1" parent="1">
          <mxGeometry x="53" y="-775" width="50" height="20" as="geometry" />
        </mxCell>
        <mxCell id="kdGQfVKE4ZaCFEnb_GYk-56" value="" style="endArrow=classic;html=1;rounded=0;" edge="1" parent="1">
          <mxGeometry width="50" height="50" relative="1" as="geometry">
            <mxPoint x="53" y="-820.29" as="sourcePoint" />
            <mxPoint x="93" y="-820.29" as="targetPoint" />
          </mxGeometry>
        </mxCell>
        <mxCell id="kdGQfVKE4ZaCFEnb_GYk-57" value="Active Link" style="text;html=1;strokeColor=none;fillColor=none;align=center;verticalAlign=middle;whiteSpace=wrap;rounded=0;fontStyle=1" vertex="1" parent="1">
          <mxGeometry x="115" y="-835" width="85" height="30" as="geometry" />
        </mxCell>
        <mxCell id="kdGQfVKE4ZaCFEnb_GYk-58" value="source pad" style="text;html=1;strokeColor=none;fillColor=none;align=center;verticalAlign=middle;whiteSpace=wrap;rounded=0;fontStyle=1" vertex="1" parent="1">
          <mxGeometry x="117.5" y="-805" width="85" height="30" as="geometry" />
        </mxCell>
        <mxCell id="kdGQfVKE4ZaCFEnb_GYk-59" value="sink pad" style="text;html=1;strokeColor=none;fillColor=none;align=center;verticalAlign=middle;whiteSpace=wrap;rounded=0;fontStyle=1" vertex="1" parent="1">
          <mxGeometry x="120" y="-780" width="85" height="30" as="geometry" />
        </mxCell>
        <mxCell id="kdGQfVKE4ZaCFEnb_GYk-60" value="" style="rounded=1;whiteSpace=wrap;html=1;fontStyle=1;horizontal=1;verticalAlign=top;" vertex="1" parent="1">
          <mxGeometry x="-615" y="-460" width="310" height="160" as="geometry" />
        </mxCell>
        <mxCell id="kdGQfVKE4ZaCFEnb_GYk-61" value="&lt;span&gt;entity (5)&lt;/span&gt;" style="text;html=1;strokeColor=none;fillColor=none;align=center;verticalAlign=middle;whiteSpace=wrap;rounded=0;fontStyle=1" vertex="1" parent="1">
          <mxGeometry x="-525" y="-470" width="140" height="40" as="geometry" />
        </mxCell>
        <mxCell id="kdGQfVKE4ZaCFEnb_GYk-62" value="&lt;u&gt;stream_cif_mipi_id0 (1pad, 4sinks)&lt;br&gt;&lt;/u&gt;&lt;br&gt;type Node subtype V4L&lt;br&gt;device node name /dev/video0&lt;br&gt;--------------------------------------------------&lt;br&gt;&lt;b&gt;pad0: Sink &lt;br&gt;&amp;lt;- &quot;rockchip-mipi-csi2&quot;:1 []&lt;br&gt;&lt;/b&gt;&lt;b style=&quot;border-color: var(--border-color); font-style: normal;&quot;&gt;&lt;b style=&quot;border-color: var(--border-color);&quot;&gt;&amp;lt;- &quot;rockchip-mipi-csi2&quot;:2 [&lt;b style=&quot;border-color: var(--border-color); font-style: italic;&quot;&gt;ENABLED&lt;/b&gt;]&lt;br&gt;&lt;/b&gt;&lt;b style=&quot;border-color: var(--border-color);&quot;&gt;&amp;lt;- &quot;rockchip-mipi-csi2&quot;:3 []&lt;/b&gt;&lt;br&gt;&amp;lt;- &quot;rockchip-mipi-csi2&quot;:4 []&lt;/b&gt;&lt;span style=&quot;font-style: normal;&quot;&gt;&lt;br&gt;&lt;/span&gt;" style="text;html=1;strokeColor=none;fillColor=none;align=center;verticalAlign=middle;whiteSpace=wrap;rounded=0;fontColor=#4D4D4D;fontStyle=2" vertex="1" parent="1">
          <mxGeometry x="-580" y="-430" width="250" height="120" as="geometry" />
        </mxCell>
        <mxCell id="kdGQfVKE4ZaCFEnb_GYk-65" value="" style="rounded=1;whiteSpace=wrap;html=1;fontStyle=1;horizontal=1;verticalAlign=top;" vertex="1" parent="1">
          <mxGeometry x="-615" y="-270" width="310" height="160" as="geometry" />
        </mxCell>
        <mxCell id="kdGQfVKE4ZaCFEnb_GYk-66" value="&lt;span&gt;entity (9)&lt;/span&gt;" style="text;html=1;strokeColor=none;fillColor=none;align=center;verticalAlign=middle;whiteSpace=wrap;rounded=0;fontStyle=1" vertex="1" parent="1">
          <mxGeometry x="-525" y="-280" width="140" height="40" as="geometry" />
        </mxCell>
        <mxCell id="kdGQfVKE4ZaCFEnb_GYk-67" value="&lt;u&gt;stream_cif_mipi_id0 (1pad, 4sinks)&lt;br&gt;&lt;/u&gt;&lt;br&gt;type Node subtype V4L&lt;br&gt;device node name /dev/video0&lt;br&gt;--------------------------------------------------&lt;br&gt;&lt;b&gt;pad0: Sink &lt;br&gt;&amp;lt;- &quot;rockchip-mipi-csi2&quot;:1 []&lt;br&gt;&lt;/b&gt;&lt;b style=&quot;border-color: var(--border-color); font-style: normal;&quot;&gt;&lt;b style=&quot;border-color: var(--border-color);&quot;&gt;&amp;lt;- &quot;rockchip-mipi-csi2&quot;:2 []&lt;br&gt;&lt;/b&gt;&lt;b style=&quot;border-color: var(--border-color);&quot;&gt;&amp;lt;- &quot;rockchip-mipi-csi2&quot;:3 [&lt;b style=&quot;border-color: var(--border-color); font-style: italic;&quot;&gt;ENABLED&lt;/b&gt;]&lt;/b&gt;&lt;br&gt;&amp;lt;- &quot;rockchip-mipi-csi2&quot;:4 []&lt;/b&gt;&lt;span style=&quot;font-style: normal;&quot;&gt;&lt;br&gt;&lt;/span&gt;" style="text;html=1;strokeColor=none;fillColor=none;align=center;verticalAlign=middle;whiteSpace=wrap;rounded=0;fontColor=#4D4D4D;fontStyle=2" vertex="1" parent="1">
          <mxGeometry x="-580" y="-240" width="250" height="120" as="geometry" />
        </mxCell>
        <mxCell id="kdGQfVKE4ZaCFEnb_GYk-70" value="" style="rounded=1;whiteSpace=wrap;html=1;fontStyle=1;horizontal=1;verticalAlign=top;" vertex="1" parent="1">
          <mxGeometry x="-615" y="-80" width="310" height="160" as="geometry" />
        </mxCell>
        <mxCell id="kdGQfVKE4ZaCFEnb_GYk-71" value="&lt;span&gt;entity (13)&lt;/span&gt;" style="text;html=1;strokeColor=none;fillColor=none;align=center;verticalAlign=middle;whiteSpace=wrap;rounded=0;fontStyle=1" vertex="1" parent="1">
          <mxGeometry x="-525" y="-90" width="140" height="40" as="geometry" />
        </mxCell>
        <mxCell id="kdGQfVKE4ZaCFEnb_GYk-72" value="&lt;u&gt;stream_cif_mipi_id0 (1pad, 4sinks)&lt;br&gt;&lt;/u&gt;&lt;br&gt;type Node subtype V4L&lt;br&gt;device node name /dev/video0&lt;br&gt;--------------------------------------------------&lt;br&gt;&lt;b&gt;pad0: Sink &lt;br&gt;&amp;lt;- &quot;rockchip-mipi-csi2&quot;:1 []&lt;br&gt;&lt;/b&gt;&lt;b style=&quot;border-color: var(--border-color); font-style: normal;&quot;&gt;&lt;b style=&quot;border-color: var(--border-color);&quot;&gt;&amp;lt;- &quot;rockchip-mipi-csi2&quot;:2 []&lt;br&gt;&lt;/b&gt;&lt;b style=&quot;border-color: var(--border-color);&quot;&gt;&amp;lt;- &quot;rockchip-mipi-csi2&quot;:3 []&lt;/b&gt;&lt;br&gt;&amp;lt;- &quot;rockchip-mipi-csi2&quot;:4 [&lt;b style=&quot;border-color: var(--border-color); font-style: italic;&quot;&gt;ENABLED&lt;/b&gt;]&lt;/b&gt;&lt;span style=&quot;font-style: normal;&quot;&gt;&lt;br&gt;&lt;/span&gt;" style="text;html=1;strokeColor=none;fillColor=none;align=center;verticalAlign=middle;whiteSpace=wrap;rounded=0;fontColor=#4D4D4D;fontStyle=2" vertex="1" parent="1">
          <mxGeometry x="-580" y="-50" width="250" height="120" as="geometry" />
        </mxCell>
        <mxCell id="kdGQfVKE4ZaCFEnb_GYk-75" value="" style="rounded=1;whiteSpace=wrap;html=1;fontStyle=1;horizontal=1;verticalAlign=top;" vertex="1" parent="1">
          <mxGeometry x="-615" y="170" width="310" height="130" as="geometry" />
        </mxCell>
        <mxCell id="kdGQfVKE4ZaCFEnb_GYk-76" value="&lt;span&gt;entity (17)&lt;/span&gt;" style="text;html=1;strokeColor=none;fillColor=none;align=center;verticalAlign=middle;whiteSpace=wrap;rounded=0;fontStyle=1" vertex="1" parent="1">
          <mxGeometry x="-525" y="160" width="140" height="40" as="geometry" />
        </mxCell>
        <mxCell id="kdGQfVKE4ZaCFEnb_GYk-78" value="&lt;u&gt;rkcif-mipi-luma (0pad, 0link)&lt;br&gt;&lt;/u&gt;&lt;br&gt;type Node subtype V4L&lt;br&gt;device node name /dev/video4&lt;br&gt;--------------------------------------------------&lt;span style=&quot;font-style: normal;&quot;&gt;&lt;br&gt;&lt;/span&gt;" style="text;html=1;strokeColor=none;fillColor=none;align=center;verticalAlign=middle;whiteSpace=wrap;rounded=0;fontColor=#4D4D4D;fontStyle=2" vertex="1" parent="1">
          <mxGeometry x="-580" y="200" width="250" height="100" as="geometry" />
        </mxCell>
        <mxCell id="kdGQfVKE4ZaCFEnb_GYk-83" value="" style="rounded=1;whiteSpace=wrap;html=1;fontStyle=1;horizontal=1;verticalAlign=top;" vertex="1" parent="1">
          <mxGeometry x="-105" y="-670" width="310" height="520" as="geometry" />
        </mxCell>
        <mxCell id="kdGQfVKE4ZaCFEnb_GYk-84" value="&lt;span&gt;entity (20)&lt;/span&gt;" style="text;html=1;strokeColor=none;fillColor=none;align=center;verticalAlign=middle;whiteSpace=wrap;rounded=0;fontStyle=1" vertex="1" parent="1">
          <mxGeometry x="-12" y="-670" width="140" height="40" as="geometry" />
        </mxCell>
        <mxCell id="kdGQfVKE4ZaCFEnb_GYk-85" value="&lt;u&gt;rockchip-mipi-csi2 (5 pads, 17 links)&lt;br&gt;&lt;/u&gt;&lt;br&gt;type V4L2 subdev subtype Unknown&lt;br&gt;device node name /dev/v4l-subdev0&lt;br&gt;--------------------------------------------------&lt;br&gt;&lt;b&gt;pad0: Sink &lt;br&gt;&amp;lt;- &quot;rockchip-csi2-dphy2&quot;:1 [ENABLED]&lt;br&gt;&lt;/b&gt;&lt;br&gt;&lt;b&gt;pad1: Source &lt;br&gt;-&amp;gt; &quot;stream_cif_mipi_id0&quot;:0 [ENABLED]&lt;br&gt;&lt;/b&gt;&lt;b style=&quot;border-color: var(--border-color);&quot;&gt;&lt;b style=&quot;border-color: var(--border-color);&quot;&gt;&lt;b style=&quot;border-color: var(--border-color);&quot;&gt;-&amp;gt; &quot;stream_cif_mipi_id1&quot;:0 []&lt;/b&gt;&lt;br&gt;-&amp;gt; &quot;stream_cif_mipi_id2&quot;:0 []&lt;/b&gt;&lt;br&gt;-&amp;gt; &quot;stream_cif_mipi_id3&quot;:0 []&lt;br&gt;&lt;/b&gt;&lt;br&gt;&lt;b style=&quot;border-color: var(--border-color);&quot;&gt;pad2: Source&lt;br style=&quot;border-color: var(--border-color);&quot;&gt;-&amp;gt; &quot;stream_cif_mipi_id0&quot;:0 []&lt;br style=&quot;border-color: var(--border-color);&quot;&gt;&lt;/b&gt;&lt;b style=&quot;border-color: var(--border-color);&quot;&gt;&lt;b style=&quot;border-color: var(--border-color);&quot;&gt;&lt;b style=&quot;border-color: var(--border-color);&quot;&gt;-&amp;gt; &quot;stream_cif_mipi_id1&quot;:0 [ENABLED]&lt;/b&gt;&lt;br style=&quot;border-color: var(--border-color);&quot;&gt;-&amp;gt; &quot;stream_cif_mipi_id2&quot;:0 []&lt;/b&gt;&lt;br style=&quot;border-color: var(--border-color);&quot;&gt;-&amp;gt; &quot;stream_cif_mipi_id3&quot;:0 []&lt;br&gt;&lt;/b&gt;&lt;br&gt;&lt;b style=&quot;border-color: var(--border-color);&quot;&gt;pad3: Source&lt;br style=&quot;border-color: var(--border-color);&quot;&gt;-&amp;gt; &quot;stream_cif_mipi_id0&quot;:0 []&lt;br style=&quot;border-color: var(--border-color);&quot;&gt;&lt;/b&gt;&lt;b style=&quot;border-color: var(--border-color);&quot;&gt;&lt;b style=&quot;border-color: var(--border-color);&quot;&gt;&lt;b style=&quot;border-color: var(--border-color);&quot;&gt;-&amp;gt; &quot;stream_cif_mipi_id1&quot;:0 []&lt;/b&gt;&lt;br style=&quot;border-color: var(--border-color);&quot;&gt;-&amp;gt; &quot;stream_cif_mipi_id2&quot;:0 [ENABLED]&lt;/b&gt;&lt;br style=&quot;border-color: var(--border-color);&quot;&gt;-&amp;gt; &quot;stream_cif_mipi_id3&quot;:0 []&lt;br&gt;&lt;/b&gt;&lt;br&gt;&lt;b style=&quot;border-color: var(--border-color);&quot;&gt;pad4: Source&lt;br style=&quot;border-color: var(--border-color);&quot;&gt;-&amp;gt; &quot;stream_cif_mipi_id0&quot;:0 []&lt;br style=&quot;border-color: var(--border-color);&quot;&gt;&lt;/b&gt;&lt;b style=&quot;border-color: var(--border-color);&quot;&gt;&lt;b style=&quot;border-color: var(--border-color);&quot;&gt;&lt;b style=&quot;border-color: var(--border-color);&quot;&gt;-&amp;gt; &quot;stream_cif_mipi_id1&quot;:0 []&lt;/b&gt;&lt;br style=&quot;border-color: var(--border-color);&quot;&gt;-&amp;gt; &quot;stream_cif_mipi_id2&quot;:0 []&lt;/b&gt;&lt;br style=&quot;border-color: var(--border-color);&quot;&gt;-&amp;gt; &quot;stream_cif_mipi_id3&quot;:0 [ENABLED]&lt;/b&gt;&lt;span style=&quot;font-style: normal;&quot;&gt;&lt;br&gt;&lt;/span&gt;" style="text;html=1;strokeColor=none;fillColor=none;align=center;verticalAlign=middle;whiteSpace=wrap;rounded=0;fontColor=#4D4D4D;fontStyle=2" vertex="1" parent="1">
          <mxGeometry x="-75" y="-630" width="250" height="490" as="geometry" />
        </mxCell>
        <mxCell id="kdGQfVKE4ZaCFEnb_GYk-95" value="" style="rounded=1;whiteSpace=wrap;html=1;fontStyle=1;horizontal=1;verticalAlign=top;" vertex="1" parent="1">
          <mxGeometry x="-477" y="-840" width="310" height="160" as="geometry" />
        </mxCell>
        <mxCell id="kdGQfVKE4ZaCFEnb_GYk-96" value="&lt;span&gt;entity (26)&lt;/span&gt;" style="text;html=1;strokeColor=none;fillColor=none;align=center;verticalAlign=middle;whiteSpace=wrap;rounded=0;fontStyle=1" vertex="1" parent="1">
          <mxGeometry x="-387" y="-850" width="140" height="40" as="geometry" />
        </mxCell>
        <mxCell id="kdGQfVKE4ZaCFEnb_GYk-98" value="&lt;u&gt;rockchip-csi2-dphy2 (2pad, 1link)&lt;br&gt;&lt;/u&gt;&lt;br&gt;type V4L subdev subtype Unknown&lt;br&gt;device node name /dev/v4l-subdev1&lt;br&gt;--------------------------------------------------&lt;span style=&quot;font-style: normal;&quot;&gt;&lt;br&gt;&lt;b&gt;pad0: Sink&lt;br&gt;pad0: Source &lt;br&gt;-&amp;gt; &quot;rockchip-mipi-csi2&quot;: 0 [ ENABLED]&lt;/b&gt;&lt;br&gt;&lt;/span&gt;" style="text;html=1;strokeColor=none;fillColor=none;align=center;verticalAlign=middle;whiteSpace=wrap;rounded=0;fontColor=#4D4D4D;fontStyle=2" vertex="1" parent="1">
          <mxGeometry x="-442" y="-810" width="250" height="120" as="geometry" />
        </mxCell>
        <mxCell id="kdGQfVKE4ZaCFEnb_GYk-102" style="edgeStyle=orthogonalEdgeStyle;rounded=0;orthogonalLoop=1;jettySize=auto;html=1;entryX=0;entryY=0.5;entryDx=0;entryDy=0;curved=1;" edge="1" parent="1" source="kdGQfVKE4ZaCFEnb_GYk-100" target="kdGQfVKE4ZaCFEnb_GYk-101">
          <mxGeometry relative="1" as="geometry" />
        </mxCell>
        <mxCell id="kdGQfVKE4ZaCFEnb_GYk-100" value="pad0" style="rounded=0;whiteSpace=wrap;html=1;horizontal=1;fillColor=#ffe6cc;strokeColor=#d79b00;dashed=1;opacity=50;" vertex="1" parent="1">
          <mxGeometry x="-185" y="-710" width="50" height="20" as="geometry" />
        </mxCell>
        <mxCell id="kdGQfVKE4ZaCFEnb_GYk-101" value="pad0" style="rounded=0;whiteSpace=wrap;html=1;horizontal=1;fillColor=#dae8fc;strokeColor=#6c8ebf;dashed=1;opacity=50;" vertex="1" parent="1">
          <mxGeometry x="-132" y="-530" width="50" height="20" as="geometry" />
        </mxCell>
      </root>
    </mxGraphModel>
  </diagram>
  <diagram id="9_BZ0c151PW24dhCU4lt" name="develop">
    <mxGraphModel dx="2074" dy="98" grid="1" gridSize="10" guides="1" tooltips="1" connect="1" arrows="1" fold="1" page="1" pageScale="1" pageWidth="850" pageHeight="1100" math="0" shadow="0">
      <root>
        <mxCell id="0" />
        <mxCell id="1" parent="0" />
        <mxCell id="Ia1HiYq8E8WQ6ls_9nWP-4" style="edgeStyle=orthogonalEdgeStyle;rounded=0;orthogonalLoop=1;jettySize=auto;html=1;verticalAlign=top;" parent="1" source="Ia1HiYq8E8WQ6ls_9nWP-1" target="Ia1HiYq8E8WQ6ls_9nWP-3" edge="1">
          <mxGeometry relative="1" as="geometry" />
        </mxCell>
        <mxCell id="Ia1HiYq8E8WQ6ls_9nWP-1" value="&lt;i style=&quot;font-size: 11px;&quot;&gt;tp2860_open&lt;/i&gt;" style="rounded=1;whiteSpace=wrap;html=1;absoluteArcSize=1;arcSize=14;strokeWidth=2;strokeColor=#4D4D4D;fontSize=11;verticalAlign=top;" parent="1" vertex="1">
          <mxGeometry x="50" y="1150" width="490" height="30" as="geometry" />
        </mxCell>
        <mxCell id="Ia1HiYq8E8WQ6ls_9nWP-14" style="edgeStyle=orthogonalEdgeStyle;rounded=0;orthogonalLoop=1;jettySize=auto;html=1;" parent="1" source="Ia1HiYq8E8WQ6ls_9nWP-3" target="Ia1HiYq8E8WQ6ls_9nWP-13" edge="1">
          <mxGeometry relative="1" as="geometry" />
        </mxCell>
        <mxCell id="Ia1HiYq8E8WQ6ls_9nWP-3" value="&lt;i style=&quot;font-size: 11px;&quot;&gt;tp2860_s_power&lt;br style=&quot;font-size: 11px;&quot;&gt;:on&lt;br style=&quot;font-size: 11px;&quot;&gt;&lt;/i&gt;" style="rounded=1;whiteSpace=wrap;html=1;absoluteArcSize=1;arcSize=14;strokeWidth=2;strokeColor=#4D4D4D;fontSize=11;verticalAlign=top;" parent="1" vertex="1">
          <mxGeometry x="50" y="1200" width="490" height="250" as="geometry" />
        </mxCell>
        <mxCell id="Ia1HiYq8E8WQ6ls_9nWP-5" value="&lt;i style=&quot;font-size: 11px;&quot;&gt;__tp2860_power_on&lt;br style=&quot;font-size: 11px;&quot;&gt;&lt;/i&gt;" style="rounded=1;whiteSpace=wrap;html=1;absoluteArcSize=1;arcSize=14;strokeWidth=2;strokeColor=#4D4D4D;fontSize=11;verticalAlign=top;" parent="1" vertex="1">
          <mxGeometry x="60" y="1240" width="110" height="30" as="geometry" />
        </mxCell>
        <mxCell id="Ia1HiYq8E8WQ6ls_9nWP-8" value="&lt;div style=&quot;color: rgb(204, 204, 204); background-color: rgb(31, 31, 31); font-family: &amp;quot;Droid Sans Mono&amp;quot;, &amp;quot;monospace&amp;quot;, monospace; font-weight: normal; font-size: 10px; line-height: 14px;&quot;&gt;&lt;div&gt;&lt;span style=&quot;color: #9cdcfe;&quot;&gt;ret&lt;/span&gt;&lt;span style=&quot;color: #cccccc;&quot;&gt; &lt;/span&gt;&lt;span style=&quot;color: #d4d4d4;&quot;&gt;=&lt;/span&gt;&lt;span style=&quot;color: #cccccc;&quot;&gt; &lt;/span&gt;&lt;span style=&quot;color: #dcdcaa;&quot;&gt;tp2860_write_array&lt;/span&gt;&lt;span style=&quot;color: #cccccc;&quot;&gt;(&lt;/span&gt;&lt;span style=&quot;color: #9cdcfe;&quot;&gt;tp2860&lt;/span&gt;&lt;span style=&quot;color: #cccccc;&quot;&gt;-&amp;gt;&lt;/span&gt;&lt;span style=&quot;color: #9cdcfe;&quot;&gt;client&lt;/span&gt;&lt;span style=&quot;color: #cccccc;&quot;&gt;, &lt;/span&gt;&lt;span style=&quot;color: #9cdcfe;&quot;&gt;tp2860_global_v10_regs&lt;/span&gt;&lt;span style=&quot;color: #cccccc;&quot;&gt;);&lt;/span&gt;&lt;/div&gt;&lt;/div&gt;" style="text;whiteSpace=wrap;html=1;" parent="1" vertex="1">
          <mxGeometry x="110" y="1300" width="420" height="40" as="geometry" />
        </mxCell>
        <mxCell id="Ia1HiYq8E8WQ6ls_9nWP-9" value="&lt;div style=&quot;color: rgb(204, 204, 204); background-color: rgb(31, 31, 31); font-family: &amp;quot;Droid Sans Mono&amp;quot;, &amp;quot;monospace&amp;quot;, monospace; font-weight: normal; font-size: 10px; line-height: 14px;&quot;&gt;&lt;div&gt;&lt;span style=&quot;color: #dcdcaa;&quot;&gt;tp2860_reset_default&lt;/span&gt;&lt;/div&gt;&lt;/div&gt;" style="text;whiteSpace=wrap;html=1;" parent="1" vertex="1">
          <mxGeometry x="110" y="1340" width="150" height="40" as="geometry" />
        </mxCell>
        <mxCell id="Ia1HiYq8E8WQ6ls_9nWP-10" value="&lt;div style=&quot;color: rgb(204, 204, 204); background-color: rgb(31, 31, 31); font-family: &amp;quot;Droid Sans Mono&amp;quot;, &amp;quot;monospace&amp;quot;, monospace; font-weight: normal; font-size: 10px; line-height: 14px;&quot;&gt;&lt;div&gt;&lt;span style=&quot;color: #cccccc;&quot;&gt;        &lt;/span&gt;&lt;span style=&quot;color: #dcdcaa;&quot;&gt;tp2860_set_input&lt;/span&gt;&lt;span style=&quot;color: #cccccc;&quot;&gt;(&lt;/span&gt;&lt;span style=&quot;color: #9cdcfe;&quot;&gt;tp2860&lt;/span&gt;&lt;span style=&quot;color: #cccccc;&quot;&gt;, &lt;/span&gt;&lt;span style=&quot;color: #569cd6;&quot;&gt;TP2860_INPUT_CH&lt;/span&gt;&lt;span style=&quot;color: #cccccc;&quot;&gt;);&lt;/span&gt;&lt;/div&gt;&lt;div&gt;&lt;span style=&quot;color: #cccccc;&quot;&gt;&lt;/span&gt;&lt;/div&gt;&lt;/div&gt;" style="text;whiteSpace=wrap;html=1;" parent="1" vertex="1">
          <mxGeometry x="110" y="1380" width="290" height="40" as="geometry" />
        </mxCell>
        <mxCell id="Ia1HiYq8E8WQ6ls_9nWP-11" value="&lt;div style=&quot;color: rgb(204, 204, 204); background-color: rgb(31, 31, 31); font-family: &amp;quot;Droid Sans Mono&amp;quot;, &amp;quot;monospace&amp;quot;, monospace; font-weight: normal; font-size: 10px; line-height: 14px;&quot;&gt;&lt;div&gt;&lt;span style=&quot;color: #cccccc;&quot;&gt;        &lt;/span&gt;&lt;span style=&quot;color: #dcdcaa;&quot;&gt;tp2860_set_output&lt;/span&gt;&lt;span style=&quot;color: #cccccc;&quot;&gt;(&lt;/span&gt;&lt;span style=&quot;color: #9cdcfe;&quot;&gt;tp2860&lt;/span&gt;&lt;span style=&quot;color: #cccccc;&quot;&gt;);&lt;/span&gt;&lt;/div&gt;&lt;div&gt;&lt;span style=&quot;color: #cccccc;&quot;&gt;&lt;/span&gt;&lt;/div&gt;&lt;/div&gt;" style="text;whiteSpace=wrap;html=1;" parent="1" vertex="1">
          <mxGeometry x="110" y="1420" width="190" height="40" as="geometry" />
        </mxCell>
        <mxCell id="Ia1HiYq8E8WQ6ls_9nWP-13" value="tp2860_s_stream&lt;i style=&quot;font-size: 11px;&quot;&gt;&lt;br style=&quot;font-size: 11px;&quot;&gt;&lt;/i&gt;" style="rounded=1;whiteSpace=wrap;html=1;absoluteArcSize=1;arcSize=14;strokeWidth=2;strokeColor=#4D4D4D;fontSize=11;verticalAlign=top;" parent="1" vertex="1">
          <mxGeometry x="50" y="1470" width="490" height="480" as="geometry" />
        </mxCell>
        <mxCell id="Ia1HiYq8E8WQ6ls_9nWP-15" value="&lt;div style=&quot;color: rgb(204, 204, 204); background-color: rgb(31, 31, 31); font-family: &amp;quot;Droid Sans Mono&amp;quot;, &amp;quot;monospace&amp;quot;, monospace; font-weight: normal; font-size: 10px; line-height: 14px;&quot;&gt;&lt;div&gt;&lt;span style=&quot;color: #dcdcaa;&quot;&gt;__tp2860_start_stream&lt;/span&gt;&lt;/div&gt;&lt;/div&gt;" style="text;whiteSpace=wrap;html=1;" parent="1" vertex="1">
          <mxGeometry x="110" y="1510" width="160" height="40" as="geometry" />
        </mxCell>
        <mxCell id="Ia1HiYq8E8WQ6ls_9nWP-16" value="&lt;div style=&quot;color: rgb(204, 204, 204); background-color: rgb(31, 31, 31); font-family: &amp;quot;Droid Sans Mono&amp;quot;, &amp;quot;monospace&amp;quot;, monospace; font-weight: normal; font-size: 10px; line-height: 14px;&quot;&gt;&lt;div&gt;&lt;span style=&quot;color: #cccccc;&quot;&gt;    &lt;/span&gt;&lt;span style=&quot;color: #9cdcfe;&quot;&gt;ret&lt;/span&gt;&lt;span style=&quot;color: #cccccc;&quot;&gt; &lt;/span&gt;&lt;span style=&quot;color: #d4d4d4;&quot;&gt;=&lt;/span&gt;&lt;span style=&quot;color: #cccccc;&quot;&gt; &lt;/span&gt;&lt;span style=&quot;color: #dcdcaa;&quot;&gt;tp2860_write_array&lt;/span&gt;&lt;span style=&quot;color: #cccccc;&quot;&gt;(&lt;/span&gt;&lt;span style=&quot;color: #9cdcfe;&quot;&gt;tp2860&lt;/span&gt;&lt;span style=&quot;color: #cccccc;&quot;&gt;-&amp;gt;&lt;/span&gt;&lt;span style=&quot;color: #9cdcfe;&quot;&gt;client&lt;/span&gt;&lt;span style=&quot;color: #cccccc;&quot;&gt;, &lt;/span&gt;&lt;span style=&quot;color: #9cdcfe;&quot;&gt;tp2860&lt;/span&gt;&lt;span style=&quot;color: #cccccc;&quot;&gt;-&amp;gt;&lt;/span&gt;&lt;span style=&quot;color: #9cdcfe;&quot;&gt;cur_mode&lt;/span&gt;&lt;span style=&quot;color: #cccccc;&quot;&gt;-&amp;gt;&lt;/span&gt;&lt;span style=&quot;color: #9cdcfe;&quot;&gt;reg_list&lt;/span&gt;&lt;span style=&quot;color: #cccccc;&quot;&gt;);&lt;/span&gt;&lt;/div&gt;&lt;div&gt;&lt;span style=&quot;color: #cccccc;&quot;&gt;&lt;/span&gt;&lt;/div&gt;&lt;/div&gt;" style="text;whiteSpace=wrap;html=1;" parent="1" vertex="1">
          <mxGeometry x="110" y="1550" width="450" height="40" as="geometry" />
        </mxCell>
        <mxCell id="Ia1HiYq8E8WQ6ls_9nWP-17" value="&lt;div style=&quot;color: rgb(204, 204, 204); background-color: rgb(31, 31, 31); font-family: &amp;quot;Droid Sans Mono&amp;quot;, &amp;quot;monospace&amp;quot;, monospace; font-weight: normal; font-size: 10px; line-height: 14px;&quot;&gt;&lt;div&gt;&lt;span style=&quot;color: #cccccc;&quot;&gt;    &lt;/span&gt;&lt;span style=&quot;color: #dcdcaa;&quot;&gt;tp2860_ntsc_dataset&lt;/span&gt;&lt;span style=&quot;color: #cccccc;&quot;&gt;(&lt;/span&gt;&lt;span style=&quot;color: #9cdcfe;&quot;&gt;tp2860&lt;/span&gt;&lt;span style=&quot;color: #cccccc;&quot;&gt;);&lt;/span&gt;&lt;span style=&quot;color: #888888;&quot;&gt;    // TP2860_NTSC_DataSet(chip)&lt;/span&gt;&lt;/div&gt;&lt;br&gt;&lt;/div&gt;" style="text;whiteSpace=wrap;html=1;" parent="1" vertex="1">
          <mxGeometry x="110" y="1590" width="380" height="50" as="geometry" />
        </mxCell>
        <mxCell id="Ia1HiYq8E8WQ6ls_9nWP-18" value="&lt;div style=&quot;color: rgb(204, 204, 204); background-color: rgb(31, 31, 31); font-family: &amp;quot;Droid Sans Mono&amp;quot;, &amp;quot;monospace&amp;quot;, monospace; font-weight: normal; font-size: 10px; line-height: 14px;&quot;&gt;&lt;div&gt;&lt;span style=&quot;color: #cccccc;&quot;&gt;    &lt;/span&gt;&lt;span style=&quot;color: #dcdcaa;&quot;&gt;tp2860_set_reg0x02&lt;/span&gt;&lt;span style=&quot;color: #cccccc;&quot;&gt;(&lt;/span&gt;&lt;span style=&quot;color: #9cdcfe;&quot;&gt;tp2860&lt;/span&gt;&lt;span style=&quot;color: #cccccc;&quot;&gt;, &lt;/span&gt;&lt;span style=&quot;color: #b5cea8;&quot;&gt;0xcf&lt;/span&gt;&lt;span style=&quot;color: #cccccc;&quot;&gt;);&lt;/span&gt;&lt;span style=&quot;color: #888888;&quot;&gt;   // TP2825B_Set_REG0X02(chip, 0xCF);&lt;/span&gt;&lt;/div&gt;&lt;br&gt;&lt;/div&gt;" style="text;whiteSpace=wrap;html=1;" parent="1" vertex="1">
          <mxGeometry x="110" y="1650" width="450" height="50" as="geometry" />
        </mxCell>
        <mxCell id="Ia1HiYq8E8WQ6ls_9nWP-19" value="&lt;div style=&quot;color: rgb(204, 204, 204); background-color: rgb(31, 31, 31); font-family: &amp;quot;Droid Sans Mono&amp;quot;, &amp;quot;monospace&amp;quot;, monospace; font-weight: normal; font-size: 10px; line-height: 14px;&quot;&gt;&lt;div&gt;&lt;span style=&quot;color: #cccccc;&quot;&gt;    &lt;/span&gt;&lt;span style=&quot;color: #dcdcaa;&quot;&gt;tp2860_sysclk_cvbs&lt;/span&gt;&lt;span style=&quot;color: #cccccc;&quot;&gt;(&lt;/span&gt;&lt;span style=&quot;color: #9cdcfe;&quot;&gt;tp2860&lt;/span&gt;&lt;span style=&quot;color: #cccccc;&quot;&gt;);&lt;/span&gt;&lt;span style=&quot;color: #888888;&quot;&gt; // TP2825B_SYSCLK_CVBS(chip);&lt;/span&gt;&lt;/div&gt;&lt;br&gt;&lt;/div&gt;" style="text;whiteSpace=wrap;html=1;" parent="1" vertex="1">
          <mxGeometry x="110" y="1710" width="380" height="50" as="geometry" />
        </mxCell>
        <mxCell id="Ia1HiYq8E8WQ6ls_9nWP-20" value="&lt;div style=&quot;color: rgb(204, 204, 204); background-color: rgb(31, 31, 31); font-family: &amp;quot;Droid Sans Mono&amp;quot;, &amp;quot;monospace&amp;quot;, monospace; font-weight: normal; font-size: 10px; line-height: 14px;&quot;&gt;&lt;div&gt;&lt;span style=&quot;color: #cccccc;&quot;&gt;    &lt;/span&gt;&lt;span style=&quot;color: #dcdcaa;&quot;&gt;tp2860_read_reg&lt;/span&gt;&lt;span style=&quot;color: #cccccc;&quot;&gt;(&lt;/span&gt;&lt;span style=&quot;color: #9cdcfe;&quot;&gt;tp2860&lt;/span&gt;&lt;span style=&quot;color: #cccccc;&quot;&gt;-&amp;gt;&lt;/span&gt;&lt;span style=&quot;color: #9cdcfe;&quot;&gt;client&lt;/span&gt;&lt;span style=&quot;color: #cccccc;&quot;&gt;, &lt;/span&gt;&lt;span style=&quot;color: #b5cea8;&quot;&gt;0x35&lt;/span&gt;&lt;span style=&quot;color: #cccccc;&quot;&gt;, &lt;/span&gt;&lt;span style=&quot;color: #d4d4d4;&quot;&gt;&amp;amp;&lt;/span&gt;&lt;span style=&quot;color: #9cdcfe;&quot;&gt;tmp&lt;/span&gt;&lt;span style=&quot;color: #cccccc;&quot;&gt;);&lt;/span&gt;&lt;span style=&quot;color: #888888;&quot;&gt;    //&lt;/span&gt;&lt;/div&gt;&lt;div&gt;&lt;span style=&quot;color: #cccccc;&quot;&gt;    &lt;/span&gt;&lt;span style=&quot;color: #9cdcfe;&quot;&gt;tmp&lt;/span&gt;&lt;span style=&quot;color: #cccccc;&quot;&gt; &lt;/span&gt;&lt;span style=&quot;color: #d4d4d4;&quot;&gt;|=&lt;/span&gt;&lt;span style=&quot;color: #cccccc;&quot;&gt; &lt;/span&gt;&lt;span style=&quot;color: #b5cea8;&quot;&gt;0x40&lt;/span&gt;&lt;span style=&quot;color: #cccccc;&quot;&gt;;&lt;/span&gt;&lt;span style=&quot;color: #888888;&quot;&gt;    //&lt;/span&gt;&lt;/div&gt;&lt;div&gt;&lt;span style=&quot;color: #cccccc;&quot;&gt;    &lt;/span&gt;&lt;span style=&quot;color: #dcdcaa;&quot;&gt;tp2860_write_reg&lt;/span&gt;&lt;span style=&quot;color: #cccccc;&quot;&gt;(&lt;/span&gt;&lt;span style=&quot;color: #9cdcfe;&quot;&gt;tp2860&lt;/span&gt;&lt;span style=&quot;color: #cccccc;&quot;&gt;-&amp;gt;&lt;/span&gt;&lt;span style=&quot;color: #9cdcfe;&quot;&gt;client&lt;/span&gt;&lt;span style=&quot;color: #cccccc;&quot;&gt;, &lt;/span&gt;&lt;span style=&quot;color: #b5cea8;&quot;&gt;0x35&lt;/span&gt;&lt;span style=&quot;color: #cccccc;&quot;&gt;, &lt;/span&gt;&lt;span style=&quot;color: #9cdcfe;&quot;&gt;tmp&lt;/span&gt;&lt;span style=&quot;color: #cccccc;&quot;&gt;);&lt;/span&gt;&lt;span style=&quot;color: #888888;&quot;&gt;        //&lt;/span&gt;&lt;/div&gt;&lt;/div&gt;" style="text;whiteSpace=wrap;html=1;" parent="1" vertex="1">
          <mxGeometry x="110" y="1780" width="320" height="70" as="geometry" />
        </mxCell>
        <mxCell id="Ia1HiYq8E8WQ6ls_9nWP-21" value="&lt;div style=&quot;color: rgb(204, 204, 204); background-color: rgb(31, 31, 31); font-family: &amp;quot;Droid Sans Mono&amp;quot;, &amp;quot;monospace&amp;quot;, monospace; font-weight: normal; font-size: 10px; line-height: 14px;&quot;&gt;&lt;div&gt;&lt;span style=&quot;color: #cccccc;&quot;&gt;    &lt;/span&gt;&lt;span style=&quot;color: #dcdcaa;&quot;&gt;tp2860_reset_dataset&lt;/span&gt;&lt;span style=&quot;color: #cccccc;&quot;&gt;(&lt;/span&gt;&lt;span style=&quot;color: #9cdcfe;&quot;&gt;tp2860&lt;/span&gt;&lt;span style=&quot;color: #cccccc;&quot;&gt;);&lt;/span&gt;&lt;span style=&quot;color: #888888;&quot;&gt; //&lt;/span&gt;&lt;/div&gt;&lt;br&gt;&lt;/div&gt;" style="text;whiteSpace=wrap;html=1;" parent="1" vertex="1">
          <mxGeometry x="110" y="1860" width="230" height="50" as="geometry" />
        </mxCell>
        <mxCell id="g5OQStqn8uEKZKYvtfFz-1" value="&lt;div style=&quot;color: rgb(204, 204, 204); background-color: rgb(31, 31, 31); font-family: &amp;quot;Droid Sans Mono&amp;quot;, &amp;quot;monospace&amp;quot;, monospace; font-weight: normal; font-size: 11px; line-height: 15px;&quot;&gt;&lt;br&gt;&lt;div&gt;&lt;span style=&quot;color: #569cd6;&quot;&gt;struct&lt;/span&gt;&lt;span style=&quot;color: #cccccc;&quot;&gt; &lt;/span&gt;&lt;span style=&quot;color: #4ec9b0;&quot;&gt;tp2860&lt;/span&gt;&lt;span style=&quot;color: #cccccc;&quot;&gt; {&lt;/span&gt;&lt;/div&gt;&lt;div&gt;&lt;span style=&quot;color: #cccccc;&quot;&gt;    &lt;/span&gt;&lt;span style=&quot;color: #569cd6;&quot;&gt;struct&lt;/span&gt;&lt;span style=&quot;color: #cccccc;&quot;&gt; &lt;/span&gt;&lt;span style=&quot;color: #4ec9b0;&quot;&gt;i2c_client&lt;/span&gt;&lt;span style=&quot;color: #cccccc;&quot;&gt; &lt;/span&gt;&lt;span style=&quot;color: #d4d4d4;&quot;&gt;*&lt;/span&gt;&lt;span style=&quot;color: #9cdcfe;&quot;&gt;client&lt;/span&gt;&lt;span style=&quot;color: #cccccc;&quot;&gt;;&lt;/span&gt;&lt;/div&gt;&lt;br&gt;&lt;div&gt;&lt;span style=&quot;color: #cccccc;&quot;&gt;    &lt;/span&gt;&lt;span style=&quot;color: #569cd6;&quot;&gt;struct&lt;/span&gt;&lt;span style=&quot;color: #cccccc;&quot;&gt; &lt;/span&gt;&lt;span style=&quot;color: #4ec9b0;&quot;&gt;gpio_desc&lt;/span&gt;&lt;span style=&quot;color: #cccccc;&quot;&gt; &lt;/span&gt;&lt;span style=&quot;color: #d4d4d4;&quot;&gt;*&lt;/span&gt;&lt;span style=&quot;color: #9cdcfe;&quot;&gt;reset_gpio&lt;/span&gt;&lt;span style=&quot;color: #cccccc;&quot;&gt;;&lt;/span&gt;&lt;/div&gt;&lt;br&gt;&lt;div&gt;&lt;span style=&quot;color: #cccccc;&quot;&gt;    &lt;/span&gt;&lt;span style=&quot;color: #569cd6;&quot;&gt;struct&lt;/span&gt;&lt;span style=&quot;color: #cccccc;&quot;&gt; &lt;/span&gt;&lt;span style=&quot;color: #4ec9b0;&quot;&gt;v4l2_subdev&lt;/span&gt;&lt;span style=&quot;color: #cccccc;&quot;&gt; &lt;/span&gt;&lt;span style=&quot;color: #9cdcfe;&quot;&gt;subdev&lt;/span&gt;&lt;span style=&quot;color: #cccccc;&quot;&gt;;&lt;/span&gt;&lt;/div&gt;&lt;div&gt;&lt;span style=&quot;color: #cccccc;&quot;&gt;    &lt;/span&gt;&lt;span style=&quot;color: #569cd6;&quot;&gt;struct&lt;/span&gt;&lt;span style=&quot;color: #cccccc;&quot;&gt; &lt;/span&gt;&lt;span style=&quot;color: #4ec9b0;&quot;&gt;media_pad&lt;/span&gt;&lt;span style=&quot;color: #cccccc;&quot;&gt; &lt;/span&gt;&lt;span style=&quot;color: #9cdcfe;&quot;&gt;pad&lt;/span&gt;&lt;span style=&quot;color: #cccccc;&quot;&gt;;&lt;/span&gt;&lt;/div&gt;&lt;div&gt;&lt;span style=&quot;color: #cccccc;&quot;&gt;    &lt;/span&gt;&lt;span style=&quot;color: #569cd6;&quot;&gt;struct&lt;/span&gt;&lt;span style=&quot;color: #cccccc;&quot;&gt; &lt;/span&gt;&lt;span style=&quot;color: #4ec9b0;&quot;&gt;v4l2_ctrl_handler&lt;/span&gt;&lt;span style=&quot;color: #cccccc;&quot;&gt; &lt;/span&gt;&lt;span style=&quot;color: #9cdcfe;&quot;&gt;ctrl_handler&lt;/span&gt;&lt;span style=&quot;color: #cccccc;&quot;&gt;;&lt;/span&gt;&lt;/div&gt;&lt;div&gt;&lt;span style=&quot;color: #cccccc;&quot;&gt;    &lt;/span&gt;&lt;span style=&quot;color: #569cd6;&quot;&gt;struct&lt;/span&gt;&lt;span style=&quot;color: #cccccc;&quot;&gt; &lt;/span&gt;&lt;span style=&quot;color: #4ec9b0;&quot;&gt;v4l2_ctrl&lt;/span&gt;&lt;span style=&quot;color: #cccccc;&quot;&gt; &lt;/span&gt;&lt;span style=&quot;color: #d4d4d4;&quot;&gt;*&lt;/span&gt;&lt;span style=&quot;color: #9cdcfe;&quot;&gt;test_pattern&lt;/span&gt;&lt;span style=&quot;color: #cccccc;&quot;&gt;;&lt;/span&gt;&lt;/div&gt;&lt;div&gt;&lt;span style=&quot;color: #cccccc;&quot;&gt;    &lt;/span&gt;&lt;span style=&quot;color: #569cd6;&quot;&gt;struct&lt;/span&gt;&lt;span style=&quot;color: #cccccc;&quot;&gt; &lt;/span&gt;&lt;span style=&quot;color: #4ec9b0;&quot;&gt;v4l2_dv_timings&lt;/span&gt;&lt;span style=&quot;color: #cccccc;&quot;&gt; &lt;/span&gt;&lt;span style=&quot;color: #9cdcfe;&quot;&gt;timings&lt;/span&gt;&lt;span style=&quot;color: #cccccc;&quot;&gt;;&lt;/span&gt;&lt;/div&gt;&lt;div&gt;&lt;span style=&quot;color: #cccccc;&quot;&gt;    &lt;/span&gt;&lt;span style=&quot;color: #569cd6;&quot;&gt;struct&lt;/span&gt;&lt;span style=&quot;color: #cccccc;&quot;&gt; &lt;/span&gt;&lt;span style=&quot;color: #4ec9b0;&quot;&gt;mutex&lt;/span&gt;&lt;span style=&quot;color: #cccccc;&quot;&gt; &lt;/span&gt;&lt;span style=&quot;color: #9cdcfe;&quot;&gt;mutex&lt;/span&gt;&lt;span style=&quot;color: #cccccc;&quot;&gt;;&lt;/span&gt;&lt;/div&gt;&lt;br&gt;&lt;div&gt;&lt;span style=&quot;color: #cccccc;&quot;&gt;    &lt;/span&gt;&lt;span style=&quot;color: #569cd6;&quot;&gt;bool&lt;/span&gt;&lt;span style=&quot;color: #cccccc;&quot;&gt; &lt;/span&gt;&lt;span style=&quot;color: #9cdcfe;&quot;&gt;streaming&lt;/span&gt;&lt;span style=&quot;color: #cccccc;&quot;&gt;;&lt;/span&gt;&lt;/div&gt;&lt;div&gt;&lt;span style=&quot;color: #cccccc;&quot;&gt;    &lt;/span&gt;&lt;span style=&quot;color: #569cd6;&quot;&gt;bool&lt;/span&gt;&lt;span style=&quot;color: #cccccc;&quot;&gt; &lt;/span&gt;&lt;span style=&quot;color: #9cdcfe;&quot;&gt;power_on&lt;/span&gt;&lt;span style=&quot;color: #cccccc;&quot;&gt;;&lt;/span&gt;&lt;/div&gt;&lt;div&gt;&lt;span style=&quot;color: #cccccc;&quot;&gt;    &lt;/span&gt;&lt;span style=&quot;color: #569cd6;&quot;&gt;const&lt;/span&gt;&lt;span style=&quot;color: #cccccc;&quot;&gt; &lt;/span&gt;&lt;span style=&quot;color: #569cd6;&quot;&gt;struct&lt;/span&gt;&lt;span style=&quot;color: #cccccc;&quot;&gt; &lt;/span&gt;&lt;span style=&quot;color: #4ec9b0;&quot;&gt;tp2860_mode&lt;/span&gt;&lt;span style=&quot;color: #cccccc;&quot;&gt; &lt;/span&gt;&lt;span style=&quot;color: #d4d4d4;&quot;&gt;*&lt;/span&gt;&lt;span style=&quot;color: #9cdcfe;&quot;&gt;cur_mode&lt;/span&gt;&lt;span style=&quot;color: #cccccc;&quot;&gt;;&lt;/span&gt;&lt;/div&gt;&lt;div&gt;&lt;span style=&quot;color: #cccccc;&quot;&gt;    u32 &lt;/span&gt;&lt;span style=&quot;color: #9cdcfe;&quot;&gt;module_index&lt;/span&gt;&lt;span style=&quot;color: #cccccc;&quot;&gt;;&lt;/span&gt;&lt;/div&gt;&lt;div&gt;&lt;span style=&quot;color: #cccccc;&quot;&gt;    &lt;/span&gt;&lt;span style=&quot;color: #569cd6;&quot;&gt;const&lt;/span&gt;&lt;span style=&quot;color: #cccccc;&quot;&gt; &lt;/span&gt;&lt;span style=&quot;color: #569cd6;&quot;&gt;char&lt;/span&gt;&lt;span style=&quot;color: #cccccc;&quot;&gt; &lt;/span&gt;&lt;span style=&quot;color: #d4d4d4;&quot;&gt;*&lt;/span&gt;&lt;span style=&quot;color: #9cdcfe;&quot;&gt;module_facing&lt;/span&gt;&lt;span style=&quot;color: #cccccc;&quot;&gt;;&lt;/span&gt;&lt;/div&gt;&lt;div&gt;&lt;span style=&quot;color: #cccccc;&quot;&gt;    &lt;/span&gt;&lt;span style=&quot;color: #569cd6;&quot;&gt;const&lt;/span&gt;&lt;span style=&quot;color: #cccccc;&quot;&gt; &lt;/span&gt;&lt;span style=&quot;color: #569cd6;&quot;&gt;char&lt;/span&gt;&lt;span style=&quot;color: #cccccc;&quot;&gt; &lt;/span&gt;&lt;span style=&quot;color: #d4d4d4;&quot;&gt;*&lt;/span&gt;&lt;span style=&quot;color: #9cdcfe;&quot;&gt;module_name&lt;/span&gt;&lt;span style=&quot;color: #cccccc;&quot;&gt;;&lt;/span&gt;&lt;/div&gt;&lt;div&gt;&lt;span style=&quot;color: #cccccc;&quot;&gt;    &lt;/span&gt;&lt;span style=&quot;color: #569cd6;&quot;&gt;const&lt;/span&gt;&lt;span style=&quot;color: #cccccc;&quot;&gt; &lt;/span&gt;&lt;span style=&quot;color: #569cd6;&quot;&gt;char&lt;/span&gt;&lt;span style=&quot;color: #cccccc;&quot;&gt; &lt;/span&gt;&lt;span style=&quot;color: #d4d4d4;&quot;&gt;*&lt;/span&gt;&lt;span style=&quot;color: #9cdcfe;&quot;&gt;len_name&lt;/span&gt;&lt;span style=&quot;color: #cccccc;&quot;&gt;;&lt;/span&gt;&lt;/div&gt;&lt;div&gt;&lt;span style=&quot;color: #cccccc;&quot;&gt;    u32 &lt;/span&gt;&lt;span style=&quot;color: #9cdcfe;&quot;&gt;lane_data_num&lt;/span&gt;&lt;span style=&quot;color: #cccccc;&quot;&gt;;&lt;/span&gt;&lt;/div&gt;&lt;div&gt;&lt;span style=&quot;color: #cccccc;&quot;&gt;};&lt;/span&gt;&lt;/div&gt;&lt;/div&gt;" style="text;whiteSpace=wrap;html=1;" parent="1" vertex="1">
          <mxGeometry x="880" y="1140" width="290" height="350" as="geometry" />
        </mxCell>
        <mxCell id="g5OQStqn8uEKZKYvtfFz-2" value="&lt;div style=&quot;color: rgb(204, 204, 204); background-color: rgb(31, 31, 31); font-family: &amp;quot;Droid Sans Mono&amp;quot;, &amp;quot;monospace&amp;quot;, monospace; font-weight: normal; font-size: 11px; line-height: 15px;&quot;&gt;&lt;div&gt;&lt;span style=&quot;color: #569cd6;&quot;&gt;struct&lt;/span&gt;&lt;span style=&quot;color: #cccccc;&quot;&gt; &lt;/span&gt;&lt;span style=&quot;color: #4ec9b0;&quot;&gt;tp2860_mode&lt;/span&gt;&lt;span style=&quot;color: #cccccc;&quot;&gt; {&lt;/span&gt;&lt;/div&gt;&lt;div&gt;&lt;span style=&quot;color: #cccccc;&quot;&gt;    u32 &lt;/span&gt;&lt;span style=&quot;color: #9cdcfe;&quot;&gt;width&lt;/span&gt;&lt;span style=&quot;color: #cccccc;&quot;&gt;;&lt;/span&gt;&lt;/div&gt;&lt;div&gt;&lt;span style=&quot;color: #cccccc;&quot;&gt;    u32 &lt;/span&gt;&lt;span style=&quot;color: #9cdcfe;&quot;&gt;height&lt;/span&gt;&lt;span style=&quot;color: #cccccc;&quot;&gt;;&lt;/span&gt;&lt;/div&gt;&lt;div&gt;&lt;span style=&quot;color: #cccccc;&quot;&gt;    &lt;/span&gt;&lt;span style=&quot;color: #569cd6;&quot;&gt;struct&lt;/span&gt;&lt;span style=&quot;color: #cccccc;&quot;&gt; &lt;/span&gt;&lt;span style=&quot;color: #4ec9b0;&quot;&gt;v4l2_fract&lt;/span&gt;&lt;span style=&quot;color: #cccccc;&quot;&gt; &lt;/span&gt;&lt;span style=&quot;color: #9cdcfe;&quot;&gt;max_fps&lt;/span&gt;&lt;span style=&quot;color: #cccccc;&quot;&gt;;&lt;/span&gt;&lt;/div&gt;&lt;div&gt;&lt;span style=&quot;color: #cccccc;&quot;&gt;    u32 &lt;/span&gt;&lt;span style=&quot;color: #9cdcfe;&quot;&gt;field&lt;/span&gt;&lt;span style=&quot;color: #cccccc;&quot;&gt;;&lt;/span&gt;&lt;/div&gt;&lt;div&gt;&lt;span style=&quot;color: #cccccc;&quot;&gt;    u32 &lt;/span&gt;&lt;span style=&quot;color: #9cdcfe;&quot;&gt;bus_fmt&lt;/span&gt;&lt;span style=&quot;color: #cccccc;&quot;&gt;;&lt;/span&gt;&lt;/div&gt;&lt;div&gt;&lt;span style=&quot;color: #cccccc;&quot;&gt;    &lt;/span&gt;&lt;span style=&quot;color: #569cd6;&quot;&gt;const&lt;/span&gt;&lt;span style=&quot;color: #cccccc;&quot;&gt; &lt;/span&gt;&lt;span style=&quot;color: #569cd6;&quot;&gt;struct&lt;/span&gt;&lt;span style=&quot;color: #cccccc;&quot;&gt; &lt;/span&gt;&lt;span style=&quot;color: #4ec9b0;&quot;&gt;regval&lt;/span&gt;&lt;span style=&quot;color: #cccccc;&quot;&gt; &lt;/span&gt;&lt;span style=&quot;color: #d4d4d4;&quot;&gt;*&lt;/span&gt;&lt;span style=&quot;color: #9cdcfe;&quot;&gt;reg_list&lt;/span&gt;&lt;span style=&quot;color: #cccccc;&quot;&gt;;&lt;/span&gt;&lt;/div&gt;&lt;div&gt;&lt;span style=&quot;color: #cccccc;&quot;&gt;};&lt;/span&gt;&lt;/div&gt;&lt;/div&gt;" style="text;whiteSpace=wrap;html=1;" parent="1" vertex="1">
          <mxGeometry x="1200" y="1370" width="230" height="140" as="geometry" />
        </mxCell>
      </root>
    </mxGraphModel>
  </diagram>
</mxfile>
